<?xml version="1.0" encoding="utf-8"?>
<svg version="1.1" xmlns:xlink="http://www.w3.org/1999/xlink" width="12px" height="12px" viewBox="1384 288  12 12" xmlns="http://www.w3.org/2000/svg">
  <path d="M 1390 288  C 1393.36 288  1396 290.64  1396 294  C 1396 297.36  1393.36 300  1390 300  C 1386.64 300  1384 297.36  1384 294  C 1384 290.64  1386.64 288  1390 288  Z " fill-rule="nonzero" fill="#f0f0f0" stroke="none" />
  <path d="M 1390 288.5  C 1393.08 288.5  1395.5 290.92  1395.5 294  C 1395.5 297.08  1393.08 299.5  1390 299.5  C 1386.92 299.5  1384.5 297.08  1384.5 294  C 1384.5 290.92  1386.92 288.5  1390 288.5  Z " stroke-width="1" stroke="#797979" fill="none" />
  <path d="M 1390 297  C 1388.32 297  1387 295.68  1387 294  C 1387 292.32  1388.32 291  1390 291  C 1391.68 291  1393 292.32  1393 294  C 1393 295.68  1391.68 297  1390 297  " fill-rule="nonzero" fill="#797979" stroke="none" />
</svg>