<?xml version="1.0" encoding="utf-8"?>
<svg version="1.1" xmlns:xlink="http://www.w3.org/1999/xlink" width="12px" height="12px" viewBox="1294 560  12 12" xmlns="http://www.w3.org/2000/svg">
  <path d="M 1300 560  C 1303.36 560  1306 562.64  1306 566  C 1306 569.36  1303.36 572  1300 572  C 1296.64 572  1294 569.36  1294 566  C 1294 562.64  1296.64 560  1300 560  Z " fill-rule="nonzero" fill="#f0f0f0" stroke="none" />
  <path d="M 1300 560.5  C 1303.08 560.5  1305.5 562.92  1305.5 566  C 1305.5 569.08  1303.08 571.5  1300 571.5  C 1296.92 571.5  1294.5 569.08  1294.5 566  C 1294.5 562.92  1296.92 560.5  1300 560.5  Z " stroke-width="1" stroke="#797979" fill="none" />
  <path d="M 1300 569  C 1298.32 569  1297 567.68  1297 566  C 1297 564.32  1298.32 563  1300 563  C 1301.68 563  1303 564.32  1303 566  C 1303 567.68  1301.68 569  1300 569  " fill-rule="nonzero" fill="#797979" stroke="none" />
</svg>