<?xml version="1.0" encoding="utf-8"?>
<svg version="1.1" xmlns:xlink="http://www.w3.org/1999/xlink" width="12px" height="12px" viewBox="1295 486  12 12" xmlns="http://www.w3.org/2000/svg">
  <path d="M 1301 486  C 1304.36 486  1307 488.64  1307 492  C 1307 495.36  1304.36 498  1301 498  C 1297.64 498  1295 495.36  1295 492  C 1295 488.64  1297.64 486  1301 486  Z " fill-rule="nonzero" fill="#ffffff" stroke="none" />
  <path d="M 1301 486.5  C 1304.08 486.5  1306.5 488.92  1306.5 492  C 1306.5 495.08  1304.08 497.5  1301 497.5  C 1297.92 497.5  1295.5 495.08  1295.5 492  C 1295.5 488.92  1297.92 486.5  1301 486.5  Z " stroke-width="1" stroke="#797979" fill="none" />
  <path d="M 1301 495  C 1299.32 495  1298 493.68  1298 492  C 1298 490.32  1299.32 489  1301 489  C 1302.68 489  1304 490.32  1304 492  C 1304 493.68  1302.68 495  1301 495  " fill-rule="nonzero" fill="#797979" stroke="none" />
</svg>