<?xml version="1.0" encoding="utf-8"?>
<svg version="1.1" xmlns:xlink="http://www.w3.org/1999/xlink" width="12px" height="12px" viewBox="1575 288  12 12" xmlns="http://www.w3.org/2000/svg">
  <path d="M 1581 288  C 1584.36 288  1587 290.64  1587 294  C 1587 297.36  1584.36 300  1581 300  C 1577.64 300  1575 297.36  1575 294  C 1575 290.64  1577.64 288  1581 288  Z " fill-rule="nonzero" fill="#ffffff" stroke="none" />
  <path d="M 1581 288.5  C 1584.08 288.5  1586.5 290.92  1586.5 294  C 1586.5 297.08  1584.08 299.5  1581 299.5  C 1577.92 299.5  1575.5 297.08  1575.5 294  C 1575.5 290.92  1577.92 288.5  1581 288.5  Z " stroke-width="1" stroke="#797979" fill="none" />
  <path d="M 1581 297  C 1579.32 297  1578 295.68  1578 294  C 1578 292.32  1579.32 291  1581 291  C 1582.68 291  1584 292.32  1584 294  C 1584 295.68  1582.68 297  1581 297  " fill-rule="nonzero" fill="#797979" stroke="none" />
</svg>