<?xml version="1.0" encoding="utf-8"?>
<svg version="1.1" xmlns:xlink="http://www.w3.org/1999/xlink" width="12px" height="12px" viewBox="570 80  12 12" xmlns="http://www.w3.org/2000/svg">
  <path d="M 576 80  C 579.36 80  582 82.64  582 86  C 582 89.36  579.36 92  576 92  C 572.64 92  570 89.36  570 86  C 570 82.64  572.64 80  576 80  Z " fill-rule="nonzero" fill="#f0f0f0" stroke="none" />
  <path d="M 576 80.5  C 579.08 80.5  581.5 82.92  581.5 86  C 581.5 89.08  579.08 91.5  576 91.5  C 572.92 91.5  570.5 89.08  570.5 86  C 570.5 82.92  572.92 80.5  576 80.5  Z " stroke-width="1" stroke="#797979" fill="none" />
  <path d="M 576 89  C 574.32 89  573 87.68  573 86  C 573 84.32  574.32 83  576 83  C 577.68 83  579 84.32  579 86  C 579 87.68  577.68 89  576 89  " fill-rule="nonzero" fill="#797979" stroke="none" />
</svg>