<?xml version="1.0" encoding="utf-8"?>
<svg version="1.1" xmlns:xlink="http://www.w3.org/1999/xlink" width="660px" height="32px" viewBox="463 25  660 32" xmlns="http://www.w3.org/2000/svg">
  <path d="M 464 30  A 4 4 0 0 1 468 26 L 1118 26  A 4 4 0 0 1 1122 30 L 1122 52  A 4 4 0 0 1 1118 56 L 468 56  A 4 4 0 0 1 464 52 L 464 30  Z " fill-rule="nonzero" fill="#f0f0f0" stroke="none" />
  <path d="M 463.5 30  A 4.5 4.5 0 0 1 468 25.5 L 1118 25.5  A 4.5 4.5 0 0 1 1122.5 30 L 1122.5 52  A 4.5 4.5 0 0 1 1118 56.5 L 468 56.5  A 4.5 4.5 0 0 1 463.5 52 L 463.5 30  Z " stroke-width="1" stroke="#cccccc" fill="none" stroke-opacity="0.0901960784313725" />
</svg>