<?xml version="1.0" encoding="utf-8"?>
<svg version="1.1" xmlns:xlink="http://www.w3.org/1999/xlink" width="16px" height="20px" xmlns="http://www.w3.org/2000/svg">
  <defs>
    <linearGradient gradientUnits="userSpaceOnUse" x1="8" y1="0" x2="8" y2="20" id="LinearGradient1">
      <stop id="Stop2" stop-color="#3366ff" stop-opacity="0.203921568627451" offset="0" />
      <stop id="Stop3" stop-color="#3366ff" stop-opacity="0.392156862745098" offset="1" />
    </linearGradient>
  </defs>
  <g transform="matrix(1 0 0 1 -181 -121 )">
    <path d="M 15.0875 13.91875  C 16.00625 13.16875  15.36875 11.85625  14.075 11.85625  L 11.80625 11.85625  C 11.80625 11.8375  11.80625 11.8375  11.80625 11.81875  L 11.80625 2.5  C 11.80625 1.46875  10.9625 0.625  9.93125 0.625  L 6.125 0.625  C 5.09375 0.625  4.25 1.46875  4.25 2.5  L 4.25 11.81875  C 4.25 11.8375  4.25 11.8375  4.25 11.85625  L 1.9625 11.85625  C 0.668749999999999 11.85625  0.03125 13.16875  0.93125 13.91875  L 6.9875 19  C 7.55 19.46875  8.46875 19.46875  9.03125 19  L 15.0875 13.91875  Z " fill-rule="nonzero" fill="url(#LinearGradient1)" stroke="none" transform="matrix(1 0 0 1 181 121 )" />
  </g>
</svg>