<?xml version="1.0" standalone="no"?><!DOCTYPE svg PUBLIC "-//W3C//DTD SVG 1.1//EN" "http://www.w3.org/Graphics/SVG/1.1/DTD/svg11.dtd"><svg class="icon" width="200px" height="200.00px" viewBox="0 0 1024 1024" version="1.1" xmlns="http://www.w3.org/2000/svg"><path d="M412.672 119.552c89.344 0 173.056 34.816 236.288 97.792 62.976 62.976 97.792 146.944 97.792 236.288s-34.816 173.056-97.792 236.288c-62.976 62.976-146.944 97.792-236.288 97.792S239.616 753.152 176.64 689.92c-62.976-62.976-97.792-146.944-97.792-236.288S113.408 280.576 176.64 217.6c62.976-63.232 146.944-98.048 236.032-98.048m0-56.32C197.12 63.232 22.272 238.08 22.272 453.632S197.12 844.032 412.672 844.032s390.4-174.848 390.4-390.4S628.48 63.232 412.672 63.232z"  /><path d="M951.296 954.88l-284.16-242.176c-11.52-9.728-11.52-28.672 0-42.24 11.52-13.568 30.208-16.64 41.728-6.656l284.16 242.176c11.52 9.728 11.52 28.672 0 42.24-11.52 13.568-30.208 16.384-41.728 6.656z"  /></svg>