<?xml version="1.0" encoding="utf-8"?>
<svg version="1.1" xmlns:xlink="http://www.w3.org/1999/xlink" width="102px" height="40px" xmlns="http://www.w3.org/2000/svg">
  <g transform="matrix(1 0 0 1 -1178 -104 )">
    <path d="M 1179 109  A 4 4 0 0 1 1183 105 L 1275 105  A 4 4 0 0 1 1279 109 L 1279 139  A 4 4 0 0 1 1275 143 L 1183 143  A 4 4 0 0 1 1179 139 L 1179 109  Z " fill-rule="nonzero" fill="#ffffff" stroke="none" />
    <path d="M 1178.5 109  A 4.5 4.5 0 0 1 1183 104.5 L 1275 104.5  A 4.5 4.5 0 0 1 1279.5 109 L 1279.5 139  A 4.5 4.5 0 0 1 1275 143.5 L 1183 143.5  A 4.5 4.5 0 0 1 1178.5 139 L 1178.5 109  Z " stroke-width="1" stroke="#d52c2c" fill="none" stroke-opacity="0.756862745098039" />
  </g>
</svg>