<?xml version="1.0" standalone="no"?><!DOCTYPE svg PUBLIC "-//W3C//DTD SVG 1.1//EN" "http://www.w3.org/Graphics/SVG/1.1/DTD/svg11.dtd"><svg class="icon" width="200px" height="200.00px" viewBox="0 0 1024 1024" version="1.1" xmlns="http://www.w3.org/2000/svg"><path d="M810.667 85.333A42.667 42.667 0 0 1 853.333 128v362.667H768v-320H170.667v640h170.666V896H128a42.667 42.667 0 0 1-42.667-42.667V128A42.667 42.667 0 0 1 128 85.333h682.667zM256 341.333V256h426.667v85.333H256zM256 512v-85.333h298.667V512H256z" fill="#1768E4" /><path d="M768 896h-0.427a211.968 211.968 0 0 0 43.094-128h-85.334c0 70.57-57.386 128-128 128s-128-57.43-128-128 57.387-128 128-128h0.427a211.968 211.968 0 0 0-43.093 128H640c0-70.57 57.43-128 128-128s128 57.43 128 128-57.43 128-128 128m0-341.333c-30.421 0-59.307 6.485-85.547 18.048a210.859 210.859 0 0 0-85.12-18.048C479.701 554.667 384 650.368 384 768s95.701 213.333 213.333 213.333c30.379 0 59.179-6.485 85.419-17.962A213.675 213.675 0 0 0 768 981.333c117.632 0 213.333-95.701 213.333-213.333S885.632 554.667 768 554.667" fill="#8BB3F1" /></svg>