<?xml version="1.0" standalone="no"?><!DOCTYPE svg PUBLIC "-//W3C//DTD SVG 1.1//EN" "http://www.w3.org/Graphics/SVG/1.1/DTD/svg11.dtd"><svg class="icon" width="200px" height="200.00px" viewBox="0 0 1024 1024" version="1.1" xmlns="http://www.w3.org/2000/svg"><path d="M932.829867 441.258667A432.7424 432.7424 0 0 1 938.666667 512c0 235.639467-191.0272 426.666667-426.666667 426.666667S85.333333 747.639467 85.333333 512 276.360533 85.333333 512 85.333333a424.9088 424.9088 0 0 1 270.848 96.9728" fill="#FFFFFF" /><path d="M512 955.733333C267.332267 955.733333 68.266667 756.6848 68.266667 512 68.266667 267.332267 267.332267 68.266667 512 68.266667a444.501333 444.501333 0 0 1 281.7024 100.864 17.066667 17.066667 0 0 1-21.691733 26.368A410.197333 410.197333 0 0 0 512 102.4C286.1568 102.4 102.4 286.1568 102.4 512s183.7568 409.6 409.6 409.6 409.6-183.7568 409.6-409.6a414.037333 414.037333 0 0 0-5.597867-67.9424 17.066667 17.066667 0 1 1 33.655467-5.614933A445.0304 445.0304 0 0 1 955.733333 512c0 244.6848-199.048533 443.733333-443.733333 443.733333z" fill="#1A87FF" /><path d="M540.791467 688.008533a51.165867 51.165867 0 0 1-36.1984-87.3984l386.167466-386.167466a51.165867 51.165867 0 0 1 72.3968 0 51.165867 51.165867 0 0 1 0 72.3968L576.989867 673.024a51.029333 51.029333 0 0 1-36.1984 14.984533z" fill="#1A87FF" /><path d="M535.278933 688.008533a50.9952 50.9952 0 0 1-36.1984-15.0016L315.989333 489.9328a51.165867 51.165867 0 0 1 0-72.3968 51.165867 51.165867 0 0 1 72.3968 0l183.0912 183.0912a51.2 51.2 0 0 1-36.1984 87.381333z" fill="#1A87FF" /></svg>