<?xml version="1.0" encoding="utf-8"?>
<svg version="1.1" xmlns:xlink="http://www.w3.org/1999/xlink" width="162px" height="30px" viewBox="383 100  162 30" xmlns="http://www.w3.org/2000/svg">
  <path d="M 384 105  A 4 4 0 0 1 388 101 L 540 101  A 4 4 0 0 1 544 105 L 544 125  A 4 4 0 0 1 540 129 L 388 129  A 4 4 0 0 1 384 125 L 384 105  Z " fill-rule="nonzero" fill="#ffffff" stroke="none" />
  <path d="M 383.5 105  A 4.5 4.5 0 0 1 388 100.5 L 540 100.5  A 4.5 4.5 0 0 1 544.5 105 L 544.5 125  A 4.5 4.5 0 0 1 540 129.5 L 388 129.5  A 4.5 4.5 0 0 1 383.5 125 L 383.5 105  Z " stroke-width="1" stroke="#d52c2c" fill="none" stroke-opacity="0.756862745098039" />
</svg>