<?xml version="1.0" encoding="utf-8"?>
<svg version="1.1" xmlns:xlink="http://www.w3.org/1999/xlink" width="12px" height="12px" viewBox="162 347  12 12" xmlns="http://www.w3.org/2000/svg">
  <path d="M 168 347  C 171.36 347  174 349.64  174 353  C 174 356.36  171.36 359  168 359  C 164.64 359  162 356.36  162 353  C 162 349.64  164.64 347  168 347  Z " fill-rule="nonzero" fill="#f0f0f0" stroke="none" />
  <path d="M 168 347.5  C 171.08 347.5  173.5 349.92  173.5 353  C 173.5 356.08  171.08 358.5  168 358.5  C 164.92 358.5  162.5 356.08  162.5 353  C 162.5 349.92  164.92 347.5  168 347.5  Z " stroke-width="1" stroke="#797979" fill="none" />
  <path d="M 168 356  C 166.32 356  165 354.68  165 353  C 165 351.32  166.32 350  168 350  C 169.68 350  171 351.32  171 353  C 171 354.68  169.68 356  168 356  " fill-rule="nonzero" fill="#797979" stroke="none" />
</svg>