<?xml version="1.0" encoding="utf-8"?>
<svg version="1.1" xmlns:xlink="http://www.w3.org/1999/xlink" width="12px" height="12px" viewBox="227 347  12 12" xmlns="http://www.w3.org/2000/svg">
  <path d="M 233 347  C 236.36 347  239 349.64  239 353  C 239 356.36  236.36 359  233 359  C 229.64 359  227 356.36  227 353  C 227 349.64  229.64 347  233 347  Z " fill-rule="nonzero" fill="#ffffff" stroke="none" />
  <path d="M 233 347.5  C 236.08 347.5  238.5 349.92  238.5 353  C 238.5 356.08  236.08 358.5  233 358.5  C 229.92 358.5  227.5 356.08  227.5 353  C 227.5 349.92  229.92 347.5  233 347.5  Z " stroke-width="1" stroke="#797979" fill="none" />
  <path d="M 233 356  C 231.32 356  230 354.68  230 353  C 230 351.32  231.32 350  233 350  C 234.68 350  236 351.32  236 353  C 236 354.68  234.68 356  233 356  " fill-rule="nonzero" fill="#797979" stroke="none" />
</svg>