<?xml version="1.0" standalone="no"?><!DOCTYPE svg PUBLIC "-//W3C//DTD SVG 1.1//EN" "http://www.w3.org/Graphics/SVG/1.1/DTD/svg11.dtd"><svg class="icon" width="200px" height="200.00px" viewBox="0 0 1024 1024" version="1.1" xmlns="http://www.w3.org/2000/svg"><path d="M506.449587 62.389956c-242.767116 0-444.059632 201.291492-444.059631 455.160457 0 242.767116 201.291492 444.059632 444.059631 444.059631 253.868965 0 455.160457-201.292516 455.160457-444.059631 0-253.868965-201.292516-455.160457-455.160457-455.160457z m203.711612 619.504456l-14.518669 25.145703c-1.330298 2.305509-4.342912 3.252067-6.783496 2.087544l-227.114625-108.34766a9.43079 9.43079 0 0 1-3.933589-3.488451c-2.430352-1.74576-3.949962-4.649903-3.816932-7.932669l13.917988-343.305927c0.107447-2.6432 2.397606-4.787026 5.007037-4.787026h38.720883c2.657526 0 4.900613 2.191922 5.006014 4.787026l12.46694 307.522956 179.462324 121.438816c2.206248 1.494027 2.901073 4.601808 1.586125 6.879688z" fill="#FFA500" /></svg>