<?xml version="1.0" encoding="utf-8"?>
<svg version="1.1" xmlns:xlink="http://www.w3.org/1999/xlink" width="12px" height="12px" viewBox="121 315  12 12" xmlns="http://www.w3.org/2000/svg">
  <path d="M 127 315  C 130.36 315  133 317.64  133 321  C 133 324.36  130.36 327  127 327  C 123.64 327  121 324.36  121 321  C 121 317.64  123.64 315  127 315  Z " fill-rule="nonzero" fill="#f0f0f0" stroke="none" />
  <path d="M 127 315.5  C 130.08 315.5  132.5 317.92  132.5 321  C 132.5 324.08  130.08 326.5  127 326.5  C 123.92 326.5  121.5 324.08  121.5 321  C 121.5 317.92  123.92 315.5  127 315.5  Z " stroke-width="1" stroke="#797979" fill="none" />
  <path d="M 127 324  C 125.32 324  124 322.68  124 321  C 124 319.32  125.32 318  127 318  C 128.68 318  130 319.32  130 321  C 130 322.68  128.68 324  127 324  " fill-rule="nonzero" fill="#797979" stroke="none" />
</svg>