<?xml version="1.0" encoding="utf-8"?>
<svg version="1.1" xmlns:xlink="http://www.w3.org/1999/xlink" width="12px" height="12px" viewBox="134 135  12 12" xmlns="http://www.w3.org/2000/svg">
  <path d="M 140 135  C 143.36 135  146 137.64  146 141  C 146 144.36  143.36 147  140 147  C 136.64 147  134 144.36  134 141  C 134 137.64  136.64 135  140 135  Z " fill-rule="nonzero" fill="#f0f0f0" stroke="none" />
  <path d="M 140 135.5  C 143.08 135.5  145.5 137.92  145.5 141  C 145.5 144.08  143.08 146.5  140 146.5  C 136.92 146.5  134.5 144.08  134.5 141  C 134.5 137.92  136.92 135.5  140 135.5  Z " stroke-width="1" stroke="#797979" fill="none" />
  <path d="M 140 144  C 138.32 144  137 142.68  137 141  C 137 139.32  138.32 138  140 138  C 141.68 138  143 139.32  143 141  C 143 142.68  141.68 144  140 144  " fill-rule="nonzero" fill="#797979" stroke="none" />
</svg>