<?xml version="1.0" encoding="utf-8"?>
<svg version="1.1" xmlns:xlink="http://www.w3.org/1999/xlink" width="12px" height="12px" viewBox="24 135  12 12" xmlns="http://www.w3.org/2000/svg">
  <path d="M 30 135  C 33.36 135  36 137.64  36 141  C 36 144.36  33.36 147  30 147  C 26.64 147  24 144.36  24 141  C 24 137.64  26.64 135  30 135  Z " fill-rule="nonzero" fill="#ffffff" stroke="none" />
  <path d="M 30 135.5  C 33.08 135.5  35.5 137.92  35.5 141  C 35.5 144.08  33.08 146.5  30 146.5  C 26.92 146.5  24.5 144.08  24.5 141  C 24.5 137.92  26.92 135.5  30 135.5  Z " stroke-width="1" stroke="#797979" fill="none" />
  <path d="M 30 144  C 28.32 144  27 142.68  27 141  C 27 139.32  28.32 138  30 138  C 31.68 138  33 139.32  33 141  C 33 142.68  31.68 144  30 144  " fill-rule="nonzero" fill="#797979" stroke="none" />
</svg>