<?xml version="1.0" encoding="utf-8"?>
<svg version="1.1" xmlns:xlink="http://www.w3.org/1999/xlink" width="211px" height="42px" xmlns="http://www.w3.org/2000/svg">
  <g transform="matrix(1 0 0 1 -431 -160 )">
    <path d="M 432 187.9  C 432 187.9  432 165  432 165  C 432 162.790861000677  433.790861000677 161  436 161  C 436 161  637 161  637 161  C 639.209138999323 161  641 162.790861000677  641 165  C 641 165  641 187.9  641 187.9  C 641 190.109138999323  639.209138999323 191.9  637 191.9  C 637 191.9  549.75468342154 191.9  549.75468342154 191.9  C 549.75468342154 191.9  539.8518812014 200.64777517529  539.8518812014 200.64777517529  C 539.8518812014 200.64777517529  530.528803915408 191.9  530.528803915408 191.9  C 530.528803915408 191.9  436 191.9  436 191.9  C 433.790861000677 191.9  432 190.109138999323  432 187.9  Z " fill-rule="nonzero" fill="#333333" stroke="none" fill-opacity="0.8" />
  </g>
</svg>