<?xml version="1.0" encoding="utf-8"?>
<svg version="1.1" xmlns:xlink="http://www.w3.org/1999/xlink" width="60px" height="80px" xmlns="http://www.w3.org/2000/svg">
  <defs>
    <linearGradient gradientUnits="userSpaceOnUse" x1="626" y1="194" x2="626" y2="274" id="LinearGradient69">
      <stop id="Stop70" stop-color="#ffffff" offset="0" />
      <stop id="Stop71" stop-color="#f2f2f2" offset="0" />
      <stop id="Stop72" stop-color="#e4e4e4" offset="1" />
      <stop id="Stop73" stop-color="#ffffff" offset="1" />
    </linearGradient>
  </defs>
  <g transform="matrix(1 0 0 1 -596 -194 )">
    <path d="M 655.5 206  C 655.5 206  655.5 262  655.5 262  C 655.5 268.608  642.1 273.5  626 273.5  C 609.9 273.5  596.5 268.608  596.5 262  C 596.5 262  596.5 206  596.5 206  C 596.5 199.392  609.9 194.5  626 194.5  C 642.1 194.5  655.5 199.392  655.5 206  Z " fill-rule="nonzero" fill="url(#LinearGradient69)" stroke="none" />
    <path d="M 596.5 206.35  C 596.5 199.714  609.48 194.5  626 194.5  C 642.52 194.5  655.5 199.714  655.5 206.35  C 655.5 206.35  655.5 261.65  655.5 261.65  C 655.5 268.286  642.52 273.5  626 273.5  C 609.48 273.5  596.5 268.286  596.5 261.65  C 596.5 261.65  596.5 206.35  596.5 206.35  Z " stroke-width="1" stroke="#797979" fill="none" />
    <path d="M 655.5 206  C 655.5 212.44  642.52 217.5  626 217.5  C 609.48 217.5  596.5 212.44  596.5 206  " stroke-width="1" stroke="#797979" fill="none" />
  </g>
</svg>