<?xml version="1.0" encoding="utf-8"?>
<svg version="1.1" xmlns:xlink="http://www.w3.org/1999/xlink" width="1401px" height="30px" xmlns="http://www.w3.org/2000/svg">
  <g transform="matrix(1 0 0 1 -19 -32 )">
    <path d="M 20 37  A 4 4 0 0 1 24 33 L 1415 33  A 4 4 0 0 1 1419 37 L 1419 57  A 4 4 0 0 1 1415 61 L 24 61  A 4 4 0 0 1 20 57 L 20 37  Z " fill-rule="nonzero" fill="#69e6b9" stroke="none" fill-opacity="0.0980392156862745" />
    <path d="M 19.5 37  A 4.5 4.5 0 0 1 24 32.5 L 1415 32.5  A 4.5 4.5 0 0 1 1419.5 37 L 1419.5 57  A 4.5 4.5 0 0 1 1415 61.5 L 24 61.5  A 4.5 4.5 0 0 1 19.5 57 L 19.5 37  Z " stroke-width="1" stroke="#69e6b9" fill="none" stroke-opacity="0.607843137254902" />
  </g>
</svg>