<?xml version="1.0" encoding="utf-8"?>
<svg version="1.1" xmlns:xlink="http://www.w3.org/1999/xlink" width="16px" height="16px" viewBox="37 743  16 16" xmlns="http://www.w3.org/2000/svg">
  <path d="M 45 743  C 49.48 743  53 746.52  53 751  C 53 755.48  49.48 759  45 759  C 40.52 759  37 755.48  37 751  C 37 746.52  40.52 743  45 743  Z " fill-rule="nonzero" fill="#f0f0f0" stroke="none" />
  <path d="M 45 743.5  C 49.2 743.5  52.5 746.8  52.5 751  C 52.5 755.2  49.2 758.5  45 758.5  C 40.8 758.5  37.5 755.2  37.5 751  C 37.5 746.8  40.8 743.5  45 743.5  Z " stroke-width="1" stroke="#797979" fill="none" />
  <path d="M 45 755  C 42.76 755  41 753.24  41 751  C 41 748.76  42.76 747  45 747  C 47.24 747  49 748.76  49 751  C 49 753.24  47.24 755  45 755  " fill-rule="nonzero" fill="#797979" stroke="none" />
</svg>