<?xml version="1.0" encoding="utf-8"?>
<svg version="1.1" xmlns:xlink="http://www.w3.org/1999/xlink" width="16px" height="16px" viewBox="37 219  16 16" xmlns="http://www.w3.org/2000/svg">
  <path d="M 45 219  C 49.48 219  53 222.52  53 227  C 53 231.48  49.48 235  45 235  C 40.52 235  37 231.48  37 227  C 37 222.52  40.52 219  45 219  Z " fill-rule="nonzero" fill="#f0f0f0" stroke="none" />
  <path d="M 45 219.5  C 49.2 219.5  52.5 222.8  52.5 227  C 52.5 231.2  49.2 234.5  45 234.5  C 40.8 234.5  37.5 231.2  37.5 227  C 37.5 222.8  40.8 219.5  45 219.5  Z " stroke-width="1" stroke="#797979" fill="none" />
  <path d="M 45 231  C 42.76 231  41 229.24  41 227  C 41 224.76  42.76 223  45 223  C 47.24 223  49 224.76  49 227  C 49 229.24  47.24 231  45 231  " fill-rule="nonzero" fill="#797979" stroke="none" />
</svg>