<?xml version="1.0" encoding="utf-8"?>
<svg version="1.1" xmlns:xlink="http://www.w3.org/1999/xlink" width="22px" height="22px" xmlns="http://www.w3.org/2000/svg">
  <g transform="matrix(1 0 0 1 -619 -516 )">
    <path d="M 20.655078125 11.004296875  C 20.6572265625 9.706640625  20.4015625 8.4455078125  19.9009765625 7.2595703125  C 19.4154296875 6.114453125  18.7236328125 5.0853515625  17.8384765625 4.20234375  C 16.95546875 3.3193359375  15.9263671875 2.625390625  14.78125 2.13984375  C 13.5953125 1.637109375  12.3341796875 1.38359375  11.0365234375 1.38359375  C 9.7388671875 1.38359375  8.477734375 1.637109375  7.2896484375 2.13984375  C 6.14453125 2.625390625  5.1154296875 3.3171875  4.232421875 4.20234375  C 3.3494140625 5.0853515625  2.65546875 6.114453125  2.169921875 7.2595703125  C 1.6671875 8.4455078125  1.413671875 9.706640625  1.413671875 11.004296875  C 1.413671875 12.301953125  1.6671875 13.5630859375  2.169921875 14.7490234375  C 2.65546875 15.894140625  3.347265625 16.9232421875  4.232421875 17.80625  C 5.1154296875 18.6892578125  6.14453125 19.383203125  7.2896484375 19.86875  C 8.4755859375 20.371484375  9.73671875 20.625  11.034375 20.625  C 12.33203125 20.625  13.5931640625 20.371484375  14.7791015625 19.86875  C 15.92421875 19.383203125  16.9533203125 18.69140625  17.836328125 17.80625  C 18.7193359375 16.9232421875  19.41328125 15.894140625  19.898828125 14.7490234375  C 20.4015625 13.5630859375  20.655078125 12.301953125  20.655078125 11.004296875  Z M 18.919140625 11.004296875  C 18.919140625 15.3505859375  15.3828125 18.8869140625  11.0365234375 18.8869140625  C 6.690234375 18.8869140625  3.15390625 15.3505859375  3.15390625 11.004296875  C 3.15390625 6.6580078125  6.690234375 3.1216796875  11.0365234375 3.1216796875  C 15.3828125 3.1216796875  18.919140625 6.6580078125  18.919140625 11.004296875  Z " fill-rule="nonzero" fill="#d81e06" stroke="none" transform="matrix(1 0 0 1 619 516 )" />
  </g>
</svg>