<?xml version="1.0" encoding="utf-8"?>
<svg version="1.1" xmlns:xlink="http://www.w3.org/1999/xlink" width="244px" height="40px" xmlns="http://www.w3.org/2000/svg">
  <defs>
    <mask fill="white" id="clip7">
      <path d="M 6.77777777777778 33.3333333333333  L 0.38690678446029 19.2048929663608  L 6.77777777777778 6.66666666666667  C 6.77777777777778 2.93333333333332  9.26296296296295 0  12.4259259259259 0  L 238.351851851852 0  C 241.514814814815 0  244 2.93333333333332  244 6.66666666666667  L 244 33.3333333333333  C 244 37.0666666666667  241.514814814815 40  238.351851851852 40  L 12.4259259259259 40  C 9.26296296296295 40  6.77777777777778 37.0666666666667  6.77777777777778 33.3333333333333  Z " fill-rule="evenodd" />
    </mask>
  </defs>
  <g transform="matrix(1 0 0 1 -1162 -232 )">
    <path d="M 6.77777777777778 33.3333333333333  L 0.38690678446029 19.2048929663608  L 6.77777777777778 6.66666666666667  C 6.77777777777778 2.93333333333332  9.26296296296295 0  12.4259259259259 0  L 238.351851851852 0  C 241.514814814815 0  244 2.93333333333332  244 6.66666666666667  L 244 33.3333333333333  C 244 37.0666666666667  241.514814814815 40  238.351851851852 40  L 12.4259259259259 40  C 9.26296296296295 40  6.77777777777778 37.0666666666667  6.77777777777778 33.3333333333333  Z " fill-rule="nonzero" fill="#000000" stroke="none" fill-opacity="0.811764705882353" transform="matrix(1 0 0 1 1162 232 )" />
    <path d="M 6.77777777777778 33.3333333333333  L 0.38690678446029 19.2048929663608  L 6.77777777777778 6.66666666666667  C 6.77777777777778 2.93333333333332  9.26296296296295 0  12.4259259259259 0  L 238.351851851852 0  C 241.514814814815 0  244 2.93333333333332  244 6.66666666666667  L 244 33.3333333333333  C 244 37.0666666666667  241.514814814815 40  238.351851851852 40  L 12.4259259259259 40  C 9.26296296296295 40  6.77777777777778 37.0666666666667  6.77777777777778 33.3333333333333  Z " stroke-width="2" stroke="#dddfe6" fill="none" transform="matrix(1 0 0 1 1162 232 )" mask="url(#clip7)" />
  </g>
</svg>