<?xml version="1.0" encoding="utf-8"?>
<svg version="1.1" xmlns:xlink="http://www.w3.org/1999/xlink" width="228px" height="40px" xmlns="http://www.w3.org/2000/svg">
  <defs>
    <mask fill="white" id="clip5">
      <path d="M 6.33333333333333 33.3333333333333  L 0.361535847774369 19.2048929663608  L 6.33333333333333 6.66666666666667  C 6.33333333333333 2.93333333333332  8.65555555555554 0  11.6111111111111 0  L 222.722222222222 0  C 225.677777777778 0  228 2.93333333333332  228 6.66666666666667  L 228 33.3333333333333  C 228 37.0666666666667  225.677777777778 40  222.722222222222 40  L 11.6111111111111 40  C 8.65555555555554 40  6.33333333333333 37.0666666666667  6.33333333333333 33.3333333333333  Z " fill-rule="evenodd" />
    </mask>
  </defs>
  <g transform="matrix(1 0 0 1 -928 -231 )">
    <path d="M 6.33333333333333 33.3333333333333  L 0.361535847774369 19.2048929663608  L 6.33333333333333 6.66666666666667  C 6.33333333333333 2.93333333333332  8.65555555555554 0  11.6111111111111 0  L 222.722222222222 0  C 225.677777777778 0  228 2.93333333333332  228 6.66666666666667  L 228 33.3333333333333  C 228 37.0666666666667  225.677777777778 40  222.722222222222 40  L 11.6111111111111 40  C 8.65555555555554 40  6.33333333333333 37.0666666666667  6.33333333333333 33.3333333333333  Z " fill-rule="nonzero" fill="#000000" stroke="none" fill-opacity="0.811764705882353" transform="matrix(1 0 0 1 928 231 )" />
    <path d="M 6.33333333333333 33.3333333333333  L 0.361535847774369 19.2048929663608  L 6.33333333333333 6.66666666666667  C 6.33333333333333 2.93333333333332  8.65555555555554 0  11.6111111111111 0  L 222.722222222222 0  C 225.677777777778 0  228 2.93333333333332  228 6.66666666666667  L 228 33.3333333333333  C 228 37.0666666666667  225.677777777778 40  222.722222222222 40  L 11.6111111111111 40  C 8.65555555555554 40  6.33333333333333 37.0666666666667  6.33333333333333 33.3333333333333  Z " stroke-width="2" stroke="#dddfe6" fill="none" transform="matrix(1 0 0 1 928 231 )" mask="url(#clip5)" />
  </g>
</svg>