<?xml version="1.0" encoding="utf-8"?>
<svg version="1.1" xmlns:xlink="http://www.w3.org/1999/xlink" width="132px" height="84px" xmlns="http://www.w3.org/2000/svg">
  <defs>
    <mask fill="white" id="clip6">
      <path d="M 3.66666666666667 70  L 0.209310227658845 40.3302752293577  L 3.66666666666667 14  C 3.66666666666667 6.15999999999997  5.0111111111111 0  6.72222222222222 0  L 128.944444444444 0  C 130.655555555556 0  132 6.15999999999997  132 14  L 132 70  C 132 77.84  130.655555555556 84  128.944444444444 84  L 6.72222222222222 84  C 5.0111111111111 84  3.66666666666667 77.84  3.66666666666667 70  Z " fill-rule="evenodd" />
    </mask>
  </defs>
  <g transform="matrix(1 0 0 1 -1775 -210 )">
    <path d="M 3.66666666666667 70  L 0.209310227658845 40.3302752293577  L 3.66666666666667 14  C 3.66666666666667 6.15999999999997  5.0111111111111 0  6.72222222222222 0  L 128.944444444444 0  C 130.655555555556 0  132 6.15999999999997  132 14  L 132 70  C 132 77.84  130.655555555556 84  128.944444444444 84  L 6.72222222222222 84  C 5.0111111111111 84  3.66666666666667 77.84  3.66666666666667 70  Z " fill-rule="nonzero" fill="#000000" stroke="none" fill-opacity="0.811764705882353" transform="matrix(1 0 0 1 1775 210 )" />
    <path d="M 3.66666666666667 70  L 0.209310227658845 40.3302752293577  L 3.66666666666667 14  C 3.66666666666667 6.15999999999997  5.0111111111111 0  6.72222222222222 0  L 128.944444444444 0  C 130.655555555556 0  132 6.15999999999997  132 14  L 132 70  C 132 77.84  130.655555555556 84  128.944444444444 84  L 6.72222222222222 84  C 5.0111111111111 84  3.66666666666667 77.84  3.66666666666667 70  Z " stroke-width="2" stroke="#dddfe6" fill="none" transform="matrix(1 0 0 1 1775 210 )" mask="url(#clip6)" />
  </g>
</svg>