<?xml version="1.0" encoding="utf-8"?>
<svg version="1.1" xmlns:xlink="http://www.w3.org/1999/xlink" width="212px" height="40px" xmlns="http://www.w3.org/2000/svg">
  <defs>
    <mask fill="white" id="clip4">
      <path d="M 5.88888888888889 33.3333333333333  L 0.336164911088448 19.2048929663608  L 5.88888888888889 6.66666666666667  C 5.88888888888889 2.93333333333332  8.04814814814814 0  10.7962962962963 0  L 207.092592592593 0  C 209.840740740741 0  212 2.93333333333332  212 6.66666666666667  L 212 33.3333333333333  C 212 37.0666666666667  209.840740740741 40  207.092592592593 40  L 10.7962962962963 40  C 8.04814814814814 40  5.88888888888889 37.0666666666667  5.88888888888889 33.3333333333333  Z " fill-rule="evenodd" />
    </mask>
  </defs>
  <g transform="matrix(1 0 0 1 -384 -232 )">
    <path d="M 5.88888888888889 33.3333333333333  L 0.336164911088448 19.2048929663608  L 5.88888888888889 6.66666666666667  C 5.88888888888889 2.93333333333332  8.04814814814814 0  10.7962962962963 0  L 207.092592592593 0  C 209.840740740741 0  212 2.93333333333332  212 6.66666666666667  L 212 33.3333333333333  C 212 37.0666666666667  209.840740740741 40  207.092592592593 40  L 10.7962962962963 40  C 8.04814814814814 40  5.88888888888889 37.0666666666667  5.88888888888889 33.3333333333333  Z " fill-rule="nonzero" fill="#000000" stroke="none" fill-opacity="0.811764705882353" transform="matrix(1 0 0 1 384 232 )" />
    <path d="M 5.88888888888889 33.3333333333333  L 0.336164911088448 19.2048929663608  L 5.88888888888889 6.66666666666667  C 5.88888888888889 2.93333333333332  8.04814814814814 0  10.7962962962963 0  L 207.092592592593 0  C 209.840740740741 0  212 2.93333333333332  212 6.66666666666667  L 212 33.3333333333333  C 212 37.0666666666667  209.840740740741 40  207.092592592593 40  L 10.7962962962963 40  C 8.04814814814814 40  5.88888888888889 37.0666666666667  5.88888888888889 33.3333333333333  Z " stroke-width="2" stroke="#dddfe6" fill="none" transform="matrix(1 0 0 1 384 232 )" mask="url(#clip4)" />
  </g>
</svg>