<?xml version="1.0" encoding="utf-8"?>
<svg version="1.1" xmlns:xlink="http://www.w3.org/1999/xlink" width="18px" height="15px" xmlns="http://www.w3.org/2000/svg">
  <g transform="matrix(1 0 0 1 -1125 -85 )">
    <path d="M 6.51201923076923 12.6775568181818  C 6.78605769230769 12.9474431818182  6.92307692307692 13.2670454545455  6.92307692307692 13.6363636363636  C 6.92307692307692 14.0056818181818  6.78605769230769 14.3252840909091  6.51201923076923 14.5951704545455  C 6.23798076923077 14.8650568181818  5.91346153846154 15  5.53846153846154 15  C 5.16346153846154 15  4.83894230769231 14.8650568181818  4.56490384615385 14.5951704545455  C 4.29086538461538 14.3252840909091  4.15384615384615 14.0056818181818  4.15384615384615 13.6363636363636  C 4.15384615384615 13.2670454545455  4.29086538461538 12.9474431818182  4.56490384615385 12.6775568181818  C 4.83894230769231 12.4076704545455  5.16346153846154 12.2727272727273  5.53846153846154 12.2727272727273  C 5.91346153846154 12.2727272727273  6.23798076923077 12.4076704545455  6.51201923076923 12.6775568181818  Z M 16.2043269230769 12.6775568181818  C 16.4783653846154 12.9474431818182  16.6153846153846 13.2670454545455  16.6153846153846 13.6363636363636  C 16.6153846153846 14.0056818181818  16.4783653846154 14.3252840909091  16.2043269230769 14.5951704545455  C 15.9302884615385 14.8650568181818  15.6057692307692 15  15.2307692307692 15  C 14.8557692307692 15  14.53125 14.8650568181818  14.2572115384615 14.5951704545455  C 13.9831730769231 14.3252840909091  13.8461538461538 14.0056818181818  13.8461538461538 13.6363636363636  C 13.8461538461538 13.2670454545455  13.9831730769231 12.9474431818182  14.2572115384615 12.6775568181818  C 14.53125 12.4076704545455  14.8557692307692 12.2727272727273  15.2307692307692 12.2727272727273  C 15.6057692307692 12.2727272727273  15.9302884615385 12.4076704545455  16.2043269230769 12.6775568181818  Z M 17.7944711538462 1.56605113636364  C 17.9314903846154 1.70099431818182  18 1.86079545454545  18 2.04545454545455  L 18 7.5  C 18 7.67045454545454  17.9405048076923 7.82137784090909  17.8215144230769 7.95276988636364  C 17.7025240384615 8.08416193181818  17.5564903846154 8.16051136363636  17.3834134615385 8.18181818181818  L 6.09014423076923 9.48153409090909  C 6.18389423076923 9.90767045454546  6.23076923076923 10.15625  6.23076923076923 10.2272727272727  C 6.23076923076923 10.3409090909091  6.14423076923077 10.5681818181818  5.97115384615385 10.9090909090909  L 15.9230769230769 10.9090909090909  C 16.1105769230769 10.9090909090909  16.2728365384615 10.9765625  16.4098557692308 11.1115056818182  C 16.546875 11.2464488636364  16.6153846153846 11.40625  16.6153846153846 11.5909090909091  C 16.6153846153846 11.7755681818182  16.546875 11.9353693181818  16.4098557692308 12.0703125  C 16.2728365384615 12.2052556818182  16.1105769230769 12.2727272727273  15.9230769230769 12  L 4.84615384615385 12  C 4.65865384615385 12.2727272727273  4.49639423076923 12.2052556818182  4.359375 12.0703125  C 4.22235576923077 11.9353693181818  4.15384615384615 11.7755681818182  4.15384615384615 11.5909090909091  C 4.15384615384615 11.5127840909091  4.18269230769231 11.4009232954545  4.24038461538461 11.2553267045455  C 4.29807692307692 11.1097301136364  4.35576923076923 10.9818892045455  4.41346153846154 10.8718039772727  C 4.47115384615385 10.76171875  4.54867788461539 10.6196732954545  4.64603365384615 10.4456676136364  C 4.74338942307692 10.2716619318182  4.79927884615385 10.1669034090909  4.81370192307692 10.1313920454545  L 2.89903846153846 1.36363636363636  L 0.692307692307692 1.36363636363636  C 0.504807692307692 1.36363636363636  0.342548076923077 1.29616477272727  0.205528846153846 1.16122159090909  C 0.0685096153846154 1.02627840909091  0 0.866477272727272  0 0.681818181818181  C 0 0.49715909090909  0.0685096153846154 0.337357954545452  0.205528846153846 0.202414772727273  C 0.342548076923077 0.0674715909090895  0.504807692307692 0  0.692307692307692 0  L 3.46153846153846 0  C 3.57692307692308 0  3.6796875 0.0230823863636354  3.76983173076923 0.0692471590909094  C 3.85997596153846 0.115411931818182  3.93028846153846 0.170454545454545  3.98076923076923 0.234375  C 4.03125 0.298295454545455  4.078125 0.385298295454543  4.12139423076923 0.495383522727273  C 4.16466346153846 0.605468749999999  4.19350961538462 0.697798295454545  4.20793269230769 0.772372159090909  C 4.22235576923077 0.846946022727273  4.2421875 0.951704545454544  4.26742788461539 1.08664772727273  C 4.29266826923077 1.22159090909091  4.30889423076923 1.31392045454545  4.31610576923077 1.36363636363636  L 17.3076923076923 1.36363636363636  C 17.4951923076923 1.36363636363636  17.6574519230769 1.43110795454545  17.7944711538462 1.56605113636364  Z " fill-rule="nonzero" fill="#f98617" stroke="none" transform="matrix(1 0 0 1 1125 85 )" />
  </g>
</svg>