<?xml version="1.0" encoding="utf-8"?>
<svg version="1.1" xmlns:xlink="http://www.w3.org/1999/xlink" width="7px" height="7px" xmlns="http://www.w3.org/2000/svg">
  <g transform="matrix(1 0 0 1 -1576 -26 )">
    <path d="M 6.46392495019531 1.84948804199219  C 6.46390596875 1.30915238574219  6.02372742089844 0.868973837890625  5.48310695019531 0.868973837890625  L 1.88704009179688 0.868973837890625  C 1.34615380664063 0.868973837890625  0.905994240234375 1.30917138574219  0.905994240234375 1.84950704199219  L 0.905994240234375 5.44583973339844  C 0.905994240234375 5.98672601855469  1.34615380664063 6.4263539375  1.88704009179688 6.4263539375  L 5.48312595019531 6.4263539375  C 6.02374640234375 6.4263539375  6.46392496875 5.986726  6.46392496875 5.44583973339844  L 6.46392495019531 1.84948804199219  Z M 5.48312595019531 1.80357717675781  C 5.50851173144531 1.80357717675781  5.52848618652344 1.82383644628906  5.52848618652344 1.84948804199219  L 5.52848618652344 5.44582073339844  C 5.52848618652344 5.47067488574219  5.50796110253906 5.49173159863281  5.48310695019531 5.49173159863281  L 1.88704009179688 5.49173159863281  C 1.86220492089844 5.49173159863281  1.84059757910156 5.4706748671875  1.84059757910156 5.44582073339844  L 1.84059757910156 1.84948804199219  C 1.84059757910156 1.82381744628906  1.86165431054687 1.80357717675781  1.88704009179688 1.80357717675781  L 5.48312595019531 1.80357717675781  Z " fill-rule="nonzero" fill="#00935c" stroke="none" transform="matrix(1 0 0 1 1576 26 )" />
  </g>
</svg>