<?xml version="1.0" encoding="utf-8"?>
<svg version="1.1" xmlns:xlink="http://www.w3.org/1999/xlink" width="7px" height="7px" xmlns="http://www.w3.org/2000/svg">
  <g transform="matrix(1 0 0 1 -1576 -34 )">
    <path d="M 6.46392495019531 1.55389445214844  C 6.46390596875 1.01386261035156  6.02372742089844 0.573152396484375  5.48310695019531 0.573152396484375  L 1.88704009179688 0.573152396484375  C 1.34615380664063 0.573152396484375  0.905994240234375 1.01386259179688  0.905994240234375 1.55389445214844  L 0.905994240234375 5.150265125  C 0.905994240234375 5.69139824316406  1.34615380664063 6.13102616210938  1.88704009179688 6.13102616210938  L 5.48312595019531 6.13102616210938  C 6.02374640234375 6.13102616210938  6.46392496875 5.69139822460937  6.46392496875 5.150265125  L 6.46392495019531 1.55389445214844  Z M 5.48312595019531 1.50798358691407  C 5.50851173144531 1.50798358691406  5.52848618652344 1.52852765234375  5.52848618652344 1.55389445214844  L 5.52848618652344 5.150265125  C 5.52848618652344 5.17565090625  5.50796110253906 5.19613802734375  5.48310695019531 5.19613802734375  L 1.88704009179688 5.19613802734375  C 1.86220492089844 5.19613802734375  1.84059757910156 5.17565092480469  1.84059757910156 5.150265125  L 1.84059757910156 1.55389445214844  C 1.84059757910156 1.52852765234375  1.86165431054687 1.50798358691407  1.88704009179688 1.50798358691407  L 5.48312595019531 1.50798358691407  Z " fill-rule="nonzero" fill="#00935c" stroke="none" transform="matrix(1 0 0 1 1576 34 )" />
  </g>
</svg>