<?xml version="1.0" encoding="utf-8"?>
<svg version="1.1" xmlns:xlink="http://www.w3.org/1999/xlink" width="9px" height="2px" xmlns="http://www.w3.org/2000/svg">
  <g transform="matrix(1 0 0 1 -1584 -27 )">
    <path d="M 0.271537394531249 0.722862913085938  C 0.271537394531251 0.942392067382813  0.430839387695313 1.12979500488281  0.645792659179687 1.17352235449219  C 0.65929251171875 1.18244630566406  0.675507508789062 1.18838927929688  0.69278580078125 1.18838927929688  L 0.7257474609375 1.18838927929688  C 0.733816987304687 1.18947153710937  0.742456124023439 1.18947153710937  0.7511332421875 1.18838927929688  L 7.57495468652344 1.18838927929688  C 7.57928375488281 1.18893990820313  7.58410648925781 1.18947153710937  7.58790391015625 1.18947153710937  C 7.59223297851563 1.18947153710937  7.596562046875 1.18893988964844  7.60034048632813 1.18838927929688  L 7.62732119140625 1.18838927929688  C 7.64194128320312 1.18838927929688  7.65542213574219 1.18352858203125  7.66673847265625 1.17676916503906  C 7.88983721484375 1.13814934570313  8.05453155273437 0.947784412109375  8.05453155273437 0.722843931640626  C 8.05453155273437 0.50113126171875  7.895210578125 0.313443509765626  7.67702949609375 0.271064232421875  C 7.66299801464844 0.260545357421876  7.64571972265625 0.253785940429688  7.62732119140625 0.253785940429688  L 0.692766800781248 0.253785940429688  C 0.676039137695312 0.253785940429688  0.659824140624998 0.261627615234375  0.646343269531249 0.272697119140625  C 0.430839387695311 0.316443450195313  0.271537394531249 0.503865387695313  0.271537394531249 0.722862913085938  Z " fill-rule="nonzero" fill="#00935c" stroke="none" transform="matrix(1 0 0 1 1584 27 )" />
  </g>
</svg>