<?xml version="1.0" encoding="utf-8"?>
<svg version="1.1" xmlns:xlink="http://www.w3.org/1999/xlink" width="9px" height="2px" xmlns="http://www.w3.org/2000/svg">
  <g transform="matrix(1 0 0 1 -1584 -30 )">
    <path d="M 0.272069060546876 1.1860768359375  C 0.272069041992188 1.40289084570312  0.426529319335938 1.588698859375  0.639299056640624 1.63514137207031  C 0.653330538085937 1.64782478125  0.672260716796876 1.65619810351563  0.692766800781248 1.65619810351563  L 7.62730219140625 1.65619810351563  C 7.64406781738281 1.65619810351563  7.65920055664062 1.6489070390625  7.67270040917969 1.63890083007812  C 7.89198273046875 1.59815445800781  8.05399988671875 1.40938444824219  8.05399988671875 1.18605785449219  C 8.05399988671875 0.96111735546875  7.88983719628906 0.771284069335938  7.668352359375 0.73268325  C 7.65595376464844 0.725392185546876  7.64190328320312 0.721613746093751  7.62730219140625 0.721613746093751  L 7.61435296777343 0.723759298828125  C 7.60356827832031 0.721063135742188  7.58733428125 0.719980859375  7.57172687597656 0.721613746093751  L 0.764614094726562 0.723759298828125  C 0.753259794921874 0.721063135742188  0.737576426757812 0.719980859375  0.721931040039063 0.721613746093751  L 0.692766819335938 0.721613746093751  C 0.677653061523438 0.721613746093751  0.664153227539064 0.725942814453125  0.651697669921877 0.734866765625  C 0.433003940429689 0.776448581054688  0.272069060546876 0.964914794921875  0.272069060546876 1.1860768359375  Z " fill-rule="nonzero" fill="#00935c" stroke="none" transform="matrix(1 0 0 1 1584 30 )" />
  </g>
</svg>