<?xml version="1.0" encoding="utf-8"?>
<svg version="1.1" xmlns:xlink="http://www.w3.org/1999/xlink" width="9px" height="2px" xmlns="http://www.w3.org/2000/svg">
  <g transform="matrix(1 0 0 1 -1584 -35 )">
    <path d="M 0.272069041992188 0.809366244140625  C 0.272069041992188 1.02652201269531  0.427592595703125 1.21225410058594  0.639849685546874 1.25871559472656  C 0.653881166992186 1.27109520800781  0.672792345703124 1.27867106835938  0.692766800781248 1.27867106835938  L 7.62730219140625 1.27867106835938  C 7.63487805175781 1.27867106835938  7.64192228320313 1.27758881054688  7.64949814355469 1.27542427636719  C 7.89574218847656 1.26412693945313  8.093967796875 1.05942672851563  8.093967796875 0.809366262695313  C 8.093967796875 0.552793212890625  7.88440687011719 0.343308249023439  7.62730219140625 0.343308249023439  C 7.62354273339844 0.343308249023439  7.61921368359375 0.343820896484377  7.61435296777343 0.344390506835939  L 0.750563613281249 0.344390506835939  C 0.742437124023436 0.343308249023439  0.734348616210937 0.343308249023439  0.72517783203125 0.344390506835939  L 0.692766800781248 0.344390506835939  C 0.677140395507811 0.344390506835939  0.663070932617186 0.349213241210938  0.650634374999999 0.357852377929687  C 0.433003921874999 0.399984803710938  0.272069041992188 0.588451036132811  0.272069041992188 0.809366244140625  Z " fill-rule="nonzero" fill="#00935c" stroke="none" transform="matrix(1 0 0 1 1584 35 )" />
  </g>
</svg>