<?xml version="1.0" encoding="utf-8"?>
<svg version="1.1" xmlns:xlink="http://www.w3.org/1999/xlink" width="9px" height="2px" xmlns="http://www.w3.org/2000/svg">
  <g transform="matrix(1 0 0 1 -1584 -38 )">
    <path d="M 8.09396777832031 0.897508477539059  C 8.093967796875 0.650144193359374  7.90115351464844 0.448159145507814  7.65756766992187 0.431982111328125  C 7.6484158671875 0.428203671875  7.63757423339844 0.426058119140626  7.62730219140625 0.426058119140626  L 0.692766800781248 0.426058137695312  C 0.67495687988281 0.426058137695312  0.657640624999999 0.434640311523438  0.6447103828125 0.447076887695312  C 0.429776111328126 0.491905495117187  0.272069041992188 0.678738822265625  0.272069041992188 0.897508496093749  C 0.272069041992188 1.11838574121094  0.433022921875001 1.30690891796875  0.650634374999999 1.34902236230469  C 0.663051951171875 1.35654125976562  0.677140395507811 1.36033868066406  0.692766800781248 1.36033868066406  L 0.706285634765624 1.35819312792968  C 0.711677979492187 1.35925640429687  0.719766487304687 1.3619525859375  0.754911663085936 1.36033868066406  L 7.59491014160156 1.35819312792968  C 7.60356827832031 1.36033868066406  7.61978327539062 1.36358547265625  7.62730217285156 1.36358547265625  C 7.8844068515625 1.36358547265625  8.09396777832031 1.15408150878906  8.09396777832031 0.897508477539059  Z " fill-rule="nonzero" fill="#00935c" stroke="none" transform="matrix(1 0 0 1 1584 38 )" />
  </g>
</svg>