<?xml version="1.0" encoding="utf-8"?>
<svg version="1.1" xmlns:xlink="http://www.w3.org/1999/xlink" width="17px" height="16px" xmlns="http://www.w3.org/2000/svg">
  <g transform="matrix(1 0 0 1 -1635 -25 )">
    <path d="M 16.203125 11.625  C 16.203125 11.25  15.8984375 10.9453125  15.5234375 10.9453125  L 14.390625 10.9453125  L 14.390625 8  C 14.390625 7.625  14.0859375 7.3203125  13.7109375 7.3203125  L 8.953125 7.3203125  L 8.953125 5.0546875  L 10.0859375 5.0546875  C 10.4609375 5.0546875  10.765625 4.75  10.765625 4.375  L 10.765625 1.203125  C 10.765625 0.828125  10.4609375 0.5234375  10.0859375 0.5234375  L 6.9140625 0.5234375  C 6.5390625 0.5234375  6.234375 0.828125  6.234375 1.203125  L 6.234375 4.375  C 6.234375 4.75  6.5390625 5.0546875  6.9140625 5.0546875  L 8.046875 5.0546875  L 8.046875 7.3203125  L 3.2890625 7.3203125  C 2.9140625 7.3203125  2.609375 7.625  2.609375 8  L 2.609375 10.9453125  L 1.4765625 10.9453125  C 1.1015625 10.9453125  0.796875 11.25  0.796875 11.625  L 0.796875 14.796875  C 0.796875 15.171875  1.1015625 15.4765625  1.4765625 15.4765625  L 4.6484375 15.4765625  C 5.0234375 15.4765625  5.328125 15.171875  5.328125 14.796875  L 5.328125 11.625  C 5.328125 11.25  5.0234375 10.9453125  4.6484375 10.9453125  L 3.515625 10.9453125  L 3.515625 8.2265625  L 8.046875 8.2265625  L 8.046875 10.9453125  L 6.9140625 10.9453125  C 6.5390625 10.9453125  6.234375 11.25  6.234375 11.625  L 6.234375 14.796875  C 6.234375 15.171875  6.5390625 15.4765625  6.9140625 15.4765625  L 10.0859375 15.4765625  C 10.4609375 15.4765625  10.765625 15.171875  10.765625 14.796875  L 10.765625 11.625  C 10.765625 11.25  10.4609375 10.9453125  10.0859375 10.9453125  L 8.953125 10.9453125  L 8.953125 8.2265625  L 13.484375 8.2265625  L 13.484375 10.9453125  L 12.3515625 10.9453125  C 11.9765625 10.9453125  11.671875 11.25  11.671875 11.625  L 11.671875 14.796875  C 11.671875 15.171875  11.9765625 15.4765625  12.3515625 15.4765625  L 15.5234375 15.4765625  C 15.8984375 15.4765625  16.203125 15.171875  16.203125 14.796875  L 16.203125 11.625  Z M 7.140625 4.1484375  L 7.140625 1.4296875  L 9.859375 1.4296875  L 9.859375 4.1484375  L 7.140625 4.1484375  Z M 1.703125 11.8515625  L 4.421875 11.8515625  L 4.421875 14.5703125  L 1.703125 14.5703125  L 1.703125 11.8515625  Z M 9.859375 11.8515625  L 9.859375 14.5703125  L 7.140625 14.5703125  L 7.140625 11.8515625  L 9.859375 11.8515625  Z M 15.296875 11.8515625  L 15.296875 14.5703125  L 12.578125 14.5703125  L 12.578125 11.8515625  L 15.296875 11.8515625  Z " fill-rule="nonzero" fill="#00935c" stroke="none" transform="matrix(1 0 0 1 1635 25 )" />
  </g>
</svg>