<?xml version="1.0" encoding="utf-8"?>
<svg version="1.1" xmlns:xlink="http://www.w3.org/1999/xlink" width="33px" height="33px" xmlns="http://www.w3.org/2000/svg">
  <g transform="matrix(1 0 0 1 -1497 -864 )">
    <path d="M 1513.5 864  C 1522.74 864  1530 871.26  1530 880.5  C 1530 889.74  1522.74 897  1513.5 897  C 1504.26 897  1497 889.74  1497 880.5  C 1497 871.26  1504.26 864  1513.5 864  Z " fill-rule="nonzero" fill="#ffffff" stroke="none" />
    <path d="M 1513.5 864.5  C 1522.46 864.5  1529.5 871.54  1529.5 880.5  C 1529.5 889.46  1522.46 896.5  1513.5 896.5  C 1504.54 896.5  1497.5 889.46  1497.5 880.5  C 1497.5 871.54  1504.54 864.5  1513.5 864.5  Z " stroke-width="1" stroke="#797979" fill="none" />
  </g>
</svg>