<?xml version="1.0" encoding="utf-8"?>
<svg version="1.1" xmlns:xlink="http://www.w3.org/1999/xlink" width="309px" height="115px" xmlns="http://www.w3.org/2000/svg">
  <g transform="matrix(1 0 0 1 -18 -225 )">
    <path d="M 18 225  L 327 225  L 327 340  L 18 340  L 18 225  " fill-rule="nonzero" fill="#cccccc" stroke="none" />
    <path d="M 26 233  L 319 233  L 319 332  L 26 332  L 26 233  " fill-rule="nonzero" fill="#ffffff" stroke="none" />
    <path d="M 187.305 259.5  C 182.475 259.5  178.68 255.705  178.68 250.875  C 178.68 246.045  182.475 242.25  187.305 242.25  C 192.135 242.25  195.93 246.045  195.93 250.875  C 195.93 255.705  192.135 259.5  187.305 259.5  " fill-rule="nonzero" fill="#cccccc" stroke="none" />
    <path d="M 29 329  L 29 277.85  L 100.75 254.6  L 201.2 308.233009708738  L 258.6 268.55  L 316 308.233009708738  L 316 329  L 29 329  " fill-rule="nonzero" fill="#169bd5" stroke="none" />
  </g>
</svg>