<?xml version="1.0" encoding="utf-8"?>
<svg version="1.1" xmlns:xlink="http://www.w3.org/1999/xlink" width="17px" height="17px" xmlns="http://www.w3.org/2000/svg">
  <g transform="matrix(1 0 0 1 -21 -509 )">
    <path d="M 14.3766074709124 4.04166666666667  C 14.5709328434374 3.84722222222222  14.6680955296999 3.61111111111111  14.6680955296999 3.33333333333333  C 14.6680955296999 3.05555555555555  14.5709328434374 2.81944444444444  14.3766074709124 2.625  C 14.1822820983874 2.43055555555555  13.9463155746071 2.33333333333333  13.6687078995713 2.33333333333333  C 13.3911002245356 2.33333333333333  13.1551337007553 2.43055555555555  12.9608083282303 2.625  C 12.7664829557052 2.81944444444444  12.6693202694427 3.05555555555555  12.6693202694427 3.33333333333333  C 12.6693202694427 3.61111111111111  12.7664829557052 3.84722222222222  12.9608083282303 4.04166666666667  C 13.1551337007553 4.23611111111111  13.3911002245356 4.33333333333333  13.6687078995713 4.33333333333333  C 13.9463155746071 4.33333333333333  14.1822820983874 4.23611111111111  14.3766074709124 4.04166666666667  Z M 16.8958971218616 0.0989583333333339  C 16.9652990406205 0.164930555555554  17 0.243055555555555  17 0.333333333333334  C 17 2.0625  16.738007756685 3.55729166666667  16.2140232700551 4.81770833333333  C 15.6900387834252 6.078125  14.8103694631557 7.32986111111111  13.5750153092468 8.57291666666667  C 13.0128597672994 9.12847222222222  12.3361910593999 9.73958333333333  11.5450091855481 10.40625  L 11.3368034292713 14.3541666666667  C 11.3229230455195 14.4652777777778  11.2674015105124 14.5555555555556  11.1702388242498 14.625  L 7.17268830373546 16.9583333333333  C 7.12410696060421 16.9861111111111  7.06858542559706 17  7.00612369871402 17  C 6.92284139620331 17  6.84302918963054 16.96875  6.76668707899571 16.90625  L 6.10042865890998 16.2395833333333  C 6.01020616452337 16.1423611111111  5.9824453970198 16.03125  6.01714635639927 15.90625  L 6.90202082057563 13.03125  L 3.97672994488671 10.1041666666667  L 1.10349050826699 10.9895833333333  C 1.08266993263931 10.9965277777778  1.0514390691978 11  1.00979791794244 11  C 0.912635231679935 11  0.832823025107165 10.96875  0.770361298224127 10.90625  L 0.104102878138396 10.2395833333333  C -0.0138803837517861 10.1076388888889  -0.0312308634415187 9.97222222222222  0.0520514390691978 9.83333333333333  L 2.38395590936926 5.83333333333333  C 2.45335782812819 5.73611111111111  2.5435803225148 5.68055555555555  2.65462339252909 5.66666666666667  L 6.60012247397428 5.45833333333333  C 7.26638089406001 4.66666666666667  7.8771177791386 3.98958333333333  8.43233312921004 3.42708333333333  C 9.73708920187794 2.12847222222222  10.9793835476628 1.23263888888889  12.1592161665646 0.739583333333333  C 13.3390487854664 0.246527777777777  14.8346601347214 0  16.6460502143295 0  C 16.743212900592 0  16.8264952031027 0.0329861111111101  16.8958971218616 0.0989583333333339  Z " fill-rule="nonzero" fill="#3c67ff" stroke="none" fill-opacity="0.729411764705882" transform="matrix(1 0 0 1 21 509 )" />
  </g>
</svg>