<?xml version="1.0" encoding="utf-8"?>
<svg version="1.1" xmlns:xlink="http://www.w3.org/1999/xlink" width="17px" height="17px" xmlns="http://www.w3.org/2000/svg">
  <g transform="matrix(1 0 0 1 -21 -697 )">
    <path d="M 10.5032552083333 6.49674479166667  C 11.056640625 7.05013020833333  11.3333333333333 7.71788194444444  11.3333333333333 8.5  C 11.3333333333333 9.28211805555556  11.056640625 9.94986979166667  10.5032552083333 10.5032552083333  C 9.94986979166667 11.056640625  9.28211805555556 11.3333333333333  8.5 11.3333333333333  C 7.71788194444444 11.3333333333333  7.05013020833333 11.056640625  6.49674479166667 10.5032552083333  C 5.943359375 9.94986979166667  5.66666666666667 9.28211805555556  5.66666666666667 8.5  C 5.66666666666667 7.71788194444444  5.943359375 7.05013020833333  6.49674479166667 6.49674479166667  C 7.05013020833333 5.943359375  7.71788194444444 5.66666666666667  8.5 5.66666666666667  C 9.28211805555556 5.66666666666667  9.94986979166667 5.943359375  10.5032552083333 6.49674479166667  Z M 11.5048828125 11.5048828125  C 12.3349609375 10.6748046875  12.75 9.67317708333333  12.75 8.5  C 12.75 7.32682291666667  12.3349609375 6.3251953125  11.5048828125 5.4951171875  C 10.6748046875 4.6650390625  9.67317708333333 4.25  8.5 4.25  C 7.32682291666667 4.25  6.3251953125 4.6650390625  5.4951171875 5.4951171875  C 4.6650390625 6.3251953125  4.25 7.32682291666667  4.25 8.5  C 4.25 9.67317708333333  4.6650390625 10.6748046875  5.4951171875 11.5048828125  C 6.3251953125 12.3349609375  7.32682291666667 12.75  8.5 12.75  C 9.67317708333333 12.75  10.6748046875 12.3349609375  11.5048828125 11.5048828125  Z M 12.5065104166667 4.49348958333333  C 13.61328125 5.60026041666667  14.1666666666667 6.93576388888889  14.1666666666667 8.5  C 14.1666666666667 10.0642361111111  13.61328125 11.3997395833333  12.5065104166667 12.5065104166667  C 11.3997395833333 13.61328125  10.0642361111111 14.1666666666667  8.5 14.1666666666667  C 6.93576388888889 14.1666666666667  5.60026041666667 13.61328125  4.49348958333333 12.5065104166667  C 3.38671875 11.3997395833333  2.83333333333333 10.0642361111111  2.83333333333333 8.5  C 2.83333333333333 6.93576388888889  3.38671875 5.60026041666667  4.49348958333333 4.49348958333333  C 5.60026041666667 3.38671875  6.93576388888889 2.83333333333333  8.5 2.83333333333333  C 10.0642361111111 2.83333333333333  11.3997395833333 3.38671875  12.5065104166667 4.49348958333333  Z M 15.0188802083333 11.2503255208333  C 15.3951822916667 10.3759765625  15.5833333333333 9.45920138888889  15.5833333333333 8.5  C 15.5833333333333 7.54079861111111  15.3951822916667 6.6240234375  15.0188802083333 5.74967447916667  C 14.642578125 4.87532552083333  14.1389973958333 4.12272135416667  13.5081380208333 3.49186197916667  C 12.8772786458333 2.86100260416667  12.1246744791667 2.357421875  11.2503255208333 1.98111979166667  C 10.3759765625 1.60481770833333  9.45920138888889 1.41666666666667  8.5 1.41666666666667  C 7.54079861111111 1.41666666666667  6.6240234375 1.60481770833333  5.74967447916667 1.98111979166667  C 4.87532552083333 2.357421875  4.12272135416667 2.86100260416667  3.49186197916667 3.49186197916667  C 2.86100260416667 4.12272135416667  2.357421875 4.87532552083333  1.98111979166667 5.74967447916667  C 1.60481770833333 6.6240234375  1.41666666666667 7.54079861111111  1.41666666666667 8.5  C 1.41666666666667 9.45920138888889  1.60481770833333 10.3759765625  1.98111979166667 11.2503255208333  C 2.357421875 12.1246744791667  2.86100260416667 12.8772786458333  3.49186197916667 13.5081380208333  C 4.12272135416667 14.1389973958333  4.87532552083333 14.642578125  5.74967447916667 15.0188802083333  C 6.6240234375 15.3951822916667  7.54079861111111 15.5833333333333  8.5 15.5833333333333  C 9.45920138888889 15.5833333333333  10.3759765625 15.3951822916667  11.2503255208333 15.0188802083333  C 12.1246744791667 14.642578125  12.8772786458333 14.1389973958333  13.5081380208333 13.5081380208333  C 14.1389973958333 12.8772786458333  14.642578125 12.1246744791667  15.0188802083333 11.2503255208333  Z M 15.8600260416667 4.2333984375  C 16.6200086805556 5.53569878472222  17 6.95789930555555  17 8.5  C 17 10.0421006944444  16.6200086805556 11.4643012152778  15.8600260416667 12.7666015625  C 15.1000434027778 14.0689019097222  14.0689019097222 15.1000434027778  12.7666015625 15.8600260416667  C 11.4643012152778 16.6200086805556  10.0421006944444 17  8.5 17  C 6.95789930555556 17  5.53569878472222 16.6200086805556  4.2333984375 15.8600260416667  C 2.93109809027778 15.1000434027778  1.89995659722222 14.0689019097222  1.13997395833333 12.7666015625  C 0.379991319444444 11.4643012152778  0 10.0421006944444  0 8.5  C 0 6.95789930555555  0.379991319444444 5.53569878472222  1.13997395833333 4.2333984375  C 1.89995659722222 2.93109809027778  2.93109809027778 1.89995659722222  4.2333984375 1.13997395833333  C 5.53569878472222 0.379991319444443  6.95789930555556 0  8.5 0  C 10.0421006944444 0  11.4643012152778 0.379991319444443  12.7666015625 1.13997395833333  C 14.0689019097222 1.89995659722222  15.1000434027778 2.93109809027778  15.8600260416667 4.2333984375  Z " fill-rule="nonzero" fill="#230d8c" stroke="none" transform="matrix(1 0 0 1 21 697 )" />
  </g>
</svg>