<?xml version="1.0" encoding="utf-8"?>
<svg version="1.1" xmlns:xlink="http://www.w3.org/1999/xlink" width="126px" height="30px" xmlns="http://www.w3.org/2000/svg">
  <g transform="matrix(1 0 0 1 -112 -261 )">
    <path d="M 113 276  A 14 14 0 0 1 127 262 L 223 262  A 14 14 0 0 1 237 276 A 14 14 0 0 1 223 290 L 127 290  A 14 14 0 0 1 113 276 Z " fill-rule="nonzero" fill="#ffffff" stroke="none" />
    <path d="M 112.5 276  A 14.5 14.5 0 0 1 127 261.5 L 223 261.5  A 14.5 14.5 0 0 1 237.5 276 A 14.5 14.5 0 0 1 223 290.5 L 127 290.5  A 14.5 14.5 0 0 1 112.5 276 Z " stroke-width="1" stroke="#d52c2c" fill="none" stroke-opacity="0.756862745098039" />
  </g>
</svg>