<?xml version="1.0" encoding="utf-8"?>
<svg version="1.1" xmlns:xlink="http://www.w3.org/1999/xlink" width="12px" height="14px" xmlns="http://www.w3.org/2000/svg">
  <g transform="matrix(1 0 0 1 -68 -212 )">
    <path d="M 7.996875 10.8645833333333  C 9.465625 9.74652777777778  10.2 8.65277777777778  10.2 7.58333333333333  L 10.2 1.75  L 6 1.75  L 6 12.11328125  C 6.74375 11.73046875  7.409375 11.3142361111111  7.996875 10.8645833333333  Z M 11.821875 0.173177083333333  C 11.940625 0.28862847222222  12 0.42534722222222  12 0.583333333333333  L 12 7.58333333333333  C 12 8.10590277777778  11.8953125 8.62391493055555  11.6859375 9.13736979166667  C 11.4765625 9.65082465277778  11.2171875 10.1065538194444  10.9078125 10.5045572916667  C 10.5984375 10.9025607638889  10.2296875 11.2899305555556  9.8015625 11.6666666666667  C 9.3734375 12.0434027777778  8.978125 12.3563368055556  8.615625 12.60546875  C 8.253125 12.8546006944444  7.875 13.0900607638889  7.48125 13.3118489583333  C 7.0875 13.5336371527778  6.8078125 13.6840277777778  6.6421875 13.7630208333333  C 6.4765625 13.8420138888889  6.34375 13.9027777777778  6.24375 13.9453125  C 6.16875 13.9817708333333  6.0875 14  6 14  C 5.9125 14  5.83125 13.9817708333333  5.75625 13.9453125  C 5.65625 13.9027777777778  5.5234375 13.8420138888889  5.3578125 13.7630208333333  C 5.1921875 13.6840277777778  4.9125 13.5336371527778  4.51875 13.3118489583333  C 4.125 13.0900607638889  3.746875 12.8546006944444  3.384375 12.60546875  C 3.021875 12.3563368055556  2.6265625 12.0434027777778  2.1984375 11.6666666666667  C 1.7703125 11.2899305555556  1.4015625 10.9025607638889  1.0921875 10.5045572916667  C 0.7828125 10.1065538194444  0.5234375 9.65082465277778  0.3140625 9.13736979166667  C 0.1046875 8.62391493055555  0 8.10590277777778  0 7.58333333333333  L 0 0.583333333333333  C 0 0.42534722222222  0.059375 0.28862847222222  0.178125 0.173177083333333  C 0.296875 0.0577256944444438  0.4375 0  0.6 0  L 11.4 0  C 11.5625 0  11.703125 0.0577256944444438  11.821875 0.173177083333333  Z " fill-rule="nonzero" fill="#d76767" stroke="none" fill-opacity="0.756862745098039" transform="matrix(1 0 0 1 68 212 )" />
  </g>
</svg>