<?xml version="1.0" encoding="utf-8"?>
<svg version="1.1" xmlns:xlink="http://www.w3.org/1999/xlink" width="172px" height="46px" xmlns="http://www.w3.org/2000/svg">
  <defs>
    <mask fill="white" id="clip71">
      <path d="M 0 32.7101967799642  L 0 5.45169946332736  C 0 2.39874776386406  1.06892655367233 0  2.42937853107345 0  L 169.570621468927 0  C 170.931073446328 0  172 2.39874776386406  172 5.45169946332736  L 172 32.7101967799642  C 172 35.7631484794276  170.931073446328 38.1618962432916  169.570621468927 38.1618962432916  C 169.570621468927 38.1618962432916  97.4968548068869 38.1618962432916  79.1443306564503 38.1618962432916  C 77.962417440316 38.1618962432916  74.1897894329907 46  73.1250276283799 46  C 72.2115895054276 46  67.6495228788832 38.1618962432916  66.6938775510204 38.1618962432916  C 27.7727515846149 38.1618962432916  2.42937853107345 38.1618962432916  2.42937853107345 38.1618962432916  C 1.06892655367233 38.1618962432916  0 35.7631484794276  0 32.7101967799642  Z " fill-rule="evenodd" />
    </mask>
  </defs>
  <g transform="matrix(1 0 0 1 -7 -15 )">
    <path d="M 0 32.7101967799642  L 0 5.45169946332736  C 0 2.39874776386406  1.06892655367233 0  2.42937853107345 0  L 169.570621468927 0  C 170.931073446328 0  172 2.39874776386406  172 5.45169946332736  L 172 32.7101967799642  C 172 35.7631484794276  170.931073446328 38.1618962432916  169.570621468927 38.1618962432916  C 169.570621468927 38.1618962432916  97.4968548068869 38.1618962432916  79.1443306564503 38.1618962432916  C 77.962417440316 38.1618962432916  74.1897894329907 46  73.1250276283799 46  C 72.2115895054276 46  67.6495228788832 38.1618962432916  66.6938775510204 38.1618962432916  C 27.7727515846149 38.1618962432916  2.42937853107345 38.1618962432916  2.42937853107345 38.1618962432916  C 1.06892655367233 38.1618962432916  0 35.7631484794276  0 32.7101967799642  Z " fill-rule="nonzero" fill="#ffffff" stroke="none" transform="matrix(1 0 0 1 7 15 )" />
    <path d="M 0 32.7101967799642  L 0 5.45169946332736  C 0 2.39874776386406  1.06892655367233 0  2.42937853107345 0  L 169.570621468927 0  C 170.931073446328 0  172 2.39874776386406  172 5.45169946332736  L 172 32.7101967799642  C 172 35.7631484794276  170.931073446328 38.1618962432916  169.570621468927 38.1618962432916  C 169.570621468927 38.1618962432916  97.4968548068869 38.1618962432916  79.1443306564503 38.1618962432916  C 77.962417440316 38.1618962432916  74.1897894329907 46  73.1250276283799 46  C 72.2115895054276 46  67.6495228788832 38.1618962432916  66.6938775510204 38.1618962432916  C 27.7727515846149 38.1618962432916  2.42937853107345 38.1618962432916  2.42937853107345 38.1618962432916  C 1.06892655367233 38.1618962432916  0 35.7631484794276  0 32.7101967799642  Z " stroke-width="2" stroke="#dddfe6" fill="none" transform="matrix(1 0 0 1 7 15 )" mask="url(#clip71)" />
  </g>
</svg>