<?xml version="1.0" encoding="utf-8"?>
<svg version="1.1" xmlns:xlink="http://www.w3.org/1999/xlink" width="22px" height="18px" xmlns="http://www.w3.org/2000/svg">
  <g transform="matrix(1 0 0 1 -1414 -28 )">
    <path d="M 21.0991495 7.922  C 21.3411495 7.669  21.3851495 7.317  21.2091495 7.031  L 17.6231495 1.289  C 17.4581495 1.025  17.1391495 0.859999999999999  16.7871495 1  L 5.2041495 1  C 4.8521495 0.859999999999999  4.5331495 1.025  4.3681495 1.289  L 0.7931495 7.031  C 0.6171495 7.317  0.6611495 7.68  0.9251495 7.922  L 10.2971495 16.876  C 10.4731495 17.052  10.7371495 17.14  11.0121495 17.14  C 11.2871495 17.14  11.5401495 17.041  11.7271495 16.876  L 21.0991495 7.922  Z " fill-rule="nonzero" fill="#f9d680" stroke="none" transform="matrix(1 0 0 1 1414 28 )" />
  </g>
</svg>