<?xml version="1.0" encoding="utf-8"?>
<svg version="1.1" xmlns:xlink="http://www.w3.org/1999/xlink" width="23px" height="18px" xmlns="http://www.w3.org/2000/svg">
  <g transform="matrix(1 0 0 1 -1414 -28 )">
    <path d="M 12.1891495 17.36  C 11.8811495 17.657  11.4521495 17.822  11.0011495 17.822  C 10.5501495 17.822  10.1211495 17.657  9.8131495 17.36  L 0.4411495 8.417  C -0.0428505 7.955  -0.1418505 7.24  0.2101495 6.668  L 3.7851495 0.926  C 4.0711495 0.464  4.6101495 0.178  5.2041495 0.178  L 16.7871495 0.178  C 17.3701495 0.178  17.9201495 0.464  18.2061495 0.926  L 21.7921495 6.679  C 22.1441495 7.24  22.0451495 7.966  21.5501495 8.428  L 12.1891495 17.36  Z M 5.2041495 1.553  L 5.2041495 1.542  C 5.0721495 1.542  4.9731495 1.597  4.9511495 1.641  L 1.3761495 7.394  L 10.7701495 16.37  C 10.8471495 16.447  11.1661495 16.447  11.2431495 16.37  L 20.6151495 7.416  L 21.2201495 7.02  L 20.6371495 7.383  L 17.0511495 1.652  C 17.0181495 1.608  16.9191495 1.553  16.7981495 1.553  L 5.2041495 1.553  Z " fill-rule="nonzero" fill="#c89a2b" stroke="none" transform="matrix(1 0 0 1 1414 28 )" />
  </g>
</svg>