<?xml version="1.0" encoding="utf-8"?>
<svg version="1.1" xmlns:xlink="http://www.w3.org/1999/xlink" width="10px" height="6px" xmlns="http://www.w3.org/2000/svg">
  <g transform="matrix(1 0 0 1 -1420 -34 )">
    <path d="M 5.4851495 5.387  C 5.3531495 5.508  5.1881495 5.585  5.0011495 5.585  C 4.8141495 5.585  4.6491495 5.508  4.5171495 5.387  L 0.7221495 1.592  C 0.4581495 1.328  0.4581495 0.888  0.7221495 0.624000000000001  C 0.986149500000001 0.359999999999999  1.4261495 0.359999999999999  1.6901495 0.624000000000001  L 5.0011495 3.935  L 8.3121495 0.624000000000001  C 8.5761495 0.359999999999999  9.0161495 0.359999999999999  9.2801495 0.624000000000001  C 9.5441495 0.888  9.5441495 1.328  9.2801495 1.592  L 5.4851495 5.387  Z " fill-rule="nonzero" fill="#c89a2b" stroke="none" transform="matrix(1 0 0 1 1420 34 )" />
  </g>
</svg>