<?xml version="1.0" encoding="utf-8"?>
<svg version="1.1" xmlns:xlink="http://www.w3.org/1999/xlink" width="35px" height="29px" xmlns="http://www.w3.org/2000/svg">
  <g transform="matrix(1 0 0 1 -300 -26 )">
    <path d="M 29.9690210656753 16.5681995323461  C 29.9834779016935 16.5983372304495  29.9907063197026 16.6435437776046  30 16.7038191738114  L 30 27.5533904910366  C 29.9907063197026 27.9451805663809  29.8533663775299 28.2842296700442  29.5786864931846 28.5705378020265  C 29.3040066088393 28.8568459340088  28.9787277984304 29  28.6028500619579 29  L 20.2757125154895 29  L 20.2757125154895 20.3203429462198  L 14.7242874845105 20.3203429462198  L 14.7242874845105 29  L 6.39714993804213 29  C 6.0212722015696 29  5.69599339116068 28.8568459340088  5.42131350681537 28.5705378020265  C 5.14663362247005 28.2842296700442  5.0092936802974 27.9451805663809  5 27.5533904910366  L 5 16.7038191738114  C 5.0092936802974 16.6887503247597  5.01290788930194 16.6661470511821  5.02013630731103 16.6360093530787  C 5.02736472532012 16.6058716549753  5.03097893432466 16.5832683813978  5.03097893432466 16.5681995323461  L 17.5 5.85424785658613  L 29.9690210656753 16.5681995323461  Z M 34.9783147459727 14.6130163678878  C 34.9927715819909 14.8164458300857  34.9421726559273 14.9935048064432  34.8265179677819 15.1441932969603  L 33.4820322180917 16.8168355416991  C 33.3663775299463 16.9524551831645  33.2145807517555 17.0353338529488  33.0266418835192 17.0654715510522  L 32.9615861214374 17.0654715510522  C 32.7736472532012 17.0654715510522  32.6218504750103 17.0127305793713  32.5061957868649 16.9072486360093  L 17.5 3.8651597817615  L 2.49380421313507 16.9072486360093  C 2.32032218091698 17.027799428423  2.14684014869888 17.0805404001039  1.97335811648079 17.0654715510522  C 1.78541924824453 17.0353338529488  1.6336224700537 16.9524551831645  1.5179677819083 16.8168355416991  L 0.173482032218092 15.1441932969603  C 0.0578273440726973 14.9935048064432  0.00722841800908721 14.8164458300857  0.0216852540272615 14.6130163678878  C 0.0361420900454359 14.4095869056898  0.115654688145395 14.247596778384  0.260223048327138 14.1270459859704  L 15.8519206939281 0.587685113016369  C 16.3145394465097 0.19589503767212  16.8638992152003 0  17.5 0  C 18.1361007847997 0  18.6854605534903 0.19589503767212  19.1480793060719 0.587685113016369  L 24.4392812887237 5.1987529228371  L 24.4392812887237 0.79111457521434  C 24.4392812887237 0.580150688490514  24.5043370508055 0.406858924395946  24.634448574969 0.271239282930633  C 24.7645600991326 0.135619641465316  24.9308137133416 0.0678098207326582  25.133209417596 0.0678098207326582  L 29.2967781908302 0.0678098207326582  C 29.4991738950847 0.0678098207326582  29.6654275092937 0.135619641465316  29.7955390334572 0.271239282930633  C 29.9256505576208 0.406858924395946  29.9907063197026 0.580150688490514  29.9907063197026 0.79111457521434  L 29.9907063197026 10.0132501948558  L 34.7397769516729 14.1270459859704  C 34.8843453118546 14.247596778384  34.9638579099546 14.4095869056898  34.9783147459727 14.6130163678878  Z " fill-rule="nonzero" fill="#00935c" stroke="none" transform="matrix(1 0 0 1 300 26 )" />
  </g>
</svg>