<?xml version="1.0" encoding="utf-8"?>
<svg version="1.1" xmlns:xlink="http://www.w3.org/1999/xlink" width="16px" height="14px" xmlns="http://www.w3.org/2000/svg">
  <g transform="matrix(1 0 0 1 -484 -36 )">
    <path d="M 15.9151785714286 9.09895833333333  C 15.9717261904762 9.16493055555555  16 9.24305555555556  16 9.33333333333333  L 16 11.3333333333333  C 16 11.4236111111111  15.9717261904762 11.5017361111111  15.9151785714286 11.5677083333333  C 15.858630952381 11.6336805555556  15.7916666666667 11.6666666666667  15.7142857142857 11.6666666666667  L 3.42857142857143 11.6666666666667  L 3.42857142857143 13.6666666666667  C 3.42857142857143 13.7569444444444  3.40029761904762 13.8350694444444  3.34375 13.9010416666667  C 3.28720238095238 13.9670138888889  3.2202380952381 14  3.14285714285714 14  C 3.07142857142857 14  3 13.9652777777778  2.92857142857143 13.8958333333333  L 0.0803571428571429 10.5625  C 0.0267857142857143 10.5  0 10.4236111111111  0 10.3333333333333  C 0 10.2361111111111  0.0267857142857143 10.15625  0.0803571428571429 10.09375  L 2.9375 6.76041666666667  C 2.99107142857143 6.69791666666667  3.05952380952381 6.66666666666667  3.14285714285714 6.66666666666667  C 3.2202380952381 6.66666666666667  3.28720238095238 6.69965277777778  3.34375 6.765625  C 3.40029761904762 6.83159722222222  3.42857142857143 6.90972222222222  3.42857142857143 7  L 3.42857142857143 9  L 15.7142857142857 9  C 15.7916666666667 9  15.858630952381 9.03298611111111  15.9151785714286 9.09895833333333  Z M 15.9196428571429 3.42708333333333  C 15.9732142857143 3.48958333333333  16 3.56944444444444  16 3.66666666666667  C 16 3.76388888888889  15.9732142857143 3.84375  15.9196428571429 3.90625  L 13.0625 7.23958333333333  C 13.0089285714286 7.30208333333333  12.9404761904762 7.33333333333333  12.8571428571429 7.33333333333333  C 12.7797619047619 7.33333333333333  12.7127976190476 7.30034722222222  12.65625 7.234375  C 12.5997023809524 7.16840277777778  12.5714285714286 7.09027777777778  12.5714285714286 7  L 12.5714285714286 5  L 0.285714285714286 5  C 0.208333333333333 5  0.141369047619048 4.96701388888889  0.0848214285714286 4.90104166666667  C 0.0282738095238095 4.83506944444444  0 4.75694444444444  0 4.66666666666667  L 0 2.66666666666667  C 0 2.57638888888889  0.0282738095238095 2.49826388888889  0.0848214285714286 2.43229166666667  C 0.141369047619048 2.36631944444444  0.208333333333333 2.33333333333333  0.285714285714286 2.33333333333333  L 12.5714285714286 2.33333333333333  L 12.5714285714286 0.333333333333334  C 12.5714285714286 0.23611111111111  12.5982142857143 0.15625  12.6517857142857 0.0937500000000004  C 12.7053571428571 0.0312500000000007  12.7738095238095 0  12.8571428571429 0  C 12.9285714285714 0  13 0.0347222222222221  13.0714285714286 0.104166666666666  L 15.9196428571429 3.42708333333333  Z " fill-rule="nonzero" fill="#00935c" stroke="none" transform="matrix(1 0 0 1 484 36 )" />
  </g>
</svg>