<?xml version="1.0" encoding="utf-8"?>
<svg version="1.1" xmlns:xlink="http://www.w3.org/1999/xlink" width="12px" height="12px" viewBox="130 436  12 12" xmlns="http://www.w3.org/2000/svg">
  <path d="M 136 436  C 139.36 436  142 438.64  142 442  C 142 445.36  139.36 448  136 448  C 132.64 448  130 445.36  130 442  C 130 438.64  132.64 436  136 436  Z " fill-rule="nonzero" fill="#ffffff" stroke="none" />
  <path d="M 136 436.5  C 139.08 436.5  141.5 438.92  141.5 442  C 141.5 445.08  139.08 447.5  136 447.5  C 132.92 447.5  130.5 445.08  130.5 442  C 130.5 438.92  132.92 436.5  136 436.5  Z " stroke-width="1" stroke="#797979" fill="none" />
  <path d="M 136 445  C 134.32 445  133 443.68  133 442  C 133 440.32  134.32 439  136 439  C 137.68 439  139 440.32  139 442  C 139 443.68  137.68 445  136 445  " fill-rule="nonzero" fill="#797979" stroke="none" />
</svg>