<?xml version="1.0" encoding="utf-8"?>
<svg version="1.1" xmlns:xlink="http://www.w3.org/1999/xlink" width="12px" height="12px" viewBox="885 377  12 12" xmlns="http://www.w3.org/2000/svg">
  <path d="M 891 377  C 894.36 377  897 379.64  897 383  C 897 386.36  894.36 389  891 389  C 887.64 389  885 386.36  885 383  C 885 379.64  887.64 377  891 377  Z " fill-rule="nonzero" fill="#f0f0f0" stroke="none" />
  <path d="M 891 377.5  C 894.08 377.5  896.5 379.92  896.5 383  C 896.5 386.08  894.08 388.5  891 388.5  C 887.92 388.5  885.5 386.08  885.5 383  C 885.5 379.92  887.92 377.5  891 377.5  Z " stroke-width="1" stroke="#797979" fill="none" />
  <path d="M 891 386  C 889.32 386  888 384.68  888 383  C 888 381.32  889.32 380  891 380  C 892.68 380  894 381.32  894 383  C 894 384.68  892.68 386  891 386  " fill-rule="nonzero" fill="#797979" stroke="none" />
</svg>