<?xml version="1.0" encoding="utf-8"?>
<svg version="1.1" xmlns:xlink="http://www.w3.org/1999/xlink" width="12px" height="12px" viewBox="242 436  12 12" xmlns="http://www.w3.org/2000/svg">
  <path d="M 248 436  C 251.36 436  254 438.64  254 442  C 254 445.36  251.36 448  248 448  C 244.64 448  242 445.36  242 442  C 242 438.64  244.64 436  248 436  Z " fill-rule="nonzero" fill="#f0f0f0" stroke="none" />
  <path d="M 248 436.5  C 251.08 436.5  253.5 438.92  253.5 442  C 253.5 445.08  251.08 447.5  248 447.5  C 244.92 447.5  242.5 445.08  242.5 442  C 242.5 438.92  244.92 436.5  248 436.5  Z " stroke-width="1" stroke="#797979" fill="none" />
  <path d="M 248 445  C 246.32 445  245 443.68  245 442  C 245 440.32  246.32 439  248 439  C 249.68 439  251 440.32  251 442  C 251 443.68  249.68 445  248 445  " fill-rule="nonzero" fill="#797979" stroke="none" />
</svg>