<?xml version="1.0" encoding="utf-8"?>
<svg version="1.1" xmlns:xlink="http://www.w3.org/1999/xlink" width="12px" height="12px" viewBox="737 436  12 12" xmlns="http://www.w3.org/2000/svg">
  <path d="M 743 436  C 746.36 436  749 438.64  749 442  C 749 445.36  746.36 448  743 448  C 739.64 448  737 445.36  737 442  C 737 438.64  739.64 436  743 436  Z " fill-rule="nonzero" fill="#ffffff" stroke="none" />
  <path d="M 743 436.5  C 746.08 436.5  748.5 438.92  748.5 442  C 748.5 445.08  746.08 447.5  743 447.5  C 739.92 447.5  737.5 445.08  737.5 442  C 737.5 438.92  739.92 436.5  743 436.5  Z " stroke-width="1" stroke="#797979" fill="none" />
  <path d="M 743 445  C 741.32 445  740 443.68  740 442  C 740 440.32  741.32 439  743 439  C 744.68 439  746 440.32  746 442  C 746 443.68  744.68 445  743 445  " fill-rule="nonzero" fill="#797979" stroke="none" />
</svg>