<?xml version="1.0" encoding="utf-8"?>
<svg version="1.1" xmlns:xlink="http://www.w3.org/1999/xlink" width="12px" height="12px" viewBox="865 436  12 12" xmlns="http://www.w3.org/2000/svg">
  <path d="M 871 436  C 874.36 436  877 438.64  877 442  C 877 445.36  874.36 448  871 448  C 867.64 448  865 445.36  865 442  C 865 438.64  867.64 436  871 436  Z " fill-rule="nonzero" fill="#ffffff" stroke="none" />
  <path d="M 871 436.5  C 874.08 436.5  876.5 438.92  876.5 442  C 876.5 445.08  874.08 447.5  871 447.5  C 867.92 447.5  865.5 445.08  865.5 442  C 865.5 438.92  867.92 436.5  871 436.5  Z " stroke-width="1" stroke="#797979" fill="none" />
  <path d="M 871 445  C 869.32 445  868 443.68  868 442  C 868 440.32  869.32 439  871 439  C 872.68 439  874 440.32  874 442  C 874 443.68  872.68 445  871 445  " fill-rule="nonzero" fill="#797979" stroke="none" />
</svg>