<?xml version="1.0" encoding="utf-8"?>
<svg version="1.1" xmlns:xlink="http://www.w3.org/1999/xlink" width="12px" height="12px" viewBox="1014 436  12 12" xmlns="http://www.w3.org/2000/svg">
  <path d="M 1020 436  C 1023.36 436  1026 438.64  1026 442  C 1026 445.36  1023.36 448  1020 448  C 1016.64 448  1014 445.36  1014 442  C 1014 438.64  1016.64 436  1020 436  Z " fill-rule="nonzero" fill="#f0f0f0" stroke="none" />
  <path d="M 1020 436.5  C 1023.08 436.5  1025.5 438.92  1025.5 442  C 1025.5 445.08  1023.08 447.5  1020 447.5  C 1016.92 447.5  1014.5 445.08  1014.5 442  C 1014.5 438.92  1016.92 436.5  1020 436.5  Z " stroke-width="1" stroke="#797979" fill="none" />
  <path d="M 1020 445  C 1018.32 445  1017 443.68  1017 442  C 1017 440.32  1018.32 439  1020 439  C 1021.68 439  1023 440.32  1023 442  C 1023 443.68  1021.68 445  1020 445  " fill-rule="nonzero" fill="#797979" stroke="none" />
</svg>