<?xml version="1.0" encoding="utf-8"?>
<svg version="1.1" xmlns:xlink="http://www.w3.org/1999/xlink" width="97px" height="20px" xmlns="http://www.w3.org/2000/svg">
  <g transform="matrix(1 0 0 1 -18 -61 )">
    <path d="M 19 71  A 9 9 0 0 1 28 62 L 105 62  A 9 9 0 0 1 114 71 A 9 9 0 0 1 105 80 L 28 80  A 9 9 0 0 1 19 71 Z " fill-rule="nonzero" fill="#db780e" stroke="none" fill-opacity="0.23921568627451" />
    <path d="M 18.5 71  A 9.5 9.5 0 0 1 28 61.5 L 105 61.5  A 9.5 9.5 0 0 1 114.5 71 A 9.5 9.5 0 0 1 105 80.5 L 28 80.5  A 9.5 9.5 0 0 1 18.5 71 Z " stroke-width="1" stroke="#db780e" fill="none" stroke-opacity="0.552941176470588" />
  </g>
</svg>