<?xml version="1.0" encoding="utf-8"?>
<svg version="1.1" xmlns:xlink="http://www.w3.org/1999/xlink" width="110px" height="124px" xmlns="http://www.w3.org/2000/svg">
  <g transform="matrix(1 0 0 1 -503 -119 )">
    <path d="M 109.26953125 89.6497395833333  C 109.756510416667 93.7131076388889  110 98.0321180555556  110 102.606770833333  C 110 108.473090277778  108.209635416667 113.505208333333  104.62890625 117.703125  C 101.048177083333 121.901041666667  96.7369791666667 124  91.6953125 124  L 18.3046875 124  C 13.2630208333333 124  8.95182291666667 121.901041666667  5.37109375 117.703125  C 1.79036458333333 113.505208333333  0 108.473090277778  0 102.606770833333  C 0 98.0321180555556  0.243489583333334 93.7131076388889  0.730468750000001 89.6497395833333  C 1.21744791666667 85.5863715277778  2.11979166666667 81.49609375  3.4375 77.37890625  C 4.75520833333333 73.26171875  6.43098958333333 69.7365451388889  8.46484375 66.8033854166667  C 10.4986979166667 63.8702256944444  13.19140625 61.4752604166667  16.54296875 59.6184895833333  C 19.89453125 57.76171875  23.7473958333333 56.8333333333333  28.1015625 56.8333333333333  C 35.6067708333333 63.7222222222222  44.5729166666667 67.1666666666667  55 67.1666666666667  C 65.4270833333334 67.1666666666667  74.3932291666667 63.7222222222222  81.8984375 56.8333333333333  C 86.2526041666667 56.8333333333333  90.10546875 57.76171875  93.45703125 59.6184895833333  C 96.80859375 61.4752604166667  99.5013020833333 63.8702256944444  101.53515625 66.8033854166667  C 103.569010416667 69.7365451388889  105.244791666667 73.26171875  106.5625 77.37890625  C 107.880208333333 81.49609375  108.782552083333 85.5863715277778  109.26953125 89.6497395833333  Z M 78.33203125 9.08203125  C 84.77734375 15.13671875  88 22.4427083333333  88 31  C 88 39.5572916666667  84.77734375 46.86328125  78.33203125 52.91796875  C 71.88671875 58.97265625  64.109375 62  55 62  C 45.890625 62  38.11328125 58.97265625  31.66796875 52.91796875  C 25.22265625 46.86328125  22 39.5572916666667  22 31  C 22 22.4427083333333  25.22265625 15.13671875  31.66796875 9.08203125  C 38.11328125 3.02734375  45.890625 0  55 0  C 64.109375 0  71.88671875 3.02734375  78.33203125 9.08203125  Z " fill-rule="nonzero" fill="#00935c" stroke="none" transform="matrix(1 0 0 1 503 119 )" />
  </g>
</svg>