<svg width="320" height="100" viewBox="0 0 320 100" fill="none" xmlns="http://www.w3.org/2000/svg">
<path d="M123.699 33.728C124.275 34.752 124.915 36.112 125.155 36.96L126.243 36.528C125.987 35.696 125.331 34.352 124.707 33.36L123.699 33.728ZM131.587 33.248C131.203 34.256 130.483 35.696 129.923 36.592L130.867 36.992C131.443 36.144 132.163 34.816 132.755 33.68L131.587 33.248ZM119.395 33.376C120.227 34.256 121.251 35.456 121.715 36.224L122.675 35.52C122.179 34.768 121.123 33.6 120.275 32.752L119.395 33.376ZM127.539 32.72V37.728H123.171V38.832H126.851C125.859 40.544 124.275 42.32 122.915 43.248C123.187 43.472 123.571 43.904 123.763 44.176C125.059 43.168 126.515 41.424 127.539 39.632V45.104H128.707V39.632C130.099 41.088 131.683 42.784 132.515 43.856L133.395 43.056C132.499 42 130.803 40.256 129.379 38.832H133.171V37.728H128.707V32.72H127.539ZM122.179 37.984H118.931V39.104H121.027V44.128C120.323 44.4 119.475 45.152 118.595 46.144L119.491 47.312C120.275 46.192 121.027 45.168 121.539 45.168C121.891 45.168 122.435 45.744 123.107 46.192C124.259 46.928 125.619 47.104 127.699 47.104C129.315 47.104 132.275 47.008 133.411 46.928C133.443 46.56 133.635 45.92 133.795 45.584C132.179 45.76 129.731 45.904 127.747 45.904C125.875 45.904 124.467 45.792 123.411 45.104C122.851 44.752 122.483 44.432 122.179 44.24V37.984ZM141.395 39.408C140.947 41.328 140.179 43.232 139.187 44.464C139.475 44.624 139.987 44.944 140.211 45.12C141.187 43.792 142.051 41.76 142.563 39.648L141.395 39.408ZM146.339 39.648C147.219 41.344 148.019 43.6 148.275 45.072L149.427 44.672C149.155 43.2 148.339 40.992 147.427 39.296L146.339 39.648ZM141.667 32.624C141.123 34.976 140.211 37.28 139.011 38.768C139.299 38.944 139.779 39.344 139.987 39.536C140.563 38.784 141.091 37.824 141.555 36.768H144.003V45.824C144.003 46.032 143.923 46.08 143.731 46.08C143.507 46.096 142.819 46.112 142.051 46.08C142.227 46.416 142.419 46.944 142.483 47.296C143.475 47.296 144.179 47.248 144.611 47.056C145.043 46.848 145.187 46.496 145.187 45.824V36.768H148.211C148.083 37.584 147.939 38.432 147.827 39.024L148.851 39.216C149.059 38.352 149.347 36.96 149.555 35.792L148.739 35.6L148.531 35.648H142.003C142.339 34.768 142.627 33.84 142.851 32.896L141.667 32.624ZM138.435 32.624C137.539 35.056 136.051 37.456 134.467 39.008C134.691 39.28 135.027 39.904 135.139 40.192C135.699 39.616 136.243 38.944 136.771 38.208V47.248H137.923V36.4C138.547 35.296 139.123 34.128 139.571 32.96L138.435 32.624ZM157.475 33.984V39.04C157.475 41.552 157.283 44.192 155.699 46.464C156.019 46.672 156.435 46.992 156.659 47.248C158.387 44.784 158.659 41.968 158.659 39.024H161.683V47.184H162.867V39.024H165.571V37.888H158.659V34.88C160.851 34.608 163.299 34.208 164.979 33.712L164.243 32.688C162.611 33.216 159.827 33.696 157.475 33.984ZM153.299 32.56V35.792H151.043V36.928H153.299V40.368L150.819 41.04L151.171 42.208L153.299 41.568V45.808C153.299 46.016 153.203 46.08 152.995 46.096C152.787 46.096 152.115 46.112 151.395 46.08C151.555 46.384 151.715 46.88 151.763 47.2C152.835 47.2 153.475 47.168 153.907 46.976C154.323 46.784 154.467 46.464 154.467 45.792V41.216L156.739 40.528L156.579 39.408L154.467 40.032V36.928H156.627V35.792H154.467V32.56H153.299ZM167.075 45.136L167.331 46.288C168.803 45.84 170.723 45.264 172.579 44.72L172.403 43.696C170.435 44.256 168.403 44.816 167.075 45.136ZM177.475 33.52C178.275 33.904 179.283 34.528 179.795 34.976L180.499 34.224C179.987 33.792 178.963 33.2 178.179 32.848L177.475 33.52ZM167.363 39.232C167.587 39.12 167.971 39.024 169.923 38.768C169.219 39.808 168.595 40.608 168.291 40.928C167.795 41.52 167.427 41.92 167.075 41.984C167.219 42.288 167.395 42.848 167.459 43.088C167.795 42.896 168.339 42.736 172.355 41.92C172.323 41.68 172.323 41.232 172.355 40.912L169.171 41.488C170.387 40.048 171.603 38.288 172.627 36.528L171.619 35.92C171.315 36.512 170.963 37.12 170.611 37.696L168.579 37.904C169.539 36.544 170.467 34.816 171.155 33.136L170.035 32.608C169.395 34.528 168.227 36.576 167.875 37.104C167.523 37.648 167.251 38.016 166.963 38.096C167.107 38.416 167.299 38.992 167.363 39.232ZM180.403 40.416C179.763 41.424 178.899 42.352 177.859 43.152C177.603 42.304 177.379 41.28 177.219 40.128L181.299 39.36L181.107 38.304L177.075 39.056C176.995 38.384 176.915 37.68 176.867 36.944L180.851 36.336L180.659 35.28L176.803 35.856C176.755 34.784 176.739 33.68 176.739 32.528H175.555C175.571 33.728 175.603 34.896 175.667 36.032L173.139 36.4L173.331 37.488L175.731 37.12C175.779 37.856 175.859 38.576 175.939 39.264L172.819 39.84L173.011 40.928L176.083 40.352C176.275 41.68 176.531 42.88 176.867 43.872C175.507 44.784 173.939 45.504 172.307 46C172.595 46.272 172.899 46.704 173.059 46.992C174.563 46.464 175.987 45.776 177.267 44.944C177.923 46.384 178.787 47.232 179.923 47.232C181.027 47.232 181.395 46.704 181.619 44.912C181.347 44.8 180.963 44.544 180.723 44.272C180.643 45.696 180.483 46.064 180.051 46.064C179.347 46.064 178.755 45.408 178.259 44.24C179.523 43.28 180.611 42.144 181.411 40.896L180.403 40.416ZM188.211 41.536C189.491 41.808 191.123 42.368 192.019 42.816L192.515 42C191.619 41.584 190.003 41.056 188.723 40.8L188.211 41.536ZM186.611 43.568C188.819 43.84 191.587 44.48 193.123 45.024L193.651 44.128C192.099 43.616 189.331 42.992 187.171 42.752L186.611 43.568ZM183.555 33.264V47.28H184.707V46.608H195.683V47.28H196.883V33.264H183.555ZM184.707 45.536V34.352H195.683V45.536H184.707ZM188.835 34.672C188.035 35.984 186.659 37.232 185.283 38.048C185.539 38.208 185.955 38.576 186.131 38.768C186.611 38.448 187.107 38.064 187.603 37.632C188.083 38.144 188.675 38.624 189.315 39.056C187.955 39.696 186.419 40.176 184.995 40.464C185.203 40.688 185.459 41.152 185.571 41.44C187.139 41.072 188.819 40.48 190.339 39.664C191.667 40.384 193.187 40.928 194.707 41.264C194.851 40.976 195.155 40.56 195.379 40.352C193.971 40.096 192.563 39.664 191.315 39.088C192.515 38.304 193.523 37.392 194.195 36.304L193.507 35.904L193.331 35.952H189.187C189.427 35.648 189.651 35.344 189.843 35.024L188.835 34.672ZM188.259 36.992L188.371 36.88H192.515C191.939 37.504 191.171 38.064 190.307 38.56C189.491 38.096 188.787 37.568 188.259 36.992ZM109.508 64H110.421L111.235 61.47H114.249L115.052 64H116.02L113.259 55.948H112.258L109.508 64ZM111.477 60.744L111.895 59.435C112.192 58.522 112.456 57.653 112.72 56.707H112.764C113.039 57.653 113.292 58.522 113.6 59.435L114.018 60.744H111.477ZM116.192 64H117.138L117.985 62.559C118.194 62.196 118.392 61.833 118.601 61.492H118.656C118.887 61.833 119.118 62.196 119.316 62.559L120.229 64H121.208L119.239 60.986L121.054 58.06H120.119L119.349 59.413C119.162 59.743 118.986 60.062 118.799 60.403H118.755C118.546 60.062 118.337 59.743 118.15 59.413L117.325 58.06H116.346L118.161 60.898L116.192 64ZM122.41 64H123.312V59.644C123.928 59.017 124.379 58.687 125.006 58.687C125.831 58.687 126.183 59.193 126.183 60.337V64H127.085V60.227C127.085 58.709 126.513 57.906 125.27 57.906C124.456 57.906 123.84 58.357 123.279 58.918L123.312 57.675V55.244H122.41V64ZM130.755 64.143C131.58 64.143 132.174 63.703 132.735 63.054H132.768L132.845 64H133.582V58.06H132.691V62.317C132.097 63.043 131.646 63.362 131.019 63.362C130.194 63.362 129.842 62.867 129.842 61.723V58.06H128.94V61.833C128.94 63.351 129.512 64.143 130.755 64.143ZM138.197 64.143C139.561 64.143 140.782 62.966 140.782 60.931C140.782 59.105 139.968 57.906 138.417 57.906C137.735 57.906 137.064 58.291 136.503 58.764L136.547 57.675V55.244H135.645V64H136.36L136.448 63.384H136.492C137.009 63.857 137.647 64.143 138.197 64.143ZM138.065 63.384C137.658 63.384 137.086 63.219 136.547 62.735V59.512C137.141 58.962 137.691 58.665 138.208 58.665C139.396 58.665 139.858 59.589 139.858 60.953C139.858 62.449 139.099 63.384 138.065 63.384ZM148.052 64.143C149.13 64.143 149.999 63.758 150.516 63.219V59.875H147.909V60.634H149.669V62.845C149.339 63.153 148.745 63.34 148.14 63.34C146.391 63.34 145.401 62.031 145.401 59.952C145.401 57.884 146.468 56.608 148.14 56.608C148.965 56.608 149.504 56.949 149.911 57.378L150.417 56.784C149.955 56.311 149.229 55.805 148.118 55.805C145.995 55.805 144.466 57.389 144.466 59.974C144.466 62.57 145.951 64.143 148.052 64.143ZM151.831 64H156.825V63.23H154.46C154.042 63.23 153.558 63.263 153.14 63.296C155.076 61.261 156.429 59.798 156.429 58.302C156.429 56.927 155.549 56.036 154.119 56.036C153.118 56.036 152.425 56.498 151.776 57.202L152.315 57.719C152.766 57.18 153.349 56.762 154.02 56.762C155.054 56.762 155.549 57.422 155.549 58.335C155.549 59.633 154.229 61.063 151.831 63.472V64ZM158.496 64H159.409V60.733H160.773C162.555 60.733 163.721 59.952 163.721 58.28C163.721 56.553 162.544 55.948 160.729 55.948H158.496V64ZM159.409 59.996V56.696H160.597C162.071 56.696 162.808 57.07 162.808 58.28C162.808 59.479 162.115 59.996 160.641 59.996H159.409ZM166.272 64.143C166.525 64.143 166.668 64.11 166.811 64.066L166.679 63.373C166.558 63.395 166.514 63.395 166.47 63.395C166.316 63.395 166.195 63.274 166.195 62.977V55.244H165.293V62.911C165.293 63.703 165.59 64.143 166.272 64.143ZM170.643 64.143C172.095 64.143 173.371 62.999 173.371 61.041C173.371 59.05 172.095 57.906 170.643 57.906C169.191 57.906 167.915 59.05 167.915 61.041C167.915 62.999 169.191 64.143 170.643 64.143ZM170.643 63.395C169.576 63.395 168.839 62.449 168.839 61.041C168.839 59.622 169.576 58.665 170.643 58.665C171.721 58.665 172.458 59.622 172.458 61.041C172.458 62.449 171.721 63.395 170.643 63.395ZM176.604 64.143C176.934 64.143 177.33 64.033 177.671 63.923L177.484 63.241C177.286 63.329 177.011 63.406 176.791 63.406C176.076 63.406 175.856 62.966 175.856 62.24V58.786H177.495V58.06H175.856V56.377H175.108L174.998 58.06L174.063 58.115V58.786H174.965V62.207C174.965 63.373 175.361 64.143 176.604 64.143ZM182.883 64H183.928L186.502 55.948H185.578L184.247 60.392C183.95 61.349 183.752 62.108 183.444 63.065H183.4C183.092 62.108 182.883 61.349 182.597 60.392L181.255 55.948H180.298L182.883 64ZM187.023 64H192.017V63.23H189.652C189.234 63.23 188.75 63.263 188.332 63.296C190.268 61.261 191.621 59.798 191.621 58.302C191.621 56.927 190.741 56.036 189.311 56.036C188.31 56.036 187.617 56.498 186.968 57.202L187.507 57.719C187.958 57.18 188.541 56.762 189.212 56.762C190.246 56.762 190.741 57.422 190.741 58.335C190.741 59.633 189.421 61.063 187.023 63.472V64ZM194.05 64.143C194.413 64.143 194.721 63.857 194.721 63.439C194.721 62.999 194.413 62.713 194.05 62.713C193.676 62.713 193.368 62.999 193.368 63.439C193.368 63.857 193.676 64.143 194.05 64.143ZM198.786 64.143C200.018 64.143 201.063 63.131 201.063 61.657C201.063 60.062 200.194 59.237 198.83 59.237C198.192 59.237 197.488 59.622 196.982 60.227C197.026 57.664 197.972 56.784 199.105 56.784C199.6 56.784 200.084 57.015 200.403 57.4L200.909 56.839C200.48 56.377 199.886 56.036 199.072 56.036C197.532 56.036 196.124 57.224 196.124 60.392C196.124 62.878 197.235 64.143 198.786 64.143ZM197.004 60.975C197.565 60.205 198.192 59.919 198.698 59.919C199.721 59.919 200.216 60.601 200.216 61.657C200.216 62.702 199.589 63.428 198.786 63.428C197.719 63.428 197.114 62.548 197.004 60.975ZM203.041 64.143C203.404 64.143 203.712 63.857 203.712 63.439C203.712 62.999 203.404 62.713 203.041 62.713C202.667 62.713 202.359 62.999 202.359 63.439C202.359 63.857 202.667 64.143 203.041 64.143ZM207.535 64.143C209.075 64.143 209.999 62.68 209.999 60.062C209.999 57.455 209.075 56.036 207.535 56.036C205.984 56.036 205.071 57.444 205.071 60.062C205.071 62.68 205.984 64.143 207.535 64.143ZM207.535 63.417C206.578 63.417 205.929 62.372 205.929 60.062C205.929 57.741 206.578 56.762 207.535 56.762C208.481 56.762 209.13 57.741 209.13 60.062C209.13 62.372 208.481 63.417 207.535 63.417Z" fill="#999999"/>
</svg>
