<svg width="200" height="200" viewBox="0 0 200 200" fill="none" xmlns="http://www.w3.org/2000/svg">
<g clip-path="url(#clip0_30_10)">
<path d="M61.296 83.552C62.176 84.352 63.248 85.52 63.744 86.256L64.672 85.488C64.144 84.784 63.04 83.68 62.16 82.896L61.296 83.552ZM71.52 82.896V85.472H68.88V82.896H67.696V85.472H65.424V86.624H67.696V88.496L67.664 89.488H65.328V90.64H67.536C67.296 91.856 66.768 93.04 65.568 93.952C65.824 94.128 66.272 94.576 66.432 94.816C67.856 93.728 68.48 92.176 68.72 90.64H71.52V94.72H72.72V90.64H75.104V89.488H72.72V86.624H74.784V85.472H72.72V82.896H71.52ZM68.88 86.624H71.52V89.488H68.848L68.88 88.512V86.624ZM64.192 88.352H60.8V89.472H63.008V94.064C62.288 94.336 61.456 95.04 60.608 95.968L61.408 97.056C62.24 95.968 63.024 95.024 63.568 95.024C63.92 95.024 64.432 95.552 65.104 95.968C66.208 96.672 67.552 96.848 69.536 96.848C71.056 96.848 73.936 96.752 75.072 96.688C75.088 96.336 75.28 95.76 75.424 95.44C73.872 95.616 71.456 95.744 69.568 95.744C67.76 95.744 66.416 95.632 65.36 94.976C64.832 94.64 64.496 94.336 64.192 94.16V88.352ZM82.176 85.696V87.088H79.6V88.08H82.176V90.736H88.4V88.08H90.992V87.088H88.4V85.696H87.216V87.088H83.328V85.696H82.176ZM87.216 88.08V89.776H83.328V88.08H87.216ZM88.112 92.752C87.408 93.584 86.416 94.24 85.264 94.752C84.128 94.224 83.2 93.552 82.528 92.752H88.112ZM79.824 91.76V92.752H81.904L81.36 92.976C82.016 93.872 82.896 94.624 83.952 95.248C82.448 95.728 80.768 96.016 79.072 96.16C79.248 96.432 79.472 96.896 79.552 97.184C81.552 96.96 83.504 96.56 85.216 95.888C86.8 96.592 88.672 97.04 90.688 97.28C90.832 96.976 91.136 96.496 91.392 96.24C89.632 96.08 87.984 95.76 86.56 95.264C87.968 94.512 89.136 93.488 89.872 92.112L89.12 91.712L88.912 91.76H79.824ZM83.568 82.768C83.792 83.184 84.032 83.696 84.208 84.144H78.016V88.512C78.016 90.896 77.904 94.32 76.592 96.736C76.896 96.832 77.424 97.088 77.664 97.28C79.008 94.752 79.216 91.056 79.216 88.496V85.28H91.168V84.144H85.568C85.376 83.632 85.056 82.992 84.768 82.48L83.568 82.768ZM102.832 88.096C104.032 89.44 105.456 91.28 106.096 92.416L107.072 91.664C106.4 90.56 104.928 88.768 103.744 87.456L102.832 88.096ZM92.576 94.368L92.88 95.504C94.192 95.024 95.888 94.432 97.488 93.84L97.296 92.752L95.68 93.328V89.392H97.104V88.272H95.68V84.768H97.44V83.648H92.656V84.768H94.56V88.272H92.896V89.392H94.56V93.712L92.576 94.368ZM98.256 83.584V84.752H102.336C101.328 87.568 99.664 90.064 97.664 91.664C97.952 91.888 98.416 92.368 98.608 92.608C99.712 91.632 100.736 90.384 101.632 88.96V97.232H102.816V86.768C103.12 86.112 103.408 85.44 103.648 84.752H107.104V83.584H98.256ZM121.536 82.816C120.544 84.112 118.72 85.472 117.184 86.24C117.488 86.464 117.84 86.816 118.048 87.088C119.68 86.192 121.472 84.752 122.656 83.28L121.536 82.816ZM122 87.232C120.928 88.624 118.992 90.064 117.344 90.896C117.648 91.136 118 91.504 118.208 91.744C119.92 90.8 121.856 89.248 123.088 87.68L122 87.232ZM122.368 91.552C121.168 93.552 118.896 95.328 116.512 96.304C116.832 96.56 117.184 96.976 117.376 97.264C119.84 96.128 122.128 94.224 123.488 92L122.368 91.552ZM114.464 84.672V88.816H111.888V84.672H114.464ZM108.656 88.816V89.936H110.736C110.672 92.32 110.32 94.672 108.592 96.576C108.88 96.736 109.296 97.12 109.488 97.376C111.408 95.28 111.808 92.624 111.872 89.936H114.464V97.264H115.648V89.936H117.376V88.816H115.648V84.672H117.168V83.552H108.928V84.672H110.752V88.816H108.656ZM130 91.536C131.28 91.808 132.912 92.368 133.808 92.816L134.304 92C133.408 91.584 131.792 91.056 130.512 90.8L130 91.536ZM128.4 93.568C130.608 93.84 133.376 94.48 134.912 95.024L135.44 94.128C133.888 93.616 131.12 92.992 128.96 92.752L128.4 93.568ZM125.344 83.264V97.28H126.496V96.608H137.472V97.28H138.672V83.264H125.344ZM126.496 95.536V84.352H137.472V95.536H126.496ZM130.624 84.672C129.824 85.984 128.448 87.232 127.072 88.048C127.328 88.208 127.744 88.576 127.92 88.768C128.4 88.448 128.896 88.064 129.392 87.632C129.872 88.144 130.464 88.624 131.104 89.056C129.744 89.696 128.208 90.176 126.784 90.464C126.992 90.688 127.248 91.152 127.36 91.44C128.928 91.072 130.608 90.48 132.128 89.664C133.456 90.384 134.976 90.928 136.496 91.264C136.64 90.976 136.944 90.56 137.168 90.352C135.76 90.096 134.352 89.664 133.104 89.088C134.304 88.304 135.312 87.392 135.984 86.304L135.296 85.904L135.12 85.952H130.976C131.216 85.648 131.44 85.344 131.632 85.024L130.624 84.672ZM130.048 86.992L130.16 86.88H134.304C133.728 87.504 132.96 88.064 132.096 88.56C131.28 88.096 130.576 87.568 130.048 86.992ZM49.5076 114H50.4206L51.2346 111.47H54.2486L55.0516 114H56.0196L53.2586 105.948H52.2576L49.5076 114ZM51.4766 110.744L51.8946 109.435C52.1916 108.522 52.4556 107.653 52.7196 106.707H52.7636C53.0386 107.653 53.2916 108.522 53.5996 109.435L54.0176 110.744H51.4766ZM56.1919 114H57.1379L57.9849 112.559C58.1939 112.196 58.3919 111.833 58.6009 111.492H58.6559C58.8869 111.833 59.1179 112.196 59.3159 112.559L60.2289 114H61.2079L59.2389 110.986L61.0539 108.06H60.1189L59.3489 109.413C59.1619 109.743 58.9859 110.062 58.7989 110.403H58.7549C58.5459 110.062 58.3369 109.743 58.1499 109.413L57.3249 108.06H56.3459L58.1609 110.898L56.1919 114ZM62.4105 114H63.3125V109.644C63.9285 109.017 64.3795 108.687 65.0065 108.687C65.8315 108.687 66.1835 109.193 66.1835 110.337V114H67.0855V110.227C67.0855 108.709 66.5135 107.906 65.2705 107.906C64.4565 107.906 63.8405 108.357 63.2795 108.918L63.3125 107.675V105.244H62.4105V114ZM70.7547 114.143C71.5797 114.143 72.1737 113.703 72.7347 113.054H72.7677L72.8447 114H73.5817V108.06H72.6907V112.317C72.0967 113.043 71.6457 113.362 71.0187 113.362C70.1937 113.362 69.8417 112.867 69.8417 111.723V108.06H68.9397V111.833C68.9397 113.351 69.5117 114.143 70.7547 114.143ZM78.1968 114.143C79.5608 114.143 80.7818 112.966 80.7818 110.931C80.7818 109.105 79.9678 107.906 78.4168 107.906C77.7348 107.906 77.0638 108.291 76.5028 108.764L76.5468 107.675V105.244H75.6448V114H76.3598L76.4478 113.384H76.4918C77.0088 113.857 77.6468 114.143 78.1968 114.143ZM78.0648 113.384C77.6578 113.384 77.0858 113.219 76.5468 112.735V109.512C77.1408 108.962 77.6908 108.665 78.2078 108.665C79.3958 108.665 79.8578 109.589 79.8578 110.953C79.8578 112.449 79.0988 113.384 78.0648 113.384ZM88.0519 114.143C89.1299 114.143 89.9989 113.758 90.5159 113.219V109.875H87.9089V110.634H89.6689V112.845C89.3389 113.153 88.7449 113.34 88.1399 113.34C86.3909 113.34 85.4009 112.031 85.4009 109.952C85.4009 107.884 86.4679 106.608 88.1399 106.608C88.9649 106.608 89.5039 106.949 89.9109 107.378L90.4169 106.784C89.9549 106.311 89.2289 105.805 88.1179 105.805C85.9949 105.805 84.4659 107.389 84.4659 109.974C84.4659 112.57 85.9509 114.143 88.0519 114.143ZM91.8314 114H96.8254V113.23H94.4604C94.0424 113.23 93.5584 113.263 93.1404 113.296C95.0764 111.261 96.4294 109.798 96.4294 108.302C96.4294 106.927 95.5494 106.036 94.1194 106.036C93.1184 106.036 92.4254 106.498 91.7764 107.202L92.3154 107.719C92.7664 107.18 93.3494 106.762 94.0204 106.762C95.0544 106.762 95.5494 107.422 95.5494 108.335C95.5494 109.633 94.2294 111.063 91.8314 113.472V114ZM98.4955 114H99.4085V110.733H100.773C102.555 110.733 103.721 109.952 103.721 108.28C103.721 106.553 102.544 105.948 100.729 105.948H98.4955V114ZM99.4085 109.996V106.696H100.597C102.071 106.696 102.808 107.07 102.808 108.28C102.808 109.479 102.115 109.996 100.641 109.996H99.4085ZM106.272 114.143C106.525 114.143 106.668 114.11 106.811 114.066L106.679 113.373C106.558 113.395 106.514 113.395 106.47 113.395C106.316 113.395 106.195 113.274 106.195 112.977V105.244H105.293V112.911C105.293 113.703 105.59 114.143 106.272 114.143ZM110.643 114.143C112.095 114.143 113.371 112.999 113.371 111.041C113.371 109.05 112.095 107.906 110.643 107.906C109.191 107.906 107.915 109.05 107.915 111.041C107.915 112.999 109.191 114.143 110.643 114.143ZM110.643 113.395C109.576 113.395 108.839 112.449 108.839 111.041C108.839 109.622 109.576 108.665 110.643 108.665C111.721 108.665 112.458 109.622 112.458 111.041C112.458 112.449 111.721 113.395 110.643 113.395ZM116.604 114.143C116.934 114.143 117.33 114.033 117.671 113.923L117.484 113.241C117.286 113.329 117.011 113.406 116.791 113.406C116.076 113.406 115.856 112.966 115.856 112.24V108.786H117.495V108.06H115.856V106.377H115.108L114.998 108.06L114.063 108.115V108.786H114.965V112.207C114.965 113.373 115.361 114.143 116.604 114.143ZM122.883 114H123.928L126.502 105.948H125.578L124.247 110.392C123.95 111.349 123.752 112.108 123.444 113.065H123.4C123.092 112.108 122.883 111.349 122.597 110.392L121.255 105.948H120.298L122.883 114ZM127.023 114H132.017V113.23H129.652C129.234 113.23 128.75 113.263 128.332 113.296C130.268 111.261 131.621 109.798 131.621 108.302C131.621 106.927 130.741 106.036 129.311 106.036C128.31 106.036 127.617 106.498 126.968 107.202L127.507 107.719C127.958 107.18 128.541 106.762 129.212 106.762C130.246 106.762 130.741 107.422 130.741 108.335C130.741 109.633 129.421 111.063 127.023 113.472V114ZM134.05 114.143C134.413 114.143 134.721 113.857 134.721 113.439C134.721 112.999 134.413 112.713 134.05 112.713C133.676 112.713 133.368 112.999 133.368 113.439C133.368 113.857 133.676 114.143 134.05 114.143ZM138.786 114.143C140.018 114.143 141.063 113.131 141.063 111.657C141.063 110.062 140.194 109.237 138.83 109.237C138.192 109.237 137.488 109.622 136.982 110.227C137.026 107.664 137.972 106.784 139.105 106.784C139.6 106.784 140.084 107.015 140.403 107.4L140.909 106.839C140.48 106.377 139.886 106.036 139.072 106.036C137.532 106.036 136.124 107.224 136.124 110.392C136.124 112.878 137.235 114.143 138.786 114.143ZM137.004 110.975C137.565 110.205 138.192 109.919 138.698 109.919C139.721 109.919 140.216 110.601 140.216 111.657C140.216 112.702 139.589 113.428 138.786 113.428C137.719 113.428 137.114 112.548 137.004 110.975ZM143.041 114.143C143.404 114.143 143.712 113.857 143.712 113.439C143.712 112.999 143.404 112.713 143.041 112.713C142.667 112.713 142.359 112.999 142.359 113.439C142.359 113.857 142.667 114.143 143.041 114.143ZM147.535 114.143C149.075 114.143 149.999 112.68 149.999 110.062C149.999 107.455 149.075 106.036 147.535 106.036C145.984 106.036 145.071 107.444 145.071 110.062C145.071 112.68 145.984 114.143 147.535 114.143ZM147.535 113.417C146.578 113.417 145.929 112.372 145.929 110.062C145.929 107.741 146.578 106.762 147.535 106.762C148.481 106.762 149.13 107.741 149.13 110.062C149.13 112.372 148.481 113.417 147.535 113.417Z" fill="#999999"/>
</g>
<defs>
<clipPath id="clip0_30_10">
<rect width="200" height="200" fill="white"/>
</clipPath>
</defs>
</svg>
