<?xml version="1.0" encoding="utf-8"?>
<svg version="1.1" xmlns:xlink="http://www.w3.org/1999/xlink" width="92px" height="61px" xmlns="http://www.w3.org/2000/svg">
  <defs>
    <path d="M 0 0  L 1024 0  L 1024 1024  L 0 1024  Z " fill-rule="evenodd" fill="black" id="path315" />
    <clipPath id="clip316">
      <use xlink:href="#path315" />
    </clipPath>
    <filter x="-50.00%" y="-50.00%" width="200.00%" height="200.00%" filterUnits="objectBoundingBox" id="filter317">
      <feColorMatrix type="matrix" values="0 0 0 0 1.5  0 0 0 0 1.5  0 0 0 0 1.5  0 0 0 1 0  " in="SourceGraphic" />
    </filter>
  </defs>
  <g transform="matrix(1 0 0 1 -229 -119 )">
    <g transform="matrix(0.0595703125 0 0 0.0595703125 244.5 119 )" clip-path="url(#clip316)" filter="url(#filter317)">
      <path d="M704 57.6l-6.4 12.8-70.4 83.2H396.8L326.4 70.4 320 57.6V51.2c0-12.8 6.4-25.6 19.2-25.6C339.2 19.2 435.2 0 512 0c83.2 0 172.8 19.2 172.8 19.2 12.8 6.4 19.2 19.2 19.2 32v6.4z m198.4 691.2l-57.6-288C819.2 313.6 678.4 192 537.6 192h-51.2C345.6 192 204.8 313.6 179.2 467.2l-57.6 288C89.6 902.4 179.2 1024 320 1024h384c140.8 0 230.4-121.6 198.4-275.2zM640 704c19.2 0 32 12.8 32 32s-12.8 32-32 32H544v96c0 19.2-12.8 32-32 32s-32-12.8-32-32V768H384c-19.2 0-32-12.8-32-32s12.8-32 32-32h96v-64H384c-19.2 0-32-12.8-32-32S364.8 576 384 576h96v-19.2c-6.4 0-6.4-6.4-12.8-6.4L377.6 454.4c-12.8-12.8-12.8-32 0-44.8 12.8-12.8 32-12.8 44.8 0L512 499.2l89.6-89.6c12.8-12.8 32-12.8 44.8 0 12.8 12.8 12.8 32 0 44.8L556.8 544s-6.4 6.4-12.8 6.4V576H640c19.2 0 32 12.8 32 32s-12.8 32-32 32H544v64H640z" fill="#FF9401" />
    </g>
  </g>
</svg>