<?xml version="1.0" encoding="utf-8"?>
<svg version="1.1" xmlns:xlink="http://www.w3.org/1999/xlink" width="12px" height="12px" viewBox="1108 544  12 12" xmlns="http://www.w3.org/2000/svg">
  <path d="M 1114 544  C 1117.36 544  1120 546.64  1120 550  C 1120 553.36  1117.36 556  1114 556  C 1110.64 556  1108 553.36  1108 550  C 1108 546.64  1110.64 544  1114 544  Z " fill-rule="nonzero" fill="#f0f0f0" stroke="none" />
  <path d="M 1114 544.5  C 1117.08 544.5  1119.5 546.92  1119.5 550  C 1119.5 553.08  1117.08 555.5  1114 555.5  C 1110.92 555.5  1108.5 553.08  1108.5 550  C 1108.5 546.92  1110.92 544.5  1114 544.5  Z " stroke-width="1" stroke="#797979" fill="none" />
  <path d="M 1114 553  C 1112.32 553  1111 551.68  1111 550  C 1111 548.32  1112.32 547  1114 547  C 1115.68 547  1117 548.32  1117 550  C 1117 551.68  1115.68 553  1114 553  " fill-rule="nonzero" fill="#797979" stroke="none" />
</svg>