<?xml version="1.0" encoding="utf-8"?>
<svg version="1.1" xmlns:xlink="http://www.w3.org/1999/xlink" width="12px" height="12px" viewBox="990 544  12 12" xmlns="http://www.w3.org/2000/svg">
  <path d="M 996 544  C 999.36 544  1002 546.64  1002 550  C 1002 553.36  999.36 556  996 556  C 992.64 556  990 553.36  990 550  C 990 546.64  992.64 544  996 544  Z " fill-rule="nonzero" fill="#ffffff" stroke="none" />
  <path d="M 996 544.5  C 999.08 544.5  1001.5 546.92  1001.5 550  C 1001.5 553.08  999.08 555.5  996 555.5  C 992.92 555.5  990.5 553.08  990.5 550  C 990.5 546.92  992.92 544.5  996 544.5  Z " stroke-width="1" stroke="#797979" fill="none" />
  <path d="M 996 553  C 994.32 553  993 551.68  993 550  C 993 548.32  994.32 547  996 547  C 997.68 547  999 548.32  999 550  C 999 551.68  997.68 553  996 553  " fill-rule="nonzero" fill="#797979" stroke="none" />
</svg>