<?xml version="1.0" encoding="utf-8"?>
<svg version="1.1" xmlns:xlink="http://www.w3.org/1999/xlink" width="12px" height="12px" viewBox="1754 280  12 12" xmlns="http://www.w3.org/2000/svg">
  <path d="M 1760 280  C 1763.36 280  1766 282.64  1766 286  C 1766 289.36  1763.36 292  1760 292  C 1756.64 292  1754 289.36  1754 286  C 1754 282.64  1756.64 280  1760 280  Z " fill-rule="nonzero" fill="#ffffff" stroke="none" />
  <path d="M 1760 280.5  C 1763.08 280.5  1765.5 282.92  1765.5 286  C 1765.5 289.08  1763.08 291.5  1760 291.5  C 1756.92 291.5  1754.5 289.08  1754.5 286  C 1754.5 282.92  1756.92 280.5  1760 280.5  Z " stroke-width="1" stroke="#797979" fill="none" />
  <path d="M 1760 289  C 1758.32 289  1757 287.68  1757 286  C 1757 284.32  1758.32 283  1760 283  C 1761.68 283  1763 284.32  1763 286  C 1763 287.68  1761.68 289  1760 289  " fill-rule="nonzero" fill="#797979" stroke="none" />
</svg>