<?xml version="1.0" encoding="utf-8"?>
<svg version="1.1" xmlns:xlink="http://www.w3.org/1999/xlink" width="12px" height="12px" viewBox="1658 280  12 12" xmlns="http://www.w3.org/2000/svg">
  <path d="M 1664 280  C 1667.36 280  1670 282.64  1670 286  C 1670 289.36  1667.36 292  1664 292  C 1660.64 292  1658 289.36  1658 286  C 1658 282.64  1660.64 280  1664 280  Z " fill-rule="nonzero" fill="#f0f0f0" stroke="none" />
  <path d="M 1664 280.5  C 1667.08 280.5  1669.5 282.92  1669.5 286  C 1669.5 289.08  1667.08 291.5  1664 291.5  C 1660.92 291.5  1658.5 289.08  1658.5 286  C 1658.5 282.92  1660.92 280.5  1664 280.5  Z " stroke-width="1" stroke="#797979" fill="none" />
  <path d="M 1664 289  C 1662.32 289  1661 287.68  1661 286  C 1661 284.32  1662.32 283  1664 283  C 1665.68 283  1667 284.32  1667 286  C 1667 287.68  1665.68 289  1664 289  " fill-rule="nonzero" fill="#797979" stroke="none" />
</svg>