<?xml version="1.0" encoding="utf-8"?>
<svg version="1.1" xmlns:xlink="http://www.w3.org/1999/xlink" width="12px" height="12px" viewBox="1854 280  12 12" xmlns="http://www.w3.org/2000/svg">
  <path d="M 1860 280  C 1863.36 280  1866 282.64  1866 286  C 1866 289.36  1863.36 292  1860 292  C 1856.64 292  1854 289.36  1854 286  C 1854 282.64  1856.64 280  1860 280  Z " fill-rule="nonzero" fill="#f0f0f0" stroke="none" />
  <path d="M 1860 280.5  C 1863.08 280.5  1865.5 282.92  1865.5 286  C 1865.5 289.08  1863.08 291.5  1860 291.5  C 1856.92 291.5  1854.5 289.08  1854.5 286  C 1854.5 282.92  1856.92 280.5  1860 280.5  Z " stroke-width="1" stroke="#797979" fill="none" />
  <path d="M 1860 289  C 1858.32 289  1857 287.68  1857 286  C 1857 284.32  1858.32 283  1860 283  C 1861.68 283  1863 284.32  1863 286  C 1863 287.68  1861.68 289  1860 289  " fill-rule="nonzero" fill="#797979" stroke="none" />
</svg>