<?xml version="1.0" encoding="utf-8"?>
<svg version="1.1" xmlns:xlink="http://www.w3.org/1999/xlink" width="12px" height="12px" viewBox="1665 478  12 12" xmlns="http://www.w3.org/2000/svg">
  <path d="M 1671 478  C 1674.36 478  1677 480.64  1677 484  C 1677 487.36  1674.36 490  1671 490  C 1667.64 490  1665 487.36  1665 484  C 1665 480.64  1667.64 478  1671 478  Z " fill-rule="nonzero" fill="#ffffff" stroke="none" />
  <path d="M 1671 478.5  C 1674.08 478.5  1676.5 480.92  1676.5 484  C 1676.5 487.08  1674.08 489.5  1671 489.5  C 1667.92 489.5  1665.5 487.08  1665.5 484  C 1665.5 480.92  1667.92 478.5  1671 478.5  Z " stroke-width="1" stroke="#797979" fill="none" />
  <path d="M 1671 487  C 1669.32 487  1668 485.68  1668 484  C 1668 482.32  1669.32 481  1671 481  C 1672.68 481  1674 482.32  1674 484  C 1674 485.68  1672.68 487  1671 487  " fill-rule="nonzero" fill="#797979" stroke="none" />
</svg>