<?xml version="1.0" encoding="utf-8"?>
<svg version="1.1" xmlns:xlink="http://www.w3.org/1999/xlink" width="12px" height="12px" viewBox="1945 280  12 12" xmlns="http://www.w3.org/2000/svg">
  <path d="M 1951 280  C 1954.36 280  1957 282.64  1957 286  C 1957 289.36  1954.36 292  1951 292  C 1947.64 292  1945 289.36  1945 286  C 1945 282.64  1947.64 280  1951 280  Z " fill-rule="nonzero" fill="#f0f0f0" stroke="none" />
  <path d="M 1951 280.5  C 1954.08 280.5  1956.5 282.92  1956.5 286  C 1956.5 289.08  1954.08 291.5  1951 291.5  C 1947.92 291.5  1945.5 289.08  1945.5 286  C 1945.5 282.92  1947.92 280.5  1951 280.5  Z " stroke-width="1" stroke="#797979" fill="none" />
  <path d="M 1951 289  C 1949.32 289  1948 287.68  1948 286  C 1948 284.32  1949.32 283  1951 283  C 1952.68 283  1954 284.32  1954 286  C 1954 287.68  1952.68 289  1951 289  " fill-rule="nonzero" fill="#797979" stroke="none" />
</svg>