<?xml version="1.0" encoding="utf-8"?>
<svg version="1.1" xmlns:xlink="http://www.w3.org/1999/xlink" width="105px" height="30px" xmlns="http://www.w3.org/2000/svg">
  <g transform="matrix(1 0 0 1 -1767 -90 )">
    <path d="M 1768 95  A 4 4 0 0 1 1772 91 L 1867 91  A 4 4 0 0 1 1871 95 L 1871 115  A 4 4 0 0 1 1867 119 L 1772 119  A 4 4 0 0 1 1768 115 L 1768 95  Z " fill-rule="nonzero" fill="#ffffff" stroke="none" />
    <path d="M 1767.5 95  A 4.5 4.5 0 0 1 1772 90.5 L 1867 90.5  A 4.5 4.5 0 0 1 1871.5 95 L 1871.5 115  A 4.5 4.5 0 0 1 1867 119.5 L 1772 119.5  A 4.5 4.5 0 0 1 1767.5 115 L 1767.5 95  Z " stroke-width="1" stroke="#d52c2c" fill="none" stroke-opacity="0.756862745098039" />
  </g>
</svg>