<?xml version="1.0" encoding="utf-8"?>
<svg version="1.1" xmlns:xlink="http://www.w3.org/1999/xlink" width="272px" height="76px" xmlns="http://www.w3.org/2000/svg">
  <g transform="matrix(1 0 0 1 -1645 -158 )">
    <path d="M 1645.5 207.77251552795  C 1645.5 207.77251552795  1645.5 163  1645.5 163  C 1645.5 160.514718625761  1647.51471862576 158.5  1650 158.5  C 1650 158.5  1912 158.5  1912 158.5  C 1914.48528137424 158.5  1916.5 160.514718625761  1916.5 163  C 1916.5 163  1916.5 207.77251552795  1916.5 207.77251552795  C 1916.5 210.257796902189  1914.48528137424 212.27251552795  1912 212.27251552795  C 1912 212.27251552795  1844.54658256611 212.27251552795  1844.54658256611 212.27251552795  C 1844.54658256611 212.27251552795  1832.82800670226 232.510328347613  1832.82800670226 232.510328347613  C 1832.82800670226 232.510328347613  1825.18040012114 212.27251552795  1825.18040012114 212.27251552795  C 1825.18040012114 212.27251552795  1650 212.27251552795  1650 212.27251552795  C 1647.51471862576 212.27251552795  1645.5 210.257796902189  1645.5 207.77251552795  Z " fill-rule="nonzero" fill="#ffffff" stroke="none" />
    <path d="M 1645 207.77251552795  C 1645 207.77251552795  1645 163  1645 163  C 1645 160.238576250846  1647.23857625085 158  1650 158  C 1650 158  1912 158  1912 158  C 1914.76142374915 158  1917 160.238576250846  1917 163  C 1917 163  1917 207.77251552795  1917 207.77251552795  C 1917 210.533939277104  1914.76142374915 212.77251552795  1912 212.77251552795  C 1912 212.77251552795  1844.83483483483 212.77251552795  1844.83483483483 212.77251552795  C 1844.83483483483 212.77251552795  1832.73273273273 233.672672672673  1832.73273273273 233.672672672673  C 1832.73273273273 233.672672672673  1824.83483483483 212.77251552795  1824.83483483483 212.77251552795  C 1824.83483483483 212.77251552795  1650 212.77251552795  1650 212.77251552795  C 1647.23857625085 212.77251552795  1645 210.533939277104  1645 207.77251552795  Z M 1646 207.77251552795  C 1646 209.981654527273  1647.79086100068 211.77251552795  1650 211.77251552795  C 1650 211.77251552795  1825.52596540745 211.77251552795  1825.52596540745 211.77251552795  C 1825.52596540745 211.77251552795  1832.92328067179 231.347984022552  1832.92328067179 231.347984022552  C 1832.92328067179 231.347984022552  1844.25833029739 211.77251552795  1844.25833029739 211.77251552795  C 1844.25833029739 211.77251552795  1912 211.77251552795  1912 211.77251552795  C 1914.20913899932 211.77251552795  1916 209.981654527273  1916 207.77251552795  C 1916 207.77251552795  1916 163  1916 163  C 1916 160.790861000677  1914.20913899932 159  1912 159  C 1912 159  1650 159  1650 159  C 1647.79086100068 159  1646 160.790861000677  1646 163  C 1646 163  1646 207.77251552795  1646 207.77251552795  Z " fill-rule="nonzero" fill="#d7d7d7" stroke="none" />
  </g>
</svg>