<?xml version="1.0" encoding="utf-8"?>
<svg version="1.1" xmlns:xlink="http://www.w3.org/1999/xlink" width="265px" height="72px" xmlns="http://www.w3.org/2000/svg">
  <g transform="matrix(1 0 0 1 -1650 -590 )">
    <path d="M 1650.5 634.919254658385  C 1650.5 634.919254658385  1650.5 595  1650.5 595  C 1650.5 592.514718625761  1652.51471862576 590.5  1655 590.5  C 1655 590.5  1910 590.5  1910 590.5  C 1912.48528137424 590.5  1914.5 592.514718625761  1914.5 595  C 1914.5 595  1914.5 634.919254658385  1914.5 634.919254658385  C 1914.5 637.404536032624  1912.48528137424 639.419254658385  1910 639.419254658385  C 1910 639.419254658385  1800.24685844379 639.419254658385  1800.24685844379 639.419254658385  C 1800.24685844379 639.419254658385  1783.15575308124 659.420715619692  1783.15575308124 659.420715619692  C 1783.15575308124 659.420715619692  1768.81757744152 639.419254658385  1768.81757744152 639.419254658385  C 1768.81757744152 639.419254658385  1655 639.419254658385  1655 639.419254658385  C 1652.51471862576 639.419254658385  1650.5 637.404536032624  1650.5 634.919254658385  Z " fill-rule="nonzero" fill="#ffffff" stroke="none" />
    <path d="M 1650 634.919254658385  C 1650 634.919254658385  1650 595  1650 595  C 1650 592.238576250846  1652.23857625085 590  1655 590  C 1655 590  1910 590  1910 590  C 1912.76142374915 590  1915 592.238576250846  1915 595  C 1915 595  1915 634.919254658385  1915 634.919254658385  C 1915 637.680678407539  1912.76142374915 639.919254658385  1910 639.919254658385  C 1910 639.919254658385  1800.47728937729 639.919254658385  1800.47728937729 639.919254658385  C 1800.47728937729 639.919254658385  1783.12124542125 660.230769230769  1783.12124542125 660.230769230769  C 1783.12124542125 660.230769230769  1768.56080586081 639.919254658385  1768.56080586081 639.919254658385  C 1768.56080586081 639.919254658385  1655 639.919254658385  1655 639.919254658385  C 1652.23857625085 639.919254658385  1650 637.680678407539  1650 634.919254658385  Z M 1651 634.919254658385  C 1651 637.128393657708  1652.79086100068 638.919254658385  1655 638.919254658385  C 1655 638.919254658385  1769.07434902223 638.919254658385  1769.07434902223 638.919254658385  C 1769.07434902223 638.919254658385  1783.19026074123 658.610662008615  1783.19026074123 658.610662008615  C 1783.19026074123 658.610662008615  1800.01642751028 638.919254658385  1800.01642751028 638.919254658385  C 1800.01642751028 638.919254658385  1910 638.919254658385  1910 638.919254658385  C 1912.20913899932 638.919254658385  1914 637.128393657708  1914 634.919254658385  C 1914 634.919254658385  1914 595  1914 595  C 1914 592.790861000677  1912.20913899932 591  1910 591  C 1910 591  1655 591  1655 591  C 1652.79086100068 591  1651 592.790861000677  1651 595  C 1651 595  1651 634.919254658385  1651 634.919254658385  Z " fill-rule="nonzero" fill="#d7d7d7" stroke="none" />
  </g>
</svg>