<?xml version="1.0" encoding="utf-8"?>
<svg version="1.1" xmlns:xlink="http://www.w3.org/1999/xlink" width="12px" height="12px" viewBox="1076 155  12 12" xmlns="http://www.w3.org/2000/svg">
  <path d="M 1082 155  C 1085.36 155  1088 157.64  1088 161  C 1088 164.36  1085.36 167  1082 167  C 1078.64 167  1076 164.36  1076 161  C 1076 157.64  1078.64 155  1082 155  Z " fill-rule="nonzero" fill="#ffffff" stroke="none" />
  <path d="M 1082 155.5  C 1085.08 155.5  1087.5 157.92  1087.5 161  C 1087.5 164.08  1085.08 166.5  1082 166.5  C 1078.92 166.5  1076.5 164.08  1076.5 161  C 1076.5 157.92  1078.92 155.5  1082 155.5  Z " stroke-width="1" stroke="#797979" fill="none" />
  <path d="M 1082 164  C 1080.32 164  1079 162.68  1079 161  C 1079 159.32  1080.32 158  1082 158  C 1083.68 158  1085 159.32  1085 161  C 1085 162.68  1083.68 164  1082 164  " fill-rule="nonzero" fill="#797979" stroke="none" />
</svg>