<?xml version="1.0" encoding="utf-8"?>
<svg version="1.1" xmlns:xlink="http://www.w3.org/1999/xlink" width="498px" height="274px" xmlns="http://www.w3.org/2000/svg">
  <g>
    <path d="M 1 5  A 4 4 0 0 1 5 1 L 493 1  A 4 4 0 0 1 497 5 L 497 269  A 4 4 0 0 1 493 273 L 5 273  A 4 4 0 0 1 1 269 L 1 5  Z " fill-rule="nonzero" fill="#ffffff" stroke="none" />
    <path d="M 0.5 5  A 4.5 4.5 0 0 1 5 0.5 L 493 0.5  A 4.5 4.5 0 0 1 497.5 5 L 497.5 269  A 4.5 4.5 0 0 1 493 273.5 L 5 273.5  A 4.5 4.5 0 0 1 0.5 269 L 0.5 5  Z " stroke-width="1" stroke="#797979" fill="none" stroke-opacity="0.113725490196078" />
  </g>
</svg>