<?xml version="1.0" encoding="utf-8"?>
<svg version="1.1" xmlns:xlink="http://www.w3.org/1999/xlink" width="16px" height="16px" viewBox="38 976  16 16" xmlns="http://www.w3.org/2000/svg">
  <path d="M 46 976  C 50.48 976  54 979.52  54 984  C 54 988.48  50.48 992  46 992  C 41.52 992  38 988.48  38 984  C 38 979.52  41.52 976  46 976  Z " fill-rule="nonzero" fill="#ffffff" stroke="none" />
  <path d="M 46 976.5  C 50.2 976.5  53.5 979.8  53.5 984  C 53.5 988.2  50.2 991.5  46 991.5  C 41.8 991.5  38.5 988.2  38.5 984  C 38.5 979.8  41.8 976.5  46 976.5  Z " stroke-width="1" stroke="#797979" fill="none" />
  <path d="M 46 988  C 43.76 988  42 986.24  42 984  C 42 981.76  43.76 980  46 980  C 48.24 980  50 981.76  50 984  C 50 986.24  48.24 988  46 988  " fill-rule="nonzero" fill="#797979" stroke="none" />
</svg>