<?xml version="1.0" encoding="utf-8"?>
<svg version="1.1" xmlns:xlink="http://www.w3.org/1999/xlink" width="12px" height="12px" xmlns="http://www.w3.org/2000/svg">
  <g transform="matrix(1 0 0 1 -710 -85 )">
    <path d="M 1.333625 6  C 1.333625 3.42283225050833  3.42283225050833 1.333625  6 1.333625  C 7.603 1.333625  9.01875 2.142125  9.85875 3.375  L 8.333625 3.375  L 8.333625 4.541375  L 11.833625 4.541375  L 11.833625 1.041375  L 10.666375 1.041375  L 10.666375 2.5  C 9.5646338337937 1.03147061928981  7.83586815934189 0.167249803223378  5.99999993440779 0.167249803223378  C 2.77851943728177 0.167249803223378  0.16685808924947 2.77851953909571  0.166375 6  L 1.333625 6  Z M 11.833625 6  L 10.666375 6  C 10.6663750790536 6.00035066308638  10.6663751185804 6.00070132618107  10.6663751185804 6.00105198927636  C 10.6663751185804 8.57821973876803  8.5771678680721 10.6674269892764  6.00000011858042 10.6674269892764  C 4.45494065564157 10.6674269892764  3.01005195102797 9.90265093586116  2.14125 8.625  L 3.666375 8.625  L 3.666375 7.458625  L 0.166375 7.458625  L 0.166375 10.958625  L 1.333625 10.958625  L 1.333625 9.5  C 2.4353661662063 10.9685293807102  4.16413184065811 11.8327501967766  6.00000006559221 11.8327501967766  C 9.22148056271823 11.8327501967766  11.8331419107505 9.22148046090429  11.833625 6  Z " fill-rule="nonzero" fill="#00935c" stroke="none" transform="matrix(1 0 0 1 710 85 )" />
  </g>
</svg>