<?xml version="1.0" encoding="utf-8"?>
<svg version="1.1" xmlns:xlink="http://www.w3.org/1999/xlink" width="12px" height="12px" viewBox="1014 124  12 12" xmlns="http://www.w3.org/2000/svg">
  <path d="M 1020 124  C 1023.36 124  1026 126.64  1026 130  C 1026 133.36  1023.36 136  1020 136  C 1016.64 136  1014 133.36  1014 130  C 1014 126.64  1016.64 124  1020 124  Z " fill-rule="nonzero" fill="#ffffff" stroke="none" />
  <path d="M 1020 124.5  C 1023.08 124.5  1025.5 126.92  1025.5 130  C 1025.5 133.08  1023.08 135.5  1020 135.5  C 1016.92 135.5  1014.5 133.08  1014.5 130  C 1014.5 126.92  1016.92 124.5  1020 124.5  Z " stroke-width="1" stroke="#797979" fill="none" />
  <path d="M 1020 133  C 1018.32 133  1017 131.68  1017 130  C 1017 128.32  1018.32 127  1020 127  C 1021.68 127  1023 128.32  1023 130  C 1023 131.68  1021.68 133  1020 133  " fill-rule="nonzero" fill="#797979" stroke="none" />
</svg>