<?xml version="1.0" encoding="utf-8"?>
<svg version="1.1" xmlns:xlink="http://www.w3.org/1999/xlink" width="12px" height="12px" viewBox="1076 124  12 12" xmlns="http://www.w3.org/2000/svg">
  <path d="M 1082 124  C 1085.36 124  1088 126.64  1088 130  C 1088 133.36  1085.36 136  1082 136  C 1078.64 136  1076 133.36  1076 130  C 1076 126.64  1078.64 124  1082 124  Z " fill-rule="nonzero" fill="#f0f0f0" stroke="none" />
  <path d="M 1082 124.5  C 1085.08 124.5  1087.5 126.92  1087.5 130  C 1087.5 133.08  1085.08 135.5  1082 135.5  C 1078.92 135.5  1076.5 133.08  1076.5 130  C 1076.5 126.92  1078.92 124.5  1082 124.5  Z " stroke-width="1" stroke="#797979" fill="none" />
  <path d="M 1082 133  C 1080.32 133  1079 131.68  1079 130  C 1079 128.32  1080.32 127  1082 127  C 1083.68 127  1085 128.32  1085 130  C 1085 131.68  1083.68 133  1082 133  " fill-rule="nonzero" fill="#797979" stroke="none" />
</svg>