<?xml version="1.0" standalone="no"?><!DOCTYPE svg PUBLIC "-//W3C//DTD SVG 1.1//EN" "http://www.w3.org/Graphics/SVG/1.1/DTD/svg11.dtd"><svg class="icon" width="200px" height="200.00px" viewBox="0 0 1024 1024" version="1.1" xmlns="http://www.w3.org/2000/svg"><path d="M112 112m128 0l544 0q128 0 128 128l0 544q0 128-128 128l-544 0q-128 0-128-128l0-544q0-128 128-128Z" fill="#FFFFFF" /><path d="M160 160m112 0l512 0q112 0 112 112l0 512q0 112-112 112l-512 0q-112 0-112-112l0-512q0-112 112-112Z" fill="#A0F090" /><path d="M784 928H240c-79.4 0-144-64.6-144-144V240c0-79.4 64.6-144 144-144h544c79.4 0 144 64.6 144 144v544c0 79.4-64.6 144-144 144zM240 128a112.12 112.12 0 0 0-112 112v544a112.12 112.12 0 0 0 112 112h544a112.12 112.12 0 0 0 112-112V240a112.12 112.12 0 0 0-112-112z" fill="#333333" /><path d="M224 560l224 192s160-272 336-416l-32-48S560 400 416 592c-16-16-99.65-78.36-96-80z" fill="#FFFFFF" /><path d="M308.42 610.38L448 736s144-256 320-400l-11.73 0.73a16.31 16.31 0 0 0-7.95 2.66c-24.67 16.3-169.16 115.68-296.56 288.93a32 32 0 0 1-46.25 5.61l-51.75-43.13a41.51 41.51 0 0 0-39.69-7.49 16 16 0 0 0-5.65 27.07z" fill="#82DAFA" /><path d="M448 768a16 16 0 0 1-10.41-3.85l-224-192a16 16 0 0 1 3.25-26.46l96-48 0.61-0.29a16 16 0 0 1 20.5 6.76c6 5.63 26.51 21.91 41.84 34.05 14.12 11.19 27.75 22 37.91 30.44 73-94 156.24-167.39 214.4-213.22 66.11-52.09 113.84-80.08 115.84-81.25a16 16 0 0 1 21.37 4.94l32 48a16 16 0 0 1-3.18 21.26c-89.5 73.23-175 181.11-231 258.71-60.9 84.45-101 152.35-101.38 153a16 16 0 0 1-11.16 7.67 15.65 15.65 0 0 1-2.59 0.24zM252.71 563.53L444.1 727.58c15.66-25.42 48.95-78 92.92-138.94 54.82-76 137.58-180.68 225.7-255.72l-15.47-23.2A1210.83 1210.83 0 0 0 647.41 381C588.08 427.74 502 504 428.8 601.6a16 16 0 0 1-24.11 1.71c-6.73-6.73-29.07-24.41-48.77-40-12.08-9.57-23.49-18.61-32.18-25.77q-4.14-3.4-7.1-6z" fill="#333333" /></svg>