<?xml version="1.0" standalone="no"?><!DOCTYPE svg PUBLIC "-//W3C//DTD SVG 1.1//EN" "http://www.w3.org/Graphics/SVG/1.1/DTD/svg11.dtd"><svg class="icon" width="200px" height="200.00px" viewBox="0 0 1024 1024" version="1.1" xmlns="http://www.w3.org/2000/svg"><path d="M112 112m128 0l544 0q128 0 128 128l0 544q0 128-128 128l-544 0q-128 0-128-128l0-544q0-128 128-128Z" fill="#FFFFFF" /><path d="M160 160m112 0l512 0q112 0 112 112l0 512q0 112-112 112l-512 0q-112 0-112-112l0-512q0-112 112-112Z" fill="#FF8591" /><path d="M784 928H240c-79.4 0-144-64.6-144-144V240c0-79.4 64.6-144 144-144h544c79.4 0 144 64.6 144 144v544c0 79.4-64.6 144-144 144zM240 128a112.12 112.12 0 0 0-112 112v544a112.12 112.12 0 0 0 112 112h544a112.12 112.12 0 0 0 112-112V240a112.12 112.12 0 0 0-112-112z" fill="#333333" /><path d="M272 352l128-47s240 143 336 447h-48S528 464 272 352z" fill="#FFFFFF" /><path d="M337 369l33.14-8.94a63.93 63.93 0 0 1 56.12 11.39C483.18 416.1 620.81 537.62 720 736h-48S496 464 337 369z" fill="#FFE07A" /><path d="M736 768h-48a16 16 0 0 1-14-8.23c-0.39-0.71-40.38-72.11-110.72-156-64.51-77-168.52-180.57-297.7-237.08a16 16 0 0 1 0.89-29.68l128-47a16 16 0 0 1 13.71 1.27c2.52 1.51 62.63 37.68 135.26 112.07a896.06 896.06 0 0 1 113 142 847.2 847.2 0 0 1 94.79 201.91A16 16 0 0 1 736 768z m-38.76-32h16.61c-49.5-142.81-131.26-246.62-192.52-309.53-56.61-58.13-106.18-92.58-123.23-103.73l-84.86 31.16c48 24.67 95.66 56.71 142 95.59 45.84 38.42 90.58 83.59 133 134.24 58.93 70.35 96.34 130.81 109 152.27z" fill="#333333" /><path d="M785 352l-128-47S417 448 321 752h48s160-288 416-400z" fill="#FFFFFF" /><path d="M720 369l-33.14-8.94a63.93 63.93 0 0 0-56.12 11.39C573.82 416.1 436.19 537.62 337 736h48s176-272 335-367z" fill="#FFE07A" /><path d="M321 768h48a16 16 0 0 0 14-8.23c0.39-0.71 40.38-72.11 110.72-156 64.51-77 168.52-180.57 297.7-237.08a16 16 0 0 0-0.89-29.68l-128-47a16 16 0 0 0-13.71 1.27c-2.52 1.51-62.63 37.68-135.26 112.07a896.06 896.06 0 0 0-113 142 847.2 847.2 0 0 0-94.79 201.91A16 16 0 0 0 321 768z m38.76-32h-16.61c49.5-142.81 131.26-246.62 192.52-309.53 56.61-58.13 106.18-92.58 123.23-103.73l84.86 31.16c-48 24.67-95.66 56.71-142 95.59-45.84 38.42-90.58 83.59-133 134.24-58.93 70.35-96.34 130.81-109 152.27z" fill="#333333" /></svg>