<?xml version="1.0" encoding="utf-8"?>
<svg version="1.1" xmlns:xlink="http://www.w3.org/1999/xlink" width="16px" height="17px" xmlns="http://www.w3.org/2000/svg">
  <g transform="matrix(1 0 0 1 -1319 -722 )">
    <path d="M 3.33173076923077 15.4299665178571  C 3.57211538461538 15.1928013392857  3.69230769230769 14.9066220238095  3.69230769230769 14.5714285714286  C 3.69230769230769 14.2362351190476  3.57211538461538 13.9500558035714  3.33173076923077 13.712890625  C 3.09134615384615 13.4757254464286  2.80128205128205 13.3571428571429  2.46153846153846 13.3571428571429  C 2.12179487179487 13.3571428571429  1.83173076923077 13.4757254464286  1.59134615384615 13.712890625  C 1.35096153846154 13.9500558035714  1.23076923076923 14.2362351190476  1.23076923076923 14.5714285714286  C 1.23076923076923 14.9066220238095  1.35096153846154 15.1928013392857  1.59134615384615 15.4299665178571  C 1.83173076923077 15.6671316964286  2.12179487179487 15.7857142857143  2.46153846153846 15.7857142857143  C 2.80128205128205 15.7857142857143  3.09134615384615 15.6671316964286  3.33173076923077 15.4299665178571  Z M 7.02403846153846 15.4299665178571  C 7.26442307692308 15.1928013392857  7.38461538461539 14.9066220238095  7.38461538461539 14.5714285714286  C 7.38461538461539 14.2362351190476  7.26442307692308 13.9500558035714  7.02403846153846 13.712890625  C 6.78365384615385 13.4757254464286  6.49358974358974 13.3571428571429  6.15384615384615 13.3571428571429  C 5.81410256410256 13.3571428571429  5.52403846153846 13.4757254464286  5.28365384615385 13.712890625  C 5.04326923076923 13.9500558035714  4.92307692307692 14.2362351190476  4.92307692307692 14.5714285714286  C 4.92307692307692 14.9066220238095  5.04326923076923 15.1928013392857  5.28365384615385 15.4299665178571  C 5.52403846153846 15.6671316964286  5.81410256410256 15.7857142857143  6.15384615384615 15.7857142857143  C 6.49358974358974 15.7857142857143  6.78365384615385 15.6671316964286  7.02403846153846 15.4299665178571  Z M 3.33173076923077 11.787109375  C 3.57211538461538 11.5499441964286  3.69230769230769 11.2637648809524  3.69230769230769 10.9285714285714  C 3.69230769230769 10.5933779761905  3.57211538461538 10.3071986607143  3.33173076923077 10.0700334821429  C 3.09134615384615 9.83286830357143  2.80128205128205 9.71428571428571  2.46153846153846 9.71428571428571  C 2.12179487179487 9.71428571428571  1.83173076923077 9.83286830357143  1.59134615384615 10.0700334821429  C 1.35096153846154 10.3071986607143  1.23076923076923 10.5933779761905  1.23076923076923 10.9285714285714  C 1.23076923076923 11.2637648809524  1.35096153846154 11.5499441964286  1.59134615384615 11.787109375  C 1.83173076923077 12.0242745535714  2.12179487179487 12.1428571428571  2.46153846153846 12.1428571428571  C 2.80128205128205 12.1428571428571  3.09134615384615 12.0242745535714  3.33173076923077 11.787109375  Z M 10.7163461538462 15.4299665178571  C 10.9567307692308 15.1928013392857  11.0769230769231 14.9066220238095  11.0769230769231 14.5714285714286  C 11.0769230769231 14.2362351190476  10.9567307692308 13.9500558035714  10.7163461538462 13.712890625  C 10.4759615384615 13.4757254464286  10.1858974358974 13.3571428571429  9.84615384615385 13.3571428571429  C 9.50641025641026 13.3571428571429  9.21634615384615 13.4757254464286  8.97596153846154 13.712890625  C 8.73557692307692 13.9500558035714  8.61538461538461 14.2362351190476  8.61538461538461 14.5714285714286  C 8.61538461538461 14.9066220238095  8.73557692307692 15.1928013392857  8.97596153846154 15.4299665178571  C 9.21634615384615 15.6671316964286  9.50641025641026 15.7857142857143  9.84615384615385 15.7857142857143  C 10.1858974358974 15.7857142857143  10.4759615384615 15.6671316964286  10.7163461538462 15.4299665178571  Z M 7.02403846153846 11.787109375  C 7.26442307692308 11.5499441964286  7.38461538461539 11.2637648809524  7.38461538461539 10.9285714285714  C 7.38461538461539 10.5933779761905  7.26442307692308 10.3071986607143  7.02403846153846 10.0700334821429  C 6.78365384615385 9.83286830357143  6.49358974358974 9.71428571428571  6.15384615384615 9.71428571428571  C 5.81410256410256 9.71428571428571  5.52403846153846 9.83286830357143  5.28365384615385 10.0700334821429  C 5.04326923076923 10.3071986607143  4.92307692307692 10.5933779761905  4.92307692307692 10.9285714285714  C 4.92307692307692 11.2637648809524  5.04326923076923 11.5499441964286  5.28365384615385 11.787109375  C 5.52403846153846 12.0242745535714  5.81410256410256 12.1428571428571  6.15384615384615 12.1428571428571  C 6.49358974358974 12.1428571428571  6.78365384615385 12.0242745535714  7.02403846153846 11.787109375  Z M 3.33173076923077 8.14425223214286  C 3.57211538461538 7.90708705357143  3.69230769230769 7.62090773809524  3.69230769230769 7.28571428571429  C 3.69230769230769 6.95052083333333  3.57211538461538 6.66434151785714  3.33173076923077 6.42717633928571  C 3.09134615384615 6.19001116071429  2.80128205128205 6.07142857142857  2.46153846153846 6.07142857142857  C 2.12179487179487 6.07142857142857  1.83173076923077 6.19001116071429  1.59134615384615 6.42717633928571  C 1.35096153846154 6.66434151785714  1.23076923076923 6.95052083333333  1.23076923076923 7.28571428571429  C 1.23076923076923 7.62090773809524  1.35096153846154 7.90708705357143  1.59134615384615 8.14425223214286  C 1.83173076923077 8.38141741071429  2.12179487179487 8.5  2.46153846153846 8.5  C 2.80128205128205 8.5  3.09134615384615 8.38141741071429  3.33173076923077 8.14425223214286  Z M 10.7163461538462 11.787109375  C 10.9567307692308 11.5499441964286  11.0769230769231 11.2637648809524  11.0769230769231 10.9285714285714  C 11.0769230769231 10.5933779761905  10.9567307692308 10.3071986607143  10.7163461538462 10.0700334821429  C 10.4759615384615 9.83286830357143  10.1858974358974 9.71428571428571  9.84615384615385 9.71428571428571  C 9.50641025641026 9.71428571428571  9.21634615384615 9.83286830357143  8.97596153846154 10.0700334821429  C 8.73557692307692 10.3071986607143  8.61538461538461 10.5933779761905  8.61538461538461 10.9285714285714  C 8.61538461538461 11.2637648809524  8.73557692307692 11.5499441964286  8.97596153846154 11.787109375  C 9.21634615384615 12.0242745535714  9.50641025641026 12.1428571428571  9.84615384615385 12.1428571428571  C 10.1858974358974 12.1428571428571  10.4759615384615 12.0242745535714  10.7163461538462 11.787109375  Z M 7.02403846153846 8.14425223214286  C 7.26442307692308 7.90708705357143  7.38461538461539 7.62090773809524  7.38461538461539 7.28571428571429  C 7.38461538461539 6.95052083333333  7.26442307692308 6.66434151785714  7.02403846153846 6.42717633928571  C 6.78365384615385 6.19001116071429  6.49358974358974 6.07142857142857  6.15384615384615 6.07142857142857  C 5.81410256410256 6.07142857142857  5.52403846153846 6.19001116071429  5.28365384615385 6.42717633928571  C 5.04326923076923 6.66434151785714  4.92307692307692 6.95052083333333  4.92307692307692 7.28571428571429  C 4.92307692307692 7.62090773809524  5.04326923076923 7.90708705357143  5.28365384615385 8.14425223214286  C 5.52403846153846 8.38141741071429  5.81410256410256 8.5  6.15384615384615 8.5  C 6.49358974358974 8.5  6.78365384615385 8.38141741071429  7.02403846153846 8.14425223214286  Z M 14.4038461538462 15.4252232142857  C 14.6474358974359 15.1848958333333  14.7692307692308 14.9002976190476  14.7692307692308 14.5714285714286  L 14.7692307692308 10.9285714285714  C 14.7692307692308 10.5997023809524  14.6474358974359 10.3151041666667  14.4038461538462 10.0747767857143  C 14.1602564102564 9.8344494047619  13.8717948717949 9.71428571428571  13.5384615384615 9.71428571428571  C 13.2051282051282 9.71428571428571  12.9166666666667 9.8344494047619  12.6730769230769 10.0747767857143  C 12.4294871794872 10.3151041666667  12.3076923076923 10.5997023809524  12.3076923076923 10.9285714285714  L 12.3076923076923 14.5714285714286  C 12.3076923076923 14.9002976190476  12.4294871794872 15.1848958333333  12.6730769230769 15.4252232142857  C 12.9166666666667 15.6655505952381  13.2051282051282 15.7857142857143  13.5384615384615 15.7857142857143  C 13.8717948717949 15.7857142857143  14.1602564102564 15.6655505952381  14.4038461538462 15.4252232142857  Z M 10.7163461538462 8.14425223214286  C 10.9567307692308 7.90708705357143  11.0769230769231 7.62090773809524  11.0769230769231 7.28571428571429  C 11.0769230769231 6.95052083333333  10.9567307692308 6.66434151785714  10.7163461538462 6.42717633928571  C 10.4759615384615 6.19001116071429  10.1858974358974 6.07142857142857  9.84615384615385 6.07142857142857  C 9.50641025641026 6.07142857142857  9.21634615384615 6.19001116071429  8.97596153846154 6.42717633928571  C 8.73557692307692 6.66434151785714  8.61538461538461 6.95052083333333  8.61538461538461 7.28571428571429  C 8.61538461538461 7.62090773809524  8.73557692307692 7.90708705357143  8.97596153846154 8.14425223214286  C 9.21634615384615 8.38141741071429  9.50641025641026 8.5  9.84615384615385 8.5  C 10.1858974358974 8.5  10.4759615384615 8.38141741071429  10.7163461538462 8.14425223214286  Z M 14.5865384615385 4.67689732142857  C 14.7083333333333 4.55673363095238  14.7692307692308 4.41443452380952  14.7692307692308 4.25  L 14.7692307692308 1.82142857142857  C 14.7692307692308 1.65699404761905  14.7083333333333 1.51469494047619  14.5865384615385 1.39453125  C 14.4647435897436 1.27436755952381  14.3205128205128 1.21428571428571  14.1538461538462 1.21428571428571  L 1.84615384615385 1.21428571428571  C 1.67948717948718 1.21428571428571  1.53525641025641 1.27436755952381  1.41346153846154 1.39453125  C 1.29166666666667 1.51469494047619  1.23076923076923 1.65699404761905  1.23076923076923 1.82142857142857  L 1.23076923076923 4.25  C 1.23076923076923 4.41443452380952  1.29166666666667 4.55673363095238  1.41346153846154 4.67689732142857  C 1.53525641025641 4.79706101190476  1.67948717948718 4.85714285714286  1.84615384615385 5  L 14.1538461538462 5  C 14.3205128205128 4.85714285714286  14.4647435897436 4.79706101190476  14.5865384615385 4.67689732142857  Z M 14.4086538461538 8.14425223214286  C 14.6490384615385 7.90708705357143  14.7692307692308 7.62090773809524  14.7692307692308 7.28571428571429  C 14.7692307692308 6.95052083333333  14.6490384615385 6.66434151785714  14.4086538461538 6.42717633928571  C 14.1682692307692 6.19001116071429  13.8782051282051 6.07142857142857  13.5384615384615 6.07142857142857  C 13.1987179487179 6.07142857142857  12.9086538461538 6.19001116071429  12.6682692307692 6.42717633928571  C 12.4278846153846 6.66434151785714  12.3076923076923 6.95052083333333  12.3076923076923 7.28571428571429  C 12.3076923076923 7.62090773809524  12.4278846153846 7.90708705357143  12.6682692307692 8.14425223214286  C 12.9086538461538 8.38141741071429  13.1987179487179 8.5  13.5384615384615 8.5  C 13.8782051282051 8.5  14.1682692307692 8.38141741071429  14.4086538461538 8.14425223214286  Z M 15.6346153846154 0.360491071428571  C 15.8782051282051 0.600818452380952  16 0.885416666666665  16 1.21428571428571  L 16 15.7857142857143  C 16 16.1145833333333  15.8782051282051 16.399181547619  15.6346153846154 16.6395089285714  C 15.3910256410256 16.8798363095238  15.1025641025641 17  14.7692307692308 17  L 1.23076923076923 17  C 0.897435897435898 17  0.608974358974359 16.8798363095238  0.365384615384615 16.6395089285714  C 0.121794871794872 16.399181547619  0 16.1145833333333  0 15.7857142857143  L 0 1.21428571428571  C 0 0.885416666666665  0.121794871794872 0.600818452380952  0.365384615384615 0.360491071428571  C 0.608974358974359 0.120163690476191  0.897435897435898 0  1.23076923076923 0  L 14.7692307692308 0  C 15.1025641025641 0  15.3910256410256 0.120163690476191  15.6346153846154 0.360491071428571  Z " fill-rule="nonzero" fill="#00935c" stroke="none" transform="matrix(1 0 0 1 1319 722 )" />
  </g>
</svg>