<?xml version="1.0" encoding="utf-8"?>
<svg version="1.1" xmlns:xlink="http://www.w3.org/1999/xlink" width="22px" height="29px" xmlns="http://www.w3.org/2000/svg">
  <g transform="matrix(1 0 0 1 -67 -126 )">
    <path d="M 5.8515625 20.8680245535714  C 5.95052083333333 20.9705171130952  6 21.0918898809524  6 21.2321428571429  L 6 22.2678571428571  C 6 22.4081101190476  5.95052083333333 22.5294828869048  5.8515625 22.6319754464286  C 5.75260416666667 22.7344680059524  5.63541666666667 22.7857142857143  5.5 22.7857142857143  L 4.5 22.7857142857143  C 4.36458333333333 22.7857142857143  4.24739583333333 22.7344680059524  4.1484375 22.6319754464286  C 4.04947916666667 22.5294828869048  4 22.4081101190476  4 22.2678571428571  L 4 21.2321428571429  C 4 21.0918898809524  4.04947916666667 20.9705171130952  4.1484375 20.8680245535714  C 4.24739583333333 20.7655319940476  4.36458333333333 20.7142857142857  4.5 20.7142857142857  L 5.5 20.7142857142857  C 5.63541666666667 20.7142857142857  5.75260416666667 20.7655319940476  5.8515625 20.8680245535714  Z M 5.8515625 16.7251674107143  C 5.95052083333333 16.8276599702381  6 16.9490327380952  6 17.0892857142857  L 6 18.125  C 6 18.2652529761905  5.95052083333333 18.3866257440476  5.8515625 18.4891183035714  C 5.75260416666667 18.5916108630952  5.63541666666667 18.6428571428571  5.5 18.6428571428571  L 4.5 18.6428571428571  C 4.36458333333333 18.6428571428571  4.24739583333333 18.5916108630952  4.1484375 18.4891183035714  C 4.04947916666667 18.3866257440476  4 18.2652529761905  4 18.125  L 4 17.0892857142857  C 4 16.9490327380952  4.04947916666667 16.8276599702381  4.1484375 16.7251674107143  C 4.24739583333333 16.6226748511905  4.36458333333333 16.5714285714286  4.5 16.5714285714286  L 5.5 16.5714285714286  C 5.63541666666667 16.5714285714286  5.75260416666667 16.6226748511905  5.8515625 16.7251674107143  Z M 9.8515625 16.7251674107143  C 9.95052083333333 16.8276599702381  10 16.9490327380952  10 17.0892857142857  L 10 18.125  C 10 18.2652529761905  9.95052083333333 18.3866257440476  9.8515625 18.4891183035714  C 9.75260416666667 18.5916108630952  9.63541666666667 18.6428571428571  9.5 18.6428571428571  L 8.5 18.6428571428571  C 8.36458333333333 18.6428571428571  8.24739583333333 18.5916108630952  8.1484375 18.4891183035714  C 8.04947916666667 18.3866257440476  8 18.2652529761905  8 18.125  L 8 17.0892857142857  C 8 16.9490327380952  8.04947916666667 16.8276599702381  8.1484375 16.7251674107143  C 8.24739583333333 16.6226748511905  8.36458333333333 16.5714285714286  8.5 16.5714285714286  L 9.5 16.5714285714286  C 9.63541666666667 16.5714285714286  9.75260416666667 16.6226748511905  9.8515625 16.7251674107143  Z M 5.8515625 12.5823102678571  C 5.95052083333333 12.6848028273809  6 12.8061755952381  6 12.9464285714286  L 6 13.9821428571429  C 6 14.1223958333333  5.95052083333333 14.2437686011905  5.8515625 14.3462611607143  C 5.75260416666667 14.4487537202381  5.63541666666667 14.5  5.5 14.5  L 4.5 14.5  C 4.36458333333333 14.5  4.24739583333333 14.4487537202381  4.1484375 14.3462611607143  C 4.04947916666667 14.2437686011905  4 14.1223958333333  4 13.9821428571429  L 4 12.9464285714286  C 4 12.8061755952381  4.04947916666667 12.6848028273809  4.1484375 12.5823102678571  C 4.24739583333333 12.4798177083333  4.36458333333333 12.4285714285714  4.5 12.4285714285714  L 5.5 12.4285714285714  C 5.63541666666667 12.4285714285714  5.75260416666667 12.4798177083333  5.8515625 12.5823102678571  Z M 17.8515625 20.8680245535714  C 17.9505208333333 20.9705171130952  18 21.0918898809524  18 21.2321428571429  L 18 22.2678571428571  C 18 22.4081101190476  17.9505208333333 22.5294828869048  17.8515625 22.6319754464286  C 17.7526041666667 22.7344680059524  17.6354166666667 22.7857142857143  17.5 22.7857142857143  L 16.5 22.7857142857143  C 16.3645833333333 22.7857142857143  16.2473958333333 22.7344680059524  16.1484375 22.6319754464286  C 16.0494791666667 22.5294828869048  16 22.4081101190476  16 22.2678571428571  L 16 21.2321428571429  C 16 21.0918898809524  16.0494791666667 20.9705171130952  16.1484375 20.8680245535714  C 16.2473958333333 20.7655319940476  16.3645833333333 20.7142857142857  16.5 20.7142857142857  L 17.5 20.7142857142857  C 17.6354166666667 20.7142857142857  17.7526041666667 20.7655319940476  17.8515625 20.8680245535714  Z M 13.8515625 16.7251674107143  C 13.9505208333333 16.8276599702381  14 16.9490327380952  14 17.0892857142857  L 14 18.125  C 14 18.2652529761905  13.9505208333333 18.3866257440476  13.8515625 18.4891183035714  C 13.7526041666667 18.5916108630952  13.6354166666667 18.6428571428571  13.5 18.6428571428571  L 12.5 18.6428571428571  C 12.3645833333333 18.6428571428571  12.2473958333333 18.5916108630952  12.1484375 18.4891183035714  C 12.0494791666667 18.3866257440476  12 18.2652529761905  12 18.125  L 12 17.0892857142857  C 12 16.9490327380952  12.0494791666667 16.8276599702381  12.1484375 16.7251674107143  C 12.2473958333333 16.6226748511905  12.3645833333333 16.5714285714286  12.5 16.5714285714286  L 13.5 16.5714285714286  C 13.6354166666667 16.5714285714286  13.7526041666667 16.6226748511905  13.8515625 16.7251674107143  Z M 9.8515625 12.5823102678571  C 9.95052083333333 12.6848028273809  10 12.8061755952381  10 12.9464285714286  L 10 13.9821428571429  C 10 14.1223958333333  9.95052083333333 14.2437686011905  9.8515625 14.3462611607143  C 9.75260416666667 14.4487537202381  9.63541666666667 14.5  9.5 14.5  L 8.5 14.5  C 8.36458333333333 14.5  8.24739583333333 14.4487537202381  8.1484375 14.3462611607143  C 8.04947916666667 14.2437686011905  8 14.1223958333333  8 13.9821428571429  L 8 12.9464285714286  C 8 12.8061755952381  8.04947916666667 12.6848028273809  8.1484375 12.5823102678571  C 8.24739583333333 12.4798177083333  8.36458333333333 12.4285714285714  8.5 12.4285714285714  L 9.5 12.4285714285714  C 9.63541666666667 12.4285714285714  9.75260416666667 12.4798177083333  9.8515625 12.5823102678571  Z M 5.8515625 8.439453125  C 5.95052083333333 8.54194568452381  6 8.66331845238095  6 8.80357142857143  L 6 9.83928571428572  C 6 9.97953869047619  5.95052083333333 10.1009114583333  5.8515625 10.2034040178571  C 5.75260416666667 10.3058965773809  5.63541666666667 10.3571428571429  5.5 10.3571428571429  L 4.5 10.3571428571429  C 4.36458333333333 10.3571428571429  4.24739583333333 10.3058965773809  4.1484375 10.2034040178571  C 4.04947916666667 10.1009114583333  4 9.97953869047619  4 9.83928571428572  L 4 8.80357142857143  C 4 8.66331845238095  4.04947916666667 8.54194568452381  4.1484375 8.439453125  C 4.24739583333333 8.33696056547619  4.36458333333333 8.28571428571428  4.5 8.28571428571428  L 5.5 8.28571428571428  C 5.63541666666667 8.28571428571428  5.75260416666667 8.33696056547619  5.8515625 8.439453125  Z M 17.8515625 16.7251674107143  C 17.9505208333333 16.8276599702381  18 16.9490327380952  18 17.0892857142857  L 18 18.125  C 18 18.2652529761905  17.9505208333333 18.3866257440476  17.8515625 18.4891183035714  C 17.7526041666667 18.5916108630952  17.6354166666667 18.6428571428571  17.5 18.6428571428571  L 16.5 18.6428571428571  C 16.3645833333333 18.6428571428571  16.2473958333333 18.5916108630952  16.1484375 18.4891183035714  C 16.0494791666667 18.3866257440476  16 18.2652529761905  16 18.125  L 16 17.0892857142857  C 16 16.9490327380952  16.0494791666667 16.8276599702381  16.1484375 16.7251674107143  C 16.2473958333333 16.6226748511905  16.3645833333333 16.5714285714286  16.5 16.5714285714286  L 17.5 16.5714285714286  C 17.6354166666667 16.5714285714286  17.7526041666667 16.6226748511905  17.8515625 16.7251674107143  Z M 13.8515625 12.5823102678571  C 13.9505208333333 12.6848028273809  14 12.8061755952381  14 12.9464285714286  L 14 13.9821428571429  C 14 14.1223958333333  13.9505208333333 14.2437686011905  13.8515625 14.3462611607143  C 13.7526041666667 14.4487537202381  13.6354166666667 14.5  13.5 14.5  L 12.5 14.5  C 12.3645833333333 14.5  12.2473958333333 14.4487537202381  12.1484375 14.3462611607143  C 12.0494791666667 14.2437686011905  12 14.1223958333333  12 13.9821428571429  L 12 12.9464285714286  C 12 12.8061755952381  12.0494791666667 12.6848028273809  12.1484375 12.5823102678571  C 12.2473958333333 12.4798177083333  12.3645833333333 12.4285714285714  12.5 12.4285714285714  L 13.5 12.4285714285714  C 13.6354166666667 12.4285714285714  13.7526041666667 12.4798177083333  13.8515625 12.5823102678571  Z M 9.8515625 8.439453125  C 9.95052083333333 8.54194568452381  10 8.66331845238095  10 8.80357142857143  L 10 9.83928571428572  C 10 9.97953869047619  9.95052083333333 10.1009114583333  9.8515625 10.2034040178571  C 9.75260416666667 10.3058965773809  9.63541666666667 10.3571428571429  9.5 10.3571428571429  L 8.5 10.3571428571429  C 8.36458333333333 10.3571428571429  8.24739583333333 10.3058965773809  8.1484375 10.2034040178571  C 8.04947916666667 10.1009114583333  8 9.97953869047619  8 9.83928571428572  L 8 8.80357142857143  C 8 8.66331845238095  8.04947916666667 8.54194568452381  8.1484375 8.439453125  C 8.24739583333333 8.33696056547619  8.36458333333333 8.28571428571428  8.5 8.28571428571428  L 9.5 8.28571428571428  C 9.63541666666667 8.28571428571428  9.75260416666667 8.33696056547619  9.8515625 8.439453125  Z M 5.8515625 4.29659598214286  C 5.95052083333333 4.39908854166666  6 4.52046130952381  6 4.66071428571429  L 6 5.69642857142857  C 6 5.83668154761904  5.95052083333333 5.95805431547619  5.8515625 6.060546875  C 5.75260416666667 6.16303943452381  5.63541666666667 6.21428571428571  5.5 6.21428571428571  L 4.5 6.21428571428571  C 4.36458333333333 6.21428571428571  4.24739583333333 6.16303943452381  4.1484375 6.060546875  C 4.04947916666667 5.95805431547619  4 5.83668154761904  4 5.69642857142857  L 4 4.66071428571429  C 4 4.52046130952381  4.04947916666667 4.39908854166666  4.1484375 4.29659598214286  C 4.24739583333333 4.19410342261904  4.36458333333333 4.14285714285714  4.5 4.14285714285714  L 5.5 4.14285714285714  C 5.63541666666667 4.14285714285714  5.75260416666667 4.19410342261904  5.8515625 4.29659598214286  Z M 17.8515625 12.5823102678571  C 17.9505208333333 12.6848028273809  18 12.8061755952381  18 12.9464285714286  L 18 13.9821428571429  C 18 14.1223958333333  17.9505208333333 14.2437686011905  17.8515625 14.3462611607143  C 17.7526041666667 14.4487537202381  17.6354166666667 14.5  17.5 14.5  L 16.5 14.5  C 16.3645833333333 14.5  16.2473958333333 14.4487537202381  16.1484375 14.3462611607143  C 16.0494791666667 14.2437686011905  16 14.1223958333333  16 13.9821428571429  L 16 12.9464285714286  C 16 12.8061755952381  16.0494791666667 12.6848028273809  16.1484375 12.5823102678571  C 16.2473958333333 12.4798177083333  16.3645833333333 12.4285714285714  16.5 12.4285714285714  L 17.5 12.4285714285714  C 17.6354166666667 12.4285714285714  17.7526041666667 12.4798177083333  17.8515625 12.5823102678571  Z M 13.8515625 8.439453125  C 13.9505208333333 8.54194568452381  14 8.66331845238095  14 8.80357142857143  L 14 9.83928571428572  C 14 9.97953869047619  13.9505208333333 10.1009114583333  13.8515625 10.2034040178571  C 13.7526041666667 10.3058965773809  13.6354166666667 10.3571428571429  13.5 10.3571428571429  L 12.5 10.3571428571429  C 12.3645833333333 10.3571428571429  12.2473958333333 10.3058965773809  12.1484375 10.2034040178571  C 12.0494791666667 10.1009114583333  12 9.97953869047619  12 9.83928571428572  L 12 8.80357142857143  C 12 8.66331845238095  12.0494791666667 8.54194568452381  12.1484375 8.439453125  C 12.2473958333333 8.33696056547619  12.3645833333333 8.28571428571428  12.5 8.28571428571428  L 13.5 8.28571428571428  C 13.6354166666667 8.28571428571428  13.7526041666667 8.33696056547619  13.8515625 8.439453125  Z M 9.8515625 4.29659598214286  C 9.95052083333333 4.39908854166666  10 4.52046130952381  10 4.66071428571429  L 10 5.69642857142857  C 10 5.83668154761904  9.95052083333333 5.95805431547619  9.8515625 6.060546875  C 9.75260416666667 6.16303943452381  9.63541666666667 6.21428571428571  9.5 6.21428571428571  L 8.5 6.21428571428571  C 8.36458333333333 6.21428571428571  8.24739583333333 6.16303943452381  8.1484375 6.060546875  C 8.04947916666667 5.95805431547619  8 5.83668154761904  8 5.69642857142857  L 8 4.66071428571429  C 8 4.52046130952381  8.04947916666667 4.39908854166666  8.1484375 4.29659598214286  C 8.24739583333333 4.19410342261904  8.36458333333333 4.14285714285714  8.5 4.14285714285714  L 9.5 4.14285714285714  C 9.63541666666667 4.14285714285714  9.75260416666667 4.19410342261904  9.8515625 4.29659598214286  Z M 17.8515625 8.439453125  C 17.9505208333333 8.54194568452381  18 8.66331845238095  18 8.80357142857143  L 18 9.83928571428572  C 18 9.97953869047619  17.9505208333333 10.1009114583333  17.8515625 10.2034040178571  C 17.7526041666667 10.3058965773809  17.6354166666667 10.3571428571429  17.5 10.3571428571429  L 16.5 10.3571428571429  C 16.3645833333333 10.3571428571429  16.2473958333333 10.3058965773809  16.1484375 10.2034040178571  C 16.0494791666667 10.1009114583333  16 9.97953869047619  16 9.83928571428572  L 16 8.80357142857143  C 16 8.66331845238095  16.0494791666667 8.54194568452381  16.1484375 8.439453125  C 16.2473958333333 8.33696056547619  16.3645833333333 8.28571428571428  16.5 8.28571428571428  L 17.5 8.28571428571428  C 17.6354166666667 8.28571428571428  17.7526041666667 8.33696056547619  17.8515625 8.439453125  Z M 13.8515625 4.29659598214286  C 13.9505208333333 4.39908854166666  14 4.52046130952381  14 4.66071428571429  L 14 5.69642857142857  C 14 5.83668154761904  13.9505208333333 5.95805431547619  13.8515625 6.060546875  C 13.7526041666667 6.16303943452381  13.6354166666667 6.21428571428571  13.5 6.21428571428571  L 12.5 6.21428571428571  C 12.3645833333333 6.21428571428571  12.2473958333333 6.16303943452381  12.1484375 6.060546875  C 12.0494791666667 5.95805431547619  12 5.83668154761904  12 5.69642857142857  L 12 4.66071428571429  C 12 4.52046130952381  12.0494791666667 4.39908854166666  12.1484375 4.29659598214286  C 12.2473958333333 4.19410342261904  12.3645833333333 4.14285714285714  12.5 4.14285714285714  L 13.5 4.14285714285714  C 13.6354166666667 4.14285714285714  13.7526041666667 4.19410342261904  13.8515625 4.29659598214286  Z M 17.8515625 4.29659598214286  C 17.9505208333333 4.39908854166666  18 4.52046130952381  18 4.66071428571429  L 18 5.69642857142857  C 18 5.83668154761904  17.9505208333333 5.95805431547619  17.8515625 6.060546875  C 17.7526041666667 6.16303943452381  17.6354166666667 6.21428571428571  17.5 6.21428571428571  L 16.5 6.21428571428571  C 16.3645833333333 6.21428571428571  16.2473958333333 6.16303943452381  16.1484375 6.060546875  C 16.0494791666667 5.95805431547619  16 5.83668154761904  16 5.69642857142857  L 16 4.66071428571429  C 16 4.52046130952381  16.0494791666667 4.39908854166666  16.1484375 4.29659598214286  C 16.2473958333333 4.19410342261904  16.3645833333333 4.14285714285714  16.5 4.14285714285714  L 17.5 4.14285714285714  C 17.6354166666667 4.14285714285714  17.7526041666667 4.19410342261904  17.8515625 4.29659598214286  Z M 14 23.3035714285714  L 14 26.9285714285714  L 20 26.9285714285714  L 20 2  L 2 2  L 2 26.9285714285714  L 8 26.9285714285714  L 8 23.3035714285714  C 8 23.163318452381  8.04947916666667 23.0419456845238  8.1484375 22.939453125  C 8.24739583333333 22.8369605654762  8.36458333333333 22.7857142857143  8.5 22.7857142857143  L 13.5 22.7857142857143  C 13.6354166666667 22.7857142857143  13.7526041666667 22.8369605654762  13.8515625 22.939453125  C 13.9505208333333 23.0419456845238  14 23.163318452381  14 23.3035714285714  Z M 21.703125 0.307477678571429  C 21.9010416666667 0.512462797619044  22 0.755208333333332  22 1.03571428571429  L 22 27.9642857142857  C 22 28.2447916666667  21.9010416666667 28.4875372023809  21.703125 28.6925223214286  C 21.5052083333333 28.8975074404762  21.2708333333333 29  21 29  L 1 29  C 0.729166666666667 29  0.494791666666667 28.8975074404762  0.296875 28.6925223214286  C 0.0989583333333333 28.4875372023809  0 28.2447916666667  0 27.9642857142857  L 0 1.03571428571429  C 0 0.755208333333332  0.0989583333333333 0.512462797619044  0.296875 0.307477678571429  C 0.494791666666667 0.102492559523812  0.729166666666667 0  1 0  L 21 0  C 21.2708333333333 0  21.5052083333333 0.102492559523812  21.703125 0.307477678571429  Z " fill-rule="nonzero" fill="#00935c" stroke="none" transform="matrix(1 0 0 1 67 126 )" />
  </g>
</svg>