<?xml version="1.0" encoding="utf-8"?>
<svg version="1.1" xmlns:xlink="http://www.w3.org/1999/xlink" width="8px" height="27px" xmlns="http://www.w3.org/2000/svg">
  <g transform="matrix(1 0 0 1 -46 -37 )">
    <path d="M 7.10313901345291 20.6143465909091  C 7.33034379671151 20.8572443181818  7.44394618834081 21.1448863636364  7.44394618834081 21.4772727272727  L 7.44394618834081 25.7727272727273  C 7.44394618834081 26.1051136363636  7.33034379671151 26.3927556818182  7.10313901345291 26.6356534090909  C 6.87593423019432 26.8785511363636  6.6068759342302 27  6.29596412556054 27  L 1.70403587443946 27  C 1.39312406576981 27  1.12406576980568 26.8785511363636  0.896860986547085 26.6356534090909  C 0.66965620328849 26.3927556818182  0.556053811659193 26.1051136363636  0.556053811659193 25.7727272727273  L 0.556053811659193 21.4772727272727  C 0.556053811659193 21.1448863636364  0.66965620328849 20.8572443181818  0.896860986547085 20.6143465909091  C 1.12406576980568 20.3714488636364  1.39312406576981 20.25  1.70403587443946 20.25  L 6.29596412556054 20.25  C 6.6068759342302 20.25  6.87593423019432 20.3714488636364  7.10313901345291 20.6143465909091  Z M 7.66816143497758 0.364346590909092  C 7.88938714499253 0.607244318181814  7.99402092675635 0.894886363636362  7.98206278026906 1.22727272727273  L 7.47982062780269 15.9545454545455  C 7.4678624813154 16.2869318181818  7.34529147982063 16.5745738636364  7.11210762331839 16.8174715909091  C 6.87892376681614 17.0603693181818  6.6068759342302 17.1818181818182  6.29596412556054 17.1818181818182  L 1.70403587443946 17.1818181818182  C 1.39312406576981 17.1818181818182  1.12107623318386 17.0603693181818  0.887892376681614 16.8174715909091  C 0.654708520179372 16.5745738636364  0.532137518684604 16.2869318181818  0.520179372197309 15.9545454545455  L 0.0179372197309417 1.22727272727273  C 0.0059790732436474 0.894886363636362  0.110612855007474 0.607244318181814  0.331838565022422 0.364346590909092  C 0.553064275037369 0.121448863636361  0.819133034379671 0  1.13004484304933 0  L 6.86995515695067 0  C 7.18086696562033 0  7.44693572496263 0.121448863636361  7.66816143497758 0.364346590909092  Z " fill-rule="nonzero" fill="#d5732c" stroke="none" transform="matrix(1 0 0 1 46 37 )" />
  </g>
</svg>