<?xml version="1.0" encoding="utf-8"?>
<svg version="1.1" xmlns:xlink="http://www.w3.org/1999/xlink" width="50px" height="50px" xmlns="http://www.w3.org/2000/svg">
  <g transform="matrix(1 0 0 1 -227 -329 )">
    <path d="M 42.2841396203307 11.8872549019608  C 42.8556848336395 11.3153594771242  43.1414574402939 10.6209150326797  43.1414574402939 9.80392156862745  C 43.1414574402939 8.98692810457516  42.8556848336395 8.29248366013071  42.2841396203307 7.72058823529412  C 41.7125944070218 7.14869281045751  41.0185752194325 6.86274509803921  40.2020820575628 6.86274509803921  C 39.385588895693 6.86274509803921  38.6915697081037 7.14869281045751  38.1200244947949 7.72058823529412  C 37.548479281486 8.29248366013071  37.2627066748316 8.98692810457516  37.2627066748316 9.80392156862745  C 37.2627066748316 10.6209150326797  37.548479281486 11.3153594771242  38.1200244947949 11.8872549019608  C 38.6915697081037 12.4591503267974  39.385588895693 12.7450980392157  40.2020820575628 12.7450980392157  C 41.0185752194325 12.7450980392157  41.7125944070218 12.4591503267974  42.2841396203307 11.8872549019608  Z M 49.6938150642988 0.291053921568629  C 49.8979383547663 0.485089869281041  50 0.714869281045749  50 0.980392156862747  C 50 6.06617647058824  49.2294345784854 10.4626225490196  47.6883037354562 14.1697303921569  C 46.147172892427 17.8768382352941  43.5599101857522 21.5584150326797  39.9265156154317 25.2144607843137  C 38.2731169626454 26.8484477124183  36.2829148805879 28.6458333333333  33.955909369259 30.6066176470588  L 33.3435394978567 42.218137254902  C 33.3027148397632 42.5449346405229  33.1394162073893 42.8104575163399  32.8536436007348 43.0147058823529  L 21.0961420698102 49.8774509803922  C 20.953255766483 49.9591503267974  20.789957134109 50  20.6062461726883 50  C 20.3612982241274 50  20.1265564400898 49.9080882352941  19.9020208205756 49.7242647058824  L 17.9424372320882 47.7634803921569  C 17.6770769544805 47.4775326797386  17.5954276382935 47.1507352941176  17.6974892835273 46.7830882352941  L 20.3000612369871 38.3272058823529  L 11.6962645437844 29.718137254902  L 3.24556031843233 32.3223039215686  C 3.1843233312921 32.3427287581699  3.09246785058175 32.3529411764706  2.96999387630129 32.3529411764706  C 2.68422126964687 32.3529411764706  2.44947948560931 32.2610294117647  2.26576852418861 32.0772058823529  L 0.306184935701164 30.1164215686274  C -0.0408246580934885 29.7283496732026  -0.091855480710349 29.3300653594771  0.153092467850582 28.921568627451  L 7.01163502755664 17.156862745098  C 7.21575831802409 16.8709150326797  7.48111859563176 16.7075163398693  7.80771586037967 16.6666666666667  L 19.4121249234538 16.0539215686274  C 21.3717085119412 13.7254901960784  23.1679934680547 11.734068627451  24.8009797917942 10.0796568627451  C 28.6384976525822 6.26021241830065  32.2923045519494 3.62540849673202  35.7624004898959 2.17524509803921  C 39.2324964278424 0.725081699346403  43.6313533374158 0  48.958971218616 0  C 49.2447438252705 0  49.4896917738314 0.097017973856206  49.6938150642988 0.291053921568629  Z " fill-rule="nonzero" fill="#3366ff" stroke="none" transform="matrix(1 0 0 1 227 329 )" />
  </g>
</svg>