<?xml version="1.0" encoding="utf-8"?>
<svg version="1.1" xmlns:xlink="http://www.w3.org/1999/xlink" width="22px" height="25px" xmlns="http://www.w3.org/2000/svg">
  <g transform="matrix(1 0 0 1 -62 -124 )">
    <path d="M 4.65494791666667 10.1143973214286  C 6.62196180555556 10.5143229166667  8.73697916666667 10.7142857142857  11 10.7142857142857  C 13.2630208333333 10.7142857142857  15.3780381944444 10.5143229166667  17.3450520833333 10.1143973214286  C 19.3120659722222 9.71447172619047  20.8637152777778 9.12388392857143  22 8.34263392857143  L 22 10.7142857142857  C 22 11.3560267857143  21.5082465277778 11.9512648809524  20.5247395833333 12.5  C 19.5412326388889 13.0487351190476  18.2044270833333 13.4835379464286  16.5143229166667 13.8044084821429  C 14.82421875 14.1252790178571  12.9861111111111 14.2857142857143  11 14.2857142857143  C 9.01388888888889 14.2857142857143  7.17578125 14.1252790178571  5.48567708333333 13.8044084821429  C 3.79557291666667 13.4835379464286  2.45876736111111 13.0487351190476  1.47526041666667 12.5  C 0.491753472222222 11.9512648809524  0 11.3560267857143  0 10.7142857142857  L 0 8.34263392857143  C 1.13628472222222 9.12388392857143  2.68793402777778 9.71447172619047  4.65494791666667 10.1143973214286  Z M 4.65494791666667 20.8286830357143  C 6.62196180555556 21.2286086309524  8.73697916666667 21.4285714285714  11 21.4285714285714  C 13.2630208333333 21.4285714285714  15.3780381944444 21.2286086309524  17.3450520833333 20.8286830357143  C 19.3120659722222 20.4287574404762  20.8637152777778 19.8381696428571  22 19.0569196428571  L 22 21.4285714285714  C 22 22.0703125  21.5082465277778 22.6655505952381  20.5247395833333 23.2142857142857  C 19.5412326388889 23.7630208333333  18.2044270833333 24.1978236607143  16.5143229166667 24.5186941964286  C 14.82421875 24.8395647321429  12.9861111111111 25  11 25  C 9.01388888888889 25  7.17578125 24.8395647321429  5.48567708333333 24.5186941964286  C 3.79557291666667 24.1978236607143  2.45876736111111 23.7630208333333  1.47526041666667 23.2142857142857  C 0.491753472222222 22.6655505952381  0 22.0703125  0 21.4285714285714  L 0 19.0569196428571  C 1.13628472222222 19.8381696428571  2.68793402777778 20.4287574404762  4.65494791666667 20.8286830357143  Z M 4.65494791666667 15.4715401785714  C 6.62196180555556 15.8714657738095  8.73697916666667 16.0714285714286  11 16.0714285714286  C 13.2630208333333 16.0714285714286  15.3780381944444 15.8714657738095  17.3450520833333 15.4715401785714  C 19.3120659722222 15.0716145833333  20.8637152777778 14.4810267857143  22 13.6997767857143  L 22 16.0714285714286  C 22 16.7131696428571  21.5082465277778 17.3084077380952  20.5247395833333 17.8571428571429  C 19.5412326388889 18.4058779761905  18.2044270833333 18.8406808035714  16.5143229166667 19.1615513392857  C 14.82421875 19.482421875  12.9861111111111 19.6428571428571  11 19.6428571428571  C 9.01388888888889 19.6428571428571  7.17578125 19.482421875  5.48567708333333 19.1615513392857  C 3.79557291666667 18.8406808035714  2.45876736111111 18.4058779761905  1.47526041666667 17.8571428571429  C 0.491753472222222 17.3084077380952  0 16.7131696428571  0 16.0714285714286  L 0 13.6997767857143  C 1.13628472222222 14.4810267857143  2.68793402777778 15.0716145833333  4.65494791666667 15.4715401785714  Z M 5.48567708333333 0.481305803571427  C 7.17578125 0.160435267857142  9.01388888888889 0  11 0  C 12.9861111111111 0  14.82421875 0.160435267857142  16.5143229166667 0.481305803571427  C 18.2044270833333 0.802176339285715  19.5412326388889 1.23697916666667  20.5247395833333 1.78571428571428  C 21.5082465277778 2.3344494047619  22 2.9296875  22 3.57142857142857  L 22 5.35714285714286  C 22 5.99888392857143  21.5082465277778 6.59412202380952  20.5247395833333 7.14285714285714  C 19.5412326388889 7.69159226190476  18.2044270833333 8.12639508928572  16.5143229166667 8.447265625  C 14.82421875 8.76813616071428  12.9861111111111 8.92857142857143  11 8.92857142857143  C 9.01388888888889 8.92857142857143  7.17578125 8.76813616071428  5.48567708333333 8.447265625  C 3.79557291666667 8.12639508928572  2.45876736111111 7.69159226190476  1.47526041666667 7.14285714285714  C 0.491753472222222 6.59412202380952  0 5.99888392857143  0 5.35714285714286  L 0 3.57142857142857  C 0 2.9296875  0.491753472222222 2.3344494047619  1.47526041666667 1.78571428571428  C 2.45876736111111 1.23697916666667  3.79557291666667 0.802176339285715  5.48567708333333 0.481305803571427  Z " fill-rule="nonzero" fill="#000000" stroke="none" transform="matrix(1 0 0 1 62 124 )" />
  </g>
</svg>