<?xml version="1.0" encoding="utf-8"?>
<svg version="1.1" xmlns:xlink="http://www.w3.org/1999/xlink" width="196px" height="41px" xmlns="http://www.w3.org/2000/svg">
  <defs>
    <mask fill="white" id="clip80">
      <path d="M 0 29.154740608229  L 0 4.85912343470482  C 0 2.13801431127014  1.21807909604522 0  2.76836158192091 0  L 193.231638418079 0  C 194.781920903955 0  196 2.13801431127014  196 4.85912343470482  L 196 29.154740608229  C 196 31.8758497316637  194.781920903955 34.0138640429338  193.231638418079 34.0138640429338  C 193.231638418079 34.0138640429338  111.101067105522 34.0138640429338  90.1877256317689 34.0138640429338  C 88.8408942924531 34.0138640429338  84.5418530748034 41  83.3285198555957 41  C 82.287625250371 41  77.0889911875645 34.0138640429338  75.9999999999999 34.0138640429338  C 31.6480192475844 34.0138640429338  2.76836158192091 34.0138640429338  2.76836158192091 34.0138640429338  C 1.21807909604522 34.0138640429338  0 31.8758497316637  0 29.154740608229  Z " fill-rule="evenodd" />
    </mask>
  </defs>
  <g transform="matrix(1 0 0 1 -71 0 )">
    <path d="M 0 29.154740608229  L 0 4.85912343470482  C 0 2.13801431127014  1.21807909604522 0  2.76836158192091 0  L 193.231638418079 0  C 194.781920903955 0  196 2.13801431127014  196 4.85912343470482  L 196 29.154740608229  C 196 31.8758497316637  194.781920903955 34.0138640429338  193.231638418079 34.0138640429338  C 193.231638418079 34.0138640429338  111.101067105522 34.0138640429338  90.1877256317689 34.0138640429338  C 88.8408942924531 34.0138640429338  84.5418530748034 41  83.3285198555957 41  C 82.287625250371 41  77.0889911875645 34.0138640429338  75.9999999999999 34.0138640429338  C 31.6480192475844 34.0138640429338  2.76836158192091 34.0138640429338  2.76836158192091 34.0138640429338  C 1.21807909604522 34.0138640429338  0 31.8758497316637  0 29.154740608229  Z " fill-rule="nonzero" fill="#ffffff" stroke="none" transform="matrix(1 0 0 1 71 0 )" />
    <path d="M 0 29.154740608229  L 0 4.85912343470482  C 0 2.13801431127014  1.21807909604522 0  2.76836158192091 0  L 193.231638418079 0  C 194.781920903955 0  196 2.13801431127014  196 4.85912343470482  L 196 29.154740608229  C 196 31.8758497316637  194.781920903955 34.0138640429338  193.231638418079 34.0138640429338  C 193.231638418079 34.0138640429338  111.101067105522 34.0138640429338  90.1877256317689 34.0138640429338  C 88.8408942924531 34.0138640429338  84.5418530748034 41  83.3285198555957 41  C 82.287625250371 41  77.0889911875645 34.0138640429338  75.9999999999999 34.0138640429338  C 31.6480192475844 34.0138640429338  2.76836158192091 34.0138640429338  2.76836158192091 34.0138640429338  C 1.21807909604522 34.0138640429338  0 31.8758497316637  0 29.154740608229  Z " stroke-width="2" stroke="#dddfe6" fill="none" transform="matrix(1 0 0 1 71 0 )" mask="url(#clip80)" />
  </g>
</svg>