<?xml version="1.0" encoding="utf-8"?>
<svg version="1.1" xmlns:xlink="http://www.w3.org/1999/xlink" width="45px" height="18px" xmlns="http://www.w3.org/2000/svg">
  <g transform="matrix(1 0 0 1 -226 -951 )">
    <path d="M 227 954  A 2 2 0 0 1 229 952 L 268 952  A 2 2 0 0 1 270 954 L 270 966  A 2 2 0 0 1 268 968 L 229 968  A 2 2 0 0 1 227 966 L 227 954  Z " fill-rule="nonzero" fill="#e5f4ee" stroke="none" />
    <path d="M 226.5 954  A 2.5 2.5 0 0 1 229 951.5 L 268 951.5  A 2.5 2.5 0 0 1 270.5 954 L 270.5 966  A 2.5 2.5 0 0 1 268 968.5 L 229 968.5  A 2.5 2.5 0 0 1 226.5 966 L 226.5 954  Z " stroke-width="1" stroke="#00935c" fill="none" stroke-opacity="0.396078431372549" />
  </g>
</svg>