<?xml version="1.0" encoding="utf-8"?>
<svg version="1.1" xmlns:xlink="http://www.w3.org/1999/xlink" width="74px" height="22px" xmlns="http://www.w3.org/2000/svg">
  <g transform="matrix(1 0 0 1 -1373 -1317 )">
    <path d="M 1374 1320  A 2 2 0 0 1 1376 1318 L 1444 1318  A 2 2 0 0 1 1446 1320 L 1446 1336  A 2 2 0 0 1 1444 1338 L 1376 1338  A 2 2 0 0 1 1374 1336 L 1374 1320  Z " fill-rule="nonzero" fill="#3366ff" stroke="none" fill-opacity="0.219607843137255" />
    <path d="M 1373.5 1320  A 2.5 2.5 0 0 1 1376 1317.5 L 1444 1317.5  A 2.5 2.5 0 0 1 1446.5 1320 L 1446.5 1336  A 2.5 2.5 0 0 1 1444 1338.5 L 1376 1338.5  A 2.5 2.5 0 0 1 1373.5 1336 L 1373.5 1320  Z " stroke-width="1" stroke="#3366ff" fill="none" stroke-opacity="0.470588235294118" />
  </g>
</svg>