<?xml version="1.0" encoding="utf-8"?>
<svg version="1.1" xmlns:xlink="http://www.w3.org/1999/xlink" width="498px" height="316px" xmlns="http://www.w3.org/2000/svg">
  <g>
    <path d="M 1 5  A 4 4 0 0 1 5 1 L 493 1  A 4 4 0 0 1 497 5 L 497 311  A 4 4 0 0 1 493 315 L 5 315  A 4 4 0 0 1 1 311 L 1 5  Z " fill-rule="nonzero" fill="#ffffff" stroke="none" />
    <path d="M 0.5 5  A 4.5 4.5 0 0 1 5 0.5 L 493 0.5  A 4.5 4.5 0 0 1 497.5 5 L 497.5 311  A 4.5 4.5 0 0 1 493 315.5 L 5 315.5  A 4.5 4.5 0 0 1 0.5 311 L 0.5 5  Z " stroke-width="1" stroke="#797979" fill="none" stroke-opacity="0.113725490196078" />
  </g>
</svg>