<?xml version="1.0" encoding="utf-8"?>
<svg version="1.1" xmlns:xlink="http://www.w3.org/1999/xlink" width="30px" height="30px" xmlns="http://www.w3.org/2000/svg">
  <g transform="matrix(1 0 0 1 -239 -1 )">
    <path d="M 254 2  C 261.84 2  268 8.16  268 16  C 268 23.84  261.84 30  254 30  C 246.16 30  240 23.84  240 16  C 240 8.16  246.16 2  254 2  Z " fill-rule="nonzero" fill="#00887a" stroke="none" />
    <path d="M 254 2  C 261.84 2  268 8.16  268 16  C 268 23.84  261.84 30  254 30  C 246.16 30  240 23.84  240 16  C 240 8.16  246.16 2  254 2  Z " stroke-width="2" stroke="#00887a" fill="none" />
  </g>
</svg>