<?xml version="1.0" encoding="utf-8"?>
<svg version="1.1" xmlns:xlink="http://www.w3.org/1999/xlink" width="17px" height="17px" xmlns="http://www.w3.org/2000/svg">
  <g transform="matrix(1 0 0 1 -691 -77 )">
    <path d="M 699.5 77.5  C 703.98 77.5  707.5 81.02  707.5 85.5  C 707.5 89.98  703.98 93.5  699.5 93.5  C 695.02 93.5  691.5 89.98  691.5 85.5  C 691.5 81.02  695.02 77.5  699.5 77.5  Z " fill-rule="nonzero" fill="#d52c2c" stroke="none" fill-opacity="0.756862745098039" />
    <path d="M 699.5 77.5  C 703.98 77.5  707.5 81.02  707.5 85.5  C 707.5 89.98  703.98 93.5  699.5 93.5  C 695.02 93.5  691.5 89.98  691.5 85.5  C 691.5 81.02  695.02 77.5  699.5 77.5  Z " stroke-width="1" stroke="#d52c2c" fill="none" stroke-opacity="0.756862745098039" />
  </g>
</svg>