<?xml version="1.0" encoding="utf-8"?>
<svg version="1.1" xmlns:xlink="http://www.w3.org/1999/xlink" width="63px" height="20px" xmlns="http://www.w3.org/2000/svg">
  <g transform="matrix(1 0 0 1 -235 -130 )">
    <path d="M 236 134  A 3 3 0 0 1 239 131 L 294 131  A 3 3 0 0 1 297 134 L 297 146  A 3 3 0 0 1 294 149 L 239 149  A 3 3 0 0 1 236 146 L 236 134  Z " fill-rule="nonzero" fill="#3366ff" stroke="none" fill-opacity="0.219607843137255" />
    <path d="M 235.5 134  A 3.5 3.5 0 0 1 239 130.5 L 294 130.5  A 3.5 3.5 0 0 1 297.5 134 L 297.5 146  A 3.5 3.5 0 0 1 294 149.5 L 239 149.5  A 3.5 3.5 0 0 1 235.5 146 L 235.5 134  Z " stroke-width="1" stroke="#3366ff" fill="none" stroke-opacity="0.470588235294118" />
  </g>
</svg>