<?xml version="1.0" encoding="utf-8"?>
<svg version="1.1" xmlns:xlink="http://www.w3.org/1999/xlink" width="59px" height="17px" xmlns="http://www.w3.org/2000/svg">
  <g transform="matrix(1 0 0 1 -146 -52 )">
    <path d="M 147 55  A 2 2 0 0 1 149 53 L 202 53  A 2 2 0 0 1 204 55 L 204 66  A 2 2 0 0 1 202 68 L 149 68  A 2 2 0 0 1 147 66 L 147 55  Z " fill-rule="nonzero" fill="#d72626" stroke="none" fill-opacity="0.243137254901961" />
    <path d="M 146.5 55  A 2.5 2.5 0 0 1 149 52.5 L 202 52.5  A 2.5 2.5 0 0 1 204.5 55 L 204.5 66  A 2.5 2.5 0 0 1 202 68.5 L 149 68.5  A 2.5 2.5 0 0 1 146.5 66 L 146.5 55  Z " stroke-width="1" stroke="#d72626" fill="none" stroke-opacity="0.564705882352941" />
  </g>
</svg>