<?xml version="1.0" encoding="utf-8"?>
<svg version="1.1" xmlns:xlink="http://www.w3.org/1999/xlink" width="354px" height="49px" xmlns="http://www.w3.org/2000/svg">
  <defs>
    <mask fill="white" id="clip74">
      <path d="M 0 41.9767441860465  L 0 11.1627906976744  C 0 7.71162790697676  2.20000000000005 5  5 5  L 230.149837133551 5  L 240.71052631579 0.605863192182454  L 249.693811074919 5  L 349 5  C 351.8 5  354 7.71162790697676  354 11.1627906976744  L 354 41.9767441860465  C 354 45.4279069767442  351.8 48.1395348837209  349 48.1395348837209  C 349 48.1395348837209  285.061508344384 48.1395348837209  247.289452825462 48.1395348837209  C 244.856910508535 48.1395348837209  236.53644346282 48.1395348837209  234.569592032219 48.1395348837209  C 154.464483938571 48.1395348837209  5 48.1395348837209  5 48.1395348837209  C 2.20000000000005 48.1395348837209  0 45.4279069767442  0 41.9767441860465  Z " fill-rule="evenodd" />
    </mask>
  </defs>
  <g transform="matrix(1 0 0 1 -492 -30 )">
    <path d="M 0 41.9767441860465  L 0 11.1627906976744  C 0 7.71162790697676  2.20000000000005 5  5 5  L 230.149837133551 5  L 240.71052631579 0.605863192182454  L 249.693811074919 5  L 349 5  C 351.8 5  354 7.71162790697676  354 11.1627906976744  L 354 41.9767441860465  C 354 45.4279069767442  351.8 48.1395348837209  349 48.1395348837209  C 349 48.1395348837209  285.061508344384 48.1395348837209  247.289452825462 48.1395348837209  C 244.856910508535 48.1395348837209  236.53644346282 48.1395348837209  234.569592032219 48.1395348837209  C 154.464483938571 48.1395348837209  5 48.1395348837209  5 48.1395348837209  C 2.20000000000005 48.1395348837209  0 45.4279069767442  0 41.9767441860465  Z " fill-rule="nonzero" fill="#ffffff" stroke="none" transform="matrix(1 0 0 1 492 30 )" />
    <path d="M 0 41.9767441860465  L 0 11.1627906976744  C 0 7.71162790697676  2.20000000000005 5  5 5  L 230.149837133551 5  L 240.71052631579 0.605863192182454  L 249.693811074919 5  L 349 5  C 351.8 5  354 7.71162790697676  354 11.1627906976744  L 354 41.9767441860465  C 354 45.4279069767442  351.8 48.1395348837209  349 48.1395348837209  C 349 48.1395348837209  285.061508344384 48.1395348837209  247.289452825462 48.1395348837209  C 244.856910508535 48.1395348837209  236.53644346282 48.1395348837209  234.569592032219 48.1395348837209  C 154.464483938571 48.1395348837209  5 48.1395348837209  5 48.1395348837209  C 2.20000000000005 48.1395348837209  0 45.4279069767442  0 41.9767441860465  Z " stroke-width="2" stroke="#dddfe6" fill="none" transform="matrix(1 0 0 1 492 30 )" mask="url(#clip74)" />
  </g>
</svg>