<?xml version="1.0" encoding="utf-8"?>
<svg version="1.1" xmlns:xlink="http://www.w3.org/1999/xlink" width="178px" height="25px" xmlns="http://www.w3.org/2000/svg">
  <defs>
    <mask fill="white" id="clip76">
      <path d="M 0 17.7772808586762  L 0 2.9628801431127  C 0 1.3036672629696  1.10621468926555 0  2.51412429378532 0  L 175.485875706215 0  C 176.893785310734 0  178 1.3036672629696  178 2.9628801431127  L 178 17.7772808586762  C 178 19.4364937388193  176.893785310734 20.7401610017889  175.485875706215 20.7401610017889  C 175.485875706215 20.7401610017889  100.897907881546 20.7401610017889  81.9051794002799 20.7401610017889  C 80.6820366533502 20.7401610017889  76.7778053434439 25  75.6759006851838 25  C 74.7305984416634 25  70.0093899560535 20.7401610017889  69.0204081632653 20.7401610017889  C 28.7415685003572 20.7401610017889  2.51412429378532 20.7401610017889  2.51412429378532 20.7401610017889  C 1.10621468926555 20.7401610017889  0 19.4364937388193  0 17.7772808586762  Z " fill-rule="evenodd" />
    </mask>
  </defs>
  <g transform="matrix(1 0 0 1 -51 -16 )">
    <path d="M 0 17.7772808586762  L 0 2.9628801431127  C 0 1.3036672629696  1.10621468926555 0  2.51412429378532 0  L 175.485875706215 0  C 176.893785310734 0  178 1.3036672629696  178 2.9628801431127  L 178 17.7772808586762  C 178 19.4364937388193  176.893785310734 20.7401610017889  175.485875706215 20.7401610017889  C 175.485875706215 20.7401610017889  100.897907881546 20.7401610017889  81.9051794002799 20.7401610017889  C 80.6820366533502 20.7401610017889  76.7778053434439 25  75.6759006851838 25  C 74.7305984416634 25  70.0093899560535 20.7401610017889  69.0204081632653 20.7401610017889  C 28.7415685003572 20.7401610017889  2.51412429378532 20.7401610017889  2.51412429378532 20.7401610017889  C 1.10621468926555 20.7401610017889  0 19.4364937388193  0 17.7772808586762  Z " fill-rule="nonzero" fill="#ffffff" stroke="none" transform="matrix(1 0 0 1 51 16 )" />
    <path d="M 0 17.7772808586762  L 0 2.9628801431127  C 0 1.3036672629696  1.10621468926555 0  2.51412429378532 0  L 175.485875706215 0  C 176.893785310734 0  178 1.3036672629696  178 2.9628801431127  L 178 17.7772808586762  C 178 19.4364937388193  176.893785310734 20.7401610017889  175.485875706215 20.7401610017889  C 175.485875706215 20.7401610017889  100.897907881546 20.7401610017889  81.9051794002799 20.7401610017889  C 80.6820366533502 20.7401610017889  76.7778053434439 25  75.6759006851838 25  C 74.7305984416634 25  70.0093899560535 20.7401610017889  69.0204081632653 20.7401610017889  C 28.7415685003572 20.7401610017889  2.51412429378532 20.7401610017889  2.51412429378532 20.7401610017889  C 1.10621468926555 20.7401610017889  0 19.4364937388193  0 17.7772808586762  Z " stroke-width="2" stroke="#dddfe6" fill="none" transform="matrix(1 0 0 1 51 16 )" mask="url(#clip76)" />
  </g>
</svg>