<?xml version="1.0" encoding="utf-8"?>
<svg version="1.1" xmlns:xlink="http://www.w3.org/1999/xlink" width="196px" height="47px" xmlns="http://www.w3.org/2000/svg">
  <defs>
    <mask fill="white" id="clip75">
      <path d="M 0 33.4212880143113  L 0 5.57021466905187  C 0 2.45089445438284  1.21807909604522 0  2.76836158192091 0  L 193.231638418079 0  C 194.781920903955 0  196 2.45089445438284  196 5.57021466905187  L 196 33.4212880143113  C 196 36.5406082289803  194.781920903955 38.9915026833631  193.231638418079 38.9915026833631  C 193.231638418079 38.9915026833631  111.101067105522 38.9915026833631  90.1877256317689 38.9915026833631  C 88.8408942924531 38.9915026833631  84.5418530748034 47  83.3285198555957 47  C 82.287625250371 47  77.0889911875645 38.9915026833631  75.9999999999999 38.9915026833631  C 31.6480192475844 38.9915026833631  2.76836158192091 38.9915026833631  2.76836158192091 38.9915026833631  C 1.21807909604522 38.9915026833631  0 36.5406082289803  0 33.4212880143113  Z " fill-rule="evenodd" />
    </mask>
  </defs>
  <g transform="matrix(1 0 0 1 -40 -53 )">
    <path d="M 0 33.4212880143113  L 0 5.57021466905187  C 0 2.45089445438284  1.21807909604522 0  2.76836158192091 0  L 193.231638418079 0  C 194.781920903955 0  196 2.45089445438284  196 5.57021466905187  L 196 33.4212880143113  C 196 36.5406082289803  194.781920903955 38.9915026833631  193.231638418079 38.9915026833631  C 193.231638418079 38.9915026833631  111.101067105522 38.9915026833631  90.1877256317689 38.9915026833631  C 88.8408942924531 38.9915026833631  84.5418530748034 47  83.3285198555957 47  C 82.287625250371 47  77.0889911875645 38.9915026833631  75.9999999999999 38.9915026833631  C 31.6480192475844 38.9915026833631  2.76836158192091 38.9915026833631  2.76836158192091 38.9915026833631  C 1.21807909604522 38.9915026833631  0 36.5406082289803  0 33.4212880143113  Z " fill-rule="nonzero" fill="#ffffff" stroke="none" transform="matrix(1 0 0 1 40 53 )" />
    <path d="M 0 33.4212880143113  L 0 5.57021466905187  C 0 2.45089445438284  1.21807909604522 0  2.76836158192091 0  L 193.231638418079 0  C 194.781920903955 0  196 2.45089445438284  196 5.57021466905187  L 196 33.4212880143113  C 196 36.5406082289803  194.781920903955 38.9915026833631  193.231638418079 38.9915026833631  C 193.231638418079 38.9915026833631  111.101067105522 38.9915026833631  90.1877256317689 38.9915026833631  C 88.8408942924531 38.9915026833631  84.5418530748034 47  83.3285198555957 47  C 82.287625250371 47  77.0889911875645 38.9915026833631  75.9999999999999 38.9915026833631  C 31.6480192475844 38.9915026833631  2.76836158192091 38.9915026833631  2.76836158192091 38.9915026833631  C 1.21807909604522 38.9915026833631  0 36.5406082289803  0 33.4212880143113  Z " stroke-width="2" stroke="#dddfe6" fill="none" transform="matrix(1 0 0 1 40 53 )" mask="url(#clip75)" />
  </g>
</svg>