<?xml version="1.0" encoding="utf-8"?>
<svg version="1.1" xmlns:xlink="http://www.w3.org/1999/xlink" width="6px" height="12px" xmlns="http://www.w3.org/2000/svg">
  <g transform="matrix(1 0 0 1 -581 -733 )">
    <path d="M 5.39150000000018 0.599864758591366  C 5.27768497995112 0.599864758591366  5.16976576346838 0.650484273095572  5.09699999999998 0.737999999999943  L 0.313000000000102 5.66899999999987  C 0.244035500321843 5.7658392410558  0.205716436907096 5.88114478642206  0.202999999999975 6  C 0.199965554750179 6.11978198527845  0.238873827796397 6.23686051598997  0.313000000000102 6.3309999999999  L 5.09699999999998 11.2619999999999  C 5.16215476178991 11.3488730157198  5.26440873035017 11.4000000000001  5.37300000000005 11.4000000000001  C 5.48159126964993 11.4000000000001  5.58384523821019 11.3488730157198  5.64900000000011 11.2619999999999  C 5.79578462876452 11.0791469043095  5.79578462876452 10.8188530956904  5.64900000000011 10.636  L 1.19700000000012 6  L 5.68600000000015 1.36399999999992  C 5.83278462876456 1.18114690430957  5.83278462876456 0.920853095690404  5.68600000000015 0.737999999999943  C 5.61323423653175 0.650484273095572  5.50531502004901 0.599864758591366  5.39150000000018 0.599864758591366  Z " fill-rule="nonzero" fill="#cfd1d6" stroke="none" transform="matrix(1 0 0 1 581 733 )" />
  </g>
</svg>