<?xml version="1.0" encoding="utf-8"?>
<svg version="1.1" xmlns:xlink="http://www.w3.org/1999/xlink" width="11px" height="9px" xmlns="http://www.w3.org/2000/svg">
  <g transform="matrix(1 0 0 1 -1 -2 )">
    <path d="M 10.694501940179 1.19428976498375  C 10.664666470917 1.08301152827698  10.600944602589 0.983774350030444  10.512173 0.910339999999906  C 10.276194785984 0.714625754920007  9.92633084609258 0.746827528414315  9.73004200000003 0.982327999999939  L 4.57717400000001 7.15177800000004  L 1.41077299999995 4.53718700000002  C 1.27214231352468 4.4217522339809  1.08606270291648 4.38088338348598  0.911818308596139 4.42760108341247  C 0.615703982482387 4.50699405490673  0.440016611918281 4.81140286529012  0.519409583412539 5.10751719140387  C 0.54908848242053 5.21821146337959  0.612301464261236 5.31700640763381  0.700371000000018 5.39033999999992  L 4.29277100000002 8.36184000000003  C 4.52814121106212 8.55793844418736  4.87788077241521 8.52626726365008  5.07419500000003 8.29107699999997  L 10.583713 1.69466199999999  C 10.7000393980563 1.55592219390473  10.7413893801913 1.36916724394882  10.694501940179 1.19428976498375  Z " fill-rule="nonzero" fill="#ffffff" stroke="none" transform="matrix(1 0 0 1 1 2 )" />
  </g>
</svg>