<?xml version="1.0" encoding="utf-8"?>
<svg version="1.1" xmlns:xlink="http://www.w3.org/1999/xlink" width="6px" height="12px" xmlns="http://www.w3.org/2000/svg">
  <g transform="matrix(1 0 0 1 -707 -733 )">
    <path d="M 0.90300000000002 0.738000000000056  L 5.68599999999992 5.6690000000001  C 5.75496449967818 5.76583924105603  5.79328356309293 5.88114478642206  5.79600000000005 6  C 5.79903444524984 6.11978198527868  5.76012617220363 6.2368605159902  5.68599999999992 6.33100000000013  L 0.90300000000002 11.2620000000002  C 0.837845238210093 11.3488730157201  0.735591269649831 11.4000000000001  0.626999999999953 11.4000000000001  C 0.518408730350075 11.4000000000001  0.416154761789812 11.3488730157201  0.350999999999885 11.2620000000002  C 0.204215371235478 11.0791469043097  0.204215371235478 10.8188530956904  0.350999999999885 10.6360000000002  L 4.80299999999988 6  L 0.312999999999874 1.36400000000015  C 0.166215371235467 1.18114690430968  0.166215371235467 0.920853095690518  0.312999999999874 0.738000000000056  C 0.385765763468271 0.650484273095685  0.493684979951013 0.59986475859148  0.607500000000073 0.59986475859148  C 0.721315020048905 0.59986475859148  0.829234236531647 0.650484273095685  0.902000000000044 0.738000000000056  Z " fill-rule="nonzero" fill="#cfd1d6" stroke="none" transform="matrix(1 0 0 1 707 733 )" />
  </g>
</svg>