<?xml version="1.0" encoding="utf-8"?>
<svg version="1.1" xmlns:xlink="http://www.w3.org/1999/xlink" width="15px" height="15px" xmlns="http://www.w3.org/2000/svg">
  <g transform="matrix(1 0 0 1 -16 -9 )">
    <path d="M 10.9199999999998 2.88399999999999  L 10.9199999999998 11.961  C 10.9199999999998 12.4337557458551  10.5367557458551 12.817  10.0639999999999 12.817  L 3.90399999999988 12.817  C 3.43170049567459 12.81590034593  3.04909965406989 12.4332995043253  3.04799999999989 11.961  L 3.04799999999989 2.88399999999999  L 10.9199999999998 2.88399999999999  Z M 4.75799999999992 1.85499999999999  L 4.75799999999992 1.34999999999999  C 4.75799220226145 1.34932946276788  4.75798830329336 1.34865888586438  4.75798830329336 1.34798830329348  C 4.75798830329336 1.25244304157275  4.83544304157272 1.1749883032935  4.93098830329336 1.1749883032935  C 4.93165888586464 1.1749883032935  4.93232946276737 1.17499220226156  4.93299999999988 1.17500000000001  L 9.04399999999987 1.17500000000001  C 9.0446705372317 1.17499220226156  9.04534111413579 1.1749883032935  9.04601169670639 1.1749883032935  C 9.14155695842715 1.1749883032935  9.21901169670639 1.25244304157275  9.21901169670639 1.34798830329348  C 9.21901169670639 1.34865888586444  9.2190077977383 1.3493294627678  9.21899999999994 1.34999999999999  L 9.21899999999994 1.85499999999999  L 4.75799999999992 1.85499999999999  Z M 13.4829999999999 1.85399999999999  L 13.4859999999999 1.85499999999999  L 10.2399999999999 1.85499999999999  L 10.2399999999999 1.34999999999999  C 10.2399999999999 0.687258300203041  9.70274169979689 0.150000000000006  9.03999999999985 0.149999999999977  L 4.93299999999988 0.150000000000006  C 4.27025830020295 0.150000000000006  3.73299999999995 0.687258300203041  3.73299999999995 1.34999999999999  L 3.73299999999995 1.85499999999999  L 0.482999999999947 1.85499999999999  C 0.213517961778621 1.87557272465529  0.00535416115224052 2.10023382393715  0.00535416115224052 2.37049999999999  C 0.00535416115224052 2.64076617606284  0.213517961778621 2.8654272753447  0.482999999999947 2.886  L 2.01999999999987 2.886  L 2.01999999999987 11.96  C 2.01999999999987 13.001056753431  2.86394324656885 13.845  3.90499999999986 13.845  L 10.0649999999999 13.845  C 11.1060567534309 13.845  11.9499999999999 13.001056753431  11.9499999999999 11.96  L 11.9499999999999 2.88399999999999  L 13.4829999999999 2.88399999999999  C 13.7674266461628 2.88399999999999  13.9979999999999 2.65342664616284  13.9979999999999 2.369  C 13.9980673521299 2.36563341079304  13.9981010307215 2.36226623214273  13.9981010307215 2.35889896927836  C 13.9981010307215 2.07999517061381  13.7720048293861 1.85389896927836  13.4931010307215 1.85389896927836  C 13.4897337678573 1.85389896927836  13.4863665892067 1.85393264787001  13.4829999999999 1.85399999999999  Z M 6.98399999999992 11.272  L 6.98299999999995 11.275  C 7.26743052967265 11.2750000000146  7.4980038835098 11.0444266461775  7.4980038835098 10.7600000000146  C 7.4980038835098 10.7593333314587  7.49800258900405 10.7586666635287  7.49799999999993 10.758  L 7.49799999999993 5.27500000000001  C 7.48585840990404 4.99966414614005  7.25910343000555 4.78268810260906  6.98349999999994 4.78268810260906  C 6.70789656999432 4.78268810260906  6.48114159009583 4.99966414614005  6.46899999999994 5.27499999999998  L 6.46899999999994 10.755  C 6.46899741099583 10.7556666635291  6.46899611649008 10.7563333314584  6.46899611649008 10.7570000000146  C 6.46899611649008 11.0414266461775  6.69956947032722 11.2720000000147  6.98399611649006 11.2720000000147  Z M 4.58399999999995 11.272  C 4.86953121566239 11.272  5.10099999999989 11.0405312156625  5.10099999999989 10.755  L 5.10099999999989 5.27499999999998  C 5.10199963706737 5.26190575803963  5.10249999999996 5.24877818238502  5.10249999999996 5.23564583884769  C 5.10249999999996 4.95011462318519  4.87103121566247 4.71864583884769  4.58549999999991 4.71864583884769  C 4.29996878433735 4.71864583884769  4.06849999999986 4.95011462318519  4.06849999999986 5.23564583884769  C 4.06849999999986 5.24877818238502  4.06900036293246 5.26190575803963  4.06999999999994 5.27499999999998  L 4.06999999999994 10.755  C 4.07730394471866 11.0366785847104  4.30335184088631 11.2636043367854  4.58499999999992 11.272  Z M 9.38599999999997 11.272  L 9.38499999999988 11.272  C 9.66974985650779 11.2708984449318  9.90000213067526 11.0397519871753  9.89999999999986 10.755  L 9.89999999999986 5.27499999999998  C 9.90099963706734 5.26190575803963  9.90149999999994 5.24877818238502  9.90149999999994 5.23564583884769  C 9.90149999999994 4.95011462318519  9.67003121566245 4.71864583884769  9.38449999999989 4.71864583884769  C 9.09896878433744 4.71864583884769  8.86749999999995 4.95011462318519  8.86749999999995 5.23564583884769  C 8.86749999999995 5.24877818238502  8.86800036293243 5.26190575803963  8.86899999999991 5.27499999999998  L 8.86899999999991 10.755  C 8.86899999999991 11.0405312156625  9.10046878433741 11.272  9.38599999999997 11.272  Z " fill-rule="nonzero" fill="#ffffff" stroke="none" transform="matrix(1 0 0 1 16 9 )" />
  </g>
</svg>