<?xml version="1.0" encoding="utf-8"?>
<svg version="1.1" xmlns:xlink="http://www.w3.org/1999/xlink" width="100px" height="60px" xmlns="http://www.w3.org/2000/svg">
  <defs>
    <linearGradient gradientUnits="userSpaceOnUse" x1="201" y1="1446" x2="201" y2="1506" id="LinearGradient62">
      <stop id="Stop63" stop-color="#ffffff" offset="0" />
      <stop id="Stop64" stop-color="#f2f2f2" offset="0" />
      <stop id="Stop65" stop-color="#e4e4e4" offset="1" />
      <stop id="Stop66" stop-color="#ffffff" offset="1" />
    </linearGradient>
  </defs>
  <g transform="matrix(1 0 0 1 -151 -1446 )">
    <path d="M 201 1446  C 229 1446  251 1459.2  251 1476  C 251 1492.8  229 1506  201 1506  C 173 1506  151 1492.8  151 1476  C 151 1459.2  173 1446  201 1446  Z " fill-rule="nonzero" fill="url(#LinearGradient62)" stroke="none" />
    <path d="M 201 1446.5  C 228.72 1446.5  250.5 1459.48  250.5 1476  C 250.5 1492.52  228.72 1505.5  201 1505.5  C 173.28 1505.5  151.5 1492.52  151.5 1476  C 151.5 1459.48  173.28 1446.5  201 1446.5  Z " stroke-width="1" stroke="#797979" fill="none" />
  </g>
</svg>