<?xml version="1.0" encoding="utf-8"?>
<svg version="1.1" xmlns:xlink="http://www.w3.org/1999/xlink" width="354px" height="53px" xmlns="http://www.w3.org/2000/svg">
  <defs>
    <mask fill="white" id="clip81">
      <path d="M 0 36.9767441860465  L 0 6.16279069767442  C 0 2.71162790697675  2.20000000000005 0  5 0  L 349 0  C 351.8 0  354 2.71162790697675  354 6.16279069767442  L 354 36.9767441860465  C 354 40.4279069767442  351.8 43.1395348837209  349 43.1395348837209  C 349 43.1395348837209  285.061508344384 43.1395348837209  247.289452825462 43.1395348837209  C 244.856910508535 43.1395348837209  242.901954681093 51.7890656874745  240.71052631579 51.7890656874745  C 238.830543202271 51.7890656874745  236.53644346282 43.1395348837209  234.569592032219 43.1395348837209  C 154.464483938571 43.1395348837209  5 43.1395348837209  5 43.1395348837209  C 2.20000000000005 43.1395348837209  0 40.4279069767442  0 36.9767441860465  Z " fill-rule="evenodd" />
    </mask>
  </defs>
  <g transform="matrix(1 0 0 1 -946 -42 )">
    <path d="M 0 36.9767441860465  L 0 6.16279069767442  C 0 2.71162790697675  2.20000000000005 0  5 0  L 349 0  C 351.8 0  354 2.71162790697675  354 6.16279069767442  L 354 36.9767441860465  C 354 40.4279069767442  351.8 43.1395348837209  349 43.1395348837209  C 349 43.1395348837209  285.061508344384 43.1395348837209  247.289452825462 43.1395348837209  C 244.856910508535 43.1395348837209  242.901954681093 51.7890656874745  240.71052631579 51.7890656874745  C 238.830543202271 51.7890656874745  236.53644346282 43.1395348837209  234.569592032219 43.1395348837209  C 154.464483938571 43.1395348837209  5 43.1395348837209  5 43.1395348837209  C 2.20000000000005 43.1395348837209  0 40.4279069767442  0 36.9767441860465  Z " fill-rule="nonzero" fill="#ffffff" stroke="none" transform="matrix(1 0 0 1 946 42 )" />
    <path d="M 0 36.9767441860465  L 0 6.16279069767442  C 0 2.71162790697675  2.20000000000005 0  5 0  L 349 0  C 351.8 0  354 2.71162790697675  354 6.16279069767442  L 354 36.9767441860465  C 354 40.4279069767442  351.8 43.1395348837209  349 43.1395348837209  C 349 43.1395348837209  285.061508344384 43.1395348837209  247.289452825462 43.1395348837209  C 244.856910508535 43.1395348837209  242.901954681093 51.7890656874745  240.71052631579 51.7890656874745  C 238.830543202271 51.7890656874745  236.53644346282 43.1395348837209  234.569592032219 43.1395348837209  C 154.464483938571 43.1395348837209  5 43.1395348837209  5 43.1395348837209  C 2.20000000000005 43.1395348837209  0 40.4279069767442  0 36.9767441860465  Z " stroke-width="2" stroke="#dddfe6" fill="none" transform="matrix(1 0 0 1 946 42 )" mask="url(#clip81)" />
  </g>
</svg>