<?xml version="1.0" encoding="utf-8"?>
<svg version="1.1" xmlns:xlink="http://www.w3.org/1999/xlink" width="15px" height="15px" xmlns="http://www.w3.org/2000/svg">
  <g transform="matrix(1 0 0 1 -695 -689 )">
    <path d="M 7.5 13.9655172363281  C 11.0708068945313 13.9655172363281  13.9655172363281 11.0708065576172  13.9655172363281 7.5  C 13.9655172363281 3.92919344238281  11.0708068945313 1.03448276367187  7.5 1.03448276367187  C 3.92919336914062 1.03448276367187  1.03448276367187 3.92919344238281  1.03448276367187 7.5  C 1.03448276367187 11.0708065576172  3.92919336914062 13.9655172363281  7.5 13.9655172363281  Z M 11.1202396582031 6.98275861816406  L 8.01724138183594 6.98275861816406  L 8.01724138183594 3.87976119140625  C 8.01724138183594 3.59205043945312  7.78566465820313 3.36206895996094  7.5 3.36206895996094  C 7.21234395996094 3.36206895996094  6.98275861816406 3.59384767089844  6.98275861816406 3.87976119140625  L 6.98275861816406 6.98275861816406  L 3.87976111816406 6.98275861816406  C 3.59205051269531 6.98275861816406  3.36206895996094 7.21433547363281  3.36206895996094 7.5  C 3.36206895996094 7.78765614257813  3.59384767089844 8.01724138183594  3.87976111816406 8.01724138183594  L 6.98275861816406 8.01724138183594  L 6.98275861816406 11.1202388085937  C 6.98275861816406 11.4079495605469  7.21433534179688 11.6379310400391  7.5 11.6379310400391  C 7.78765604003906 11.6379310400391  8.01724138183594 11.4061523291016  8.01724138183594 11.1202388085937  L 8.01724138183594 8.01724138183594  L 11.1202396582031 8.01724138183594  C 11.40795 8.01724138183594  11.6379310400391 7.78566452636719  11.6379310400391 7.5  C 11.6379310400391 7.21234385742188  11.4061525927734 6.98275861816406  11.1202396582031 6.98275861816406  Z M 7.5 15  C 3.35786431640625 15  0 11.6421356103516  0 7.5  C 0 3.35786438964844  3.35786431640625 0  7.5 0  C 11.6421362109375 0  15 3.35786438964844  15 7.5  C 15 11.6421356103516  11.6421362109375 15  7.5 15  Z " fill-rule="nonzero" fill="#00935c" stroke="none" transform="matrix(1 0 0 1 695 689 )" />
  </g>
</svg>