<?xml version="1.0" encoding="utf-8"?>
<svg version="1.1" xmlns:xlink="http://www.w3.org/1999/xlink" width="13px" height="13px" xmlns="http://www.w3.org/2000/svg">
  <g transform="matrix(1 0 0 1 -623 -178 )">
    <path d="M 12.2052734375 6.5025390625  C 12.20654296875 5.7357421875  12.05546875 4.99052734375  11.75966796875 4.28974609375  C 11.47275390625 3.6130859375  11.06396484375 3.00498046875  10.54091796875 2.483203125  C 10.019140625 1.96142578125  9.41103515625 1.5513671875  8.734375 1.264453125  C 8.03359375 0.967382812499999  7.28837890625 0.817578124999999  6.52158203125 0.817578124999999  C 5.75478515625 0.817578124999999  5.0095703125 0.9673828125  4.30751953125 1.264453125  C 3.630859375 1.5513671875  3.02275390625 1.96015625  2.5009765625 2.483203125  C 1.97919921875 3.00498046875  1.569140625 3.6130859375  1.2822265625 4.28974609375  C 0.98515625 4.99052734375  0.8353515625 5.7357421875  0.8353515625 6.5025390625  C 0.8353515625 7.2693359375  0.98515625 8.01455078125  1.2822265625 8.71533203125  C 1.569140625 9.3919921875  1.9779296875 10.00009765625  2.5009765625 10.521875  C 3.02275390625 11.04365234375  3.630859375 11.4537109375  4.30751953125 11.740625  C 5.00830078125 12.0376953125  5.753515625 12.1875  6.5203125 12.1875  C 7.287109375 12.1875  8.03232421875 12.0376953125  8.73310546875 11.740625  C 9.409765625 11.4537109375  10.01787109375 11.044921875  10.5396484375 10.521875  C 11.06142578125 10.00009765625  11.471484375 9.3919921875  11.7583984375 8.71533203125  C 12.05546875 8.01455078125  12.2052734375 7.2693359375  12.2052734375 6.5025390625  Z M 11.1794921875 6.5025390625  C 11.1794921875 9.07080078125  9.08984375 11.16044921875  6.52158203125 11.16044921875  C 3.9533203125 11.16044921875  1.863671875 9.07080078125  1.863671875 6.5025390625  C 1.863671875 3.93427734375  3.9533203125 1.84462890625  6.52158203125 1.84462890625  C 9.08984375 1.84462890625  11.1794921875 3.93427734375  11.1794921875 6.5025390625  Z " fill-rule="nonzero" fill="#d81e06" stroke="none" transform="matrix(1 0 0 1 623 178 )" />
  </g>
</svg>