<?xml version="1.0" encoding="utf-8"?>
<svg version="1.1" xmlns:xlink="http://www.w3.org/1999/xlink" width="12px" height="12px" viewBox="641 26  12 12" xmlns="http://www.w3.org/2000/svg">
  <path d="M 647 26  C 650.36 26  653 28.64  653 32  C 653 35.36  650.36 38  647 38  C 643.64 38  641 35.36  641 32  C 641 28.64  643.64 26  647 26  Z " fill-rule="nonzero" fill="#f0f0f0" stroke="none" />
  <path d="M 647 26.5  C 650.08 26.5  652.5 28.92  652.5 32  C 652.5 35.08  650.08 37.5  647 37.5  C 643.92 37.5  641.5 35.08  641.5 32  C 641.5 28.92  643.92 26.5  647 26.5  Z " stroke-width="1" stroke="#797979" fill="none" />
  <path d="M 647 35  C 645.32 35  644 33.68  644 32  C 644 30.32  645.32 29  647 29  C 648.68 29  650 30.32  650 32  C 650 33.68  648.68 35  647 35  " fill-rule="nonzero" fill="#797979" stroke="none" />
</svg>