<?xml version="1.0" encoding="utf-8"?>
<svg version="1.1" xmlns:xlink="http://www.w3.org/1999/xlink" width="12px" height="12px" viewBox="566 26  12 12" xmlns="http://www.w3.org/2000/svg">
  <path d="M 572 26  C 575.36 26  578 28.64  578 32  C 578 35.36  575.36 38  572 38  C 568.64 38  566 35.36  566 32  C 566 28.64  568.64 26  572 26  Z " fill-rule="nonzero" fill="#ffffff" stroke="none" />
  <path d="M 572 26.5  C 575.08 26.5  577.5 28.92  577.5 32  C 577.5 35.08  575.08 37.5  572 37.5  C 568.92 37.5  566.5 35.08  566.5 32  C 566.5 28.92  568.92 26.5  572 26.5  Z " stroke-width="1" stroke="#797979" fill="none" />
  <path d="M 572 35  C 570.32 35  569 33.68  569 32  C 569 30.32  570.32 29  572 29  C 573.68 29  575 30.32  575 32  C 575 33.68  573.68 35  572 35  " fill-rule="nonzero" fill="#797979" stroke="none" />
</svg>