<?xml version="1.0" encoding="utf-8"?>
<svg version="1.1" xmlns:xlink="http://www.w3.org/1999/xlink" width="12px" height="12px" viewBox="1005 26  12 12" xmlns="http://www.w3.org/2000/svg">
  <path d="M 1011 26  C 1014.36 26  1017 28.64  1017 32  C 1017 35.36  1014.36 38  1011 38  C 1007.64 38  1005 35.36  1005 32  C 1005 28.64  1007.64 26  1011 26  Z " fill-rule="nonzero" fill="#f0f0f0" stroke="none" />
  <path d="M 1011 26.5  C 1014.08 26.5  1016.5 28.92  1016.5 32  C 1016.5 35.08  1014.08 37.5  1011 37.5  C 1007.92 37.5  1005.5 35.08  1005.5 32  C 1005.5 28.92  1007.92 26.5  1011 26.5  Z " stroke-width="1" stroke="#797979" fill="none" />
  <path d="M 1011 35  C 1009.32 35  1008 33.68  1008 32  C 1008 30.32  1009.32 29  1011 29  C 1012.68 29  1014 30.32  1014 32  C 1014 33.68  1012.68 35  1011 35  " fill-rule="nonzero" fill="#797979" stroke="none" />
</svg>