<?xml version="1.0" encoding="utf-8"?>
<svg version="1.1" xmlns:xlink="http://www.w3.org/1999/xlink" width="12px" height="12px" viewBox="1080 26  12 12" xmlns="http://www.w3.org/2000/svg">
  <path d="M 1086 26  C 1089.36 26  1092 28.64  1092 32  C 1092 35.36  1089.36 38  1086 38  C 1082.64 38  1080 35.36  1080 32  C 1080 28.64  1082.64 26  1086 26  Z " fill-rule="nonzero" fill="#f0f0f0" stroke="none" />
  <path d="M 1086 26.5  C 1089.08 26.5  1091.5 28.92  1091.5 32  C 1091.5 35.08  1089.08 37.5  1086 37.5  C 1082.92 37.5  1080.5 35.08  1080.5 32  C 1080.5 28.92  1082.92 26.5  1086 26.5  Z " stroke-width="1" stroke="#797979" fill="none" />
  <path d="M 1086 35  C 1084.32 35  1083 33.68  1083 32  C 1083 30.32  1084.32 29  1086 29  C 1087.68 29  1089 30.32  1089 32  C 1089 33.68  1087.68 35  1086 35  " fill-rule="nonzero" fill="#797979" stroke="none" />
</svg>