<?xml version="1.0" encoding="utf-8"?>
<svg version="1.1" xmlns:xlink="http://www.w3.org/1999/xlink" width="12px" height="12px" viewBox="185 311  12 12" xmlns="http://www.w3.org/2000/svg">
  <path d="M 191 311  C 194.36 311  197 313.64  197 317  C 197 320.36  194.36 323  191 323  C 187.64 323  185 320.36  185 317  C 185 313.64  187.64 311  191 311  Z " fill-rule="nonzero" fill="#f0f0f0" stroke="none" />
  <path d="M 191 311.5  C 194.08 311.5  196.5 313.92  196.5 317  C 196.5 320.08  194.08 322.5  191 322.5  C 187.92 322.5  185.5 320.08  185.5 317  C 185.5 313.92  187.92 311.5  191 311.5  Z " stroke-width="1" stroke="#797979" fill="none" />
  <path d="M 191 320  C 189.32 320  188 318.68  188 317  C 188 315.32  189.32 314  191 314  C 192.68 314  194 315.32  194 317  C 194 318.68  192.68 320  191 320  " fill-rule="nonzero" fill="#797979" stroke="none" />
</svg>