<?xml version="1.0" encoding="utf-8"?>
<svg version="1.1" xmlns:xlink="http://www.w3.org/1999/xlink" width="12px" height="12px" viewBox="130 311  12 12" xmlns="http://www.w3.org/2000/svg">
  <path d="M 136 311  C 139.36 311  142 313.64  142 317  C 142 320.36  139.36 323  136 323  C 132.64 323  130 320.36  130 317  C 130 313.64  132.64 311  136 311  Z " fill-rule="nonzero" fill="#ffffff" stroke="none" />
  <path d="M 136 311.5  C 139.08 311.5  141.5 313.92  141.5 317  C 141.5 320.08  139.08 322.5  136 322.5  C 132.92 322.5  130.5 320.08  130.5 317  C 130.5 313.92  132.92 311.5  136 311.5  Z " stroke-width="1" stroke="#797979" fill="none" />
  <path d="M 136 320  C 134.32 320  133 318.68  133 317  C 133 315.32  134.32 314  136 314  C 137.68 314  139 315.32  139 317  C 139 318.68  137.68 320  136 320  " fill-rule="nonzero" fill="#797979" stroke="none" />
</svg>