<?xml version="1.0" encoding="utf-8"?>
<svg version="1.1" xmlns:xlink="http://www.w3.org/1999/xlink" width="28px" height="28px" xmlns="http://www.w3.org/2000/svg">
  <g transform="matrix(1 0 0 1 -20 -597 )">
    <path d="M 34 598  C 41.28 598  47 603.72  47 611  C 47 618.28  41.28 624  34 624  C 26.72 624  21 618.28  21 611  C 21 603.72  26.72 598  34 598  Z " fill-rule="nonzero" fill="#409eff" stroke="none" />
    <path d="M 34 598  C 41.28 598  47 603.72  47 611  C 47 618.28  41.28 624  34 624  C 26.72 624  21 618.28  21 611  C 21 603.72  26.72 598  34 598  Z " stroke-width="2" stroke="#0075ff" fill="none" />
  </g>
</svg>