<?xml version="1.0" encoding="utf-8"?>
<svg version="1.1" xmlns:xlink="http://www.w3.org/1999/xlink" width="28px" height="28px" xmlns="http://www.w3.org/2000/svg">
  <g transform="matrix(1 0 0 1 -20 -496 )">
    <path d="M 34 497  C 41.28 497  47 502.72  47 510  C 47 517.28  41.28 523  34 523  C 26.72 523  21 517.28  21 510  C 21 502.72  26.72 497  34 497  Z " fill-rule="nonzero" fill="#ffffff" stroke="none" />
    <path d="M 34 497  C 41.28 497  47 502.72  47 510  C 47 517.28  41.28 523  34 523  C 26.72 523  21 517.28  21 510  C 21 502.72  26.72 497  34 497  Z " stroke-width="2" stroke="#1890ff" fill="none" />
  </g>
</svg>