<?xml version="1.0" encoding="utf-8"?>
<svg version="1.1" xmlns:xlink="http://www.w3.org/1999/xlink" width="28px" height="28px" xmlns="http://www.w3.org/2000/svg">
  <g transform="matrix(1 0 0 1 -20 -750 )">
    <path d="M 34 751  C 41.28 751  47 756.72  47 764  C 47 771.28  41.28 777  34 777  C 26.72 777  21 771.28  21 764  C 21 756.72  26.72 751  34 751  Z " fill-rule="nonzero" fill="#ffffff" stroke="none" fill-opacity="0" />
    <path d="M 34 751  C 41.28 751  47 756.72  47 764  C 47 771.28  41.28 777  34 777  C 26.72 777  21 771.28  21 764  C 21 756.72  26.72 751  34 751  Z " stroke-width="2" stroke="#cccccc" fill="none" />
  </g>
</svg>