<?xml version="1.0" encoding="utf-8"?>
<svg version="1.1" xmlns:xlink="http://www.w3.org/1999/xlink" width="14px" height="14px" viewBox="289 657  14 14" xmlns="http://www.w3.org/2000/svg">
  <path d="M 296 657  C 299.92 657  303 660.08  303 664  C 303 667.92  299.92 671  296 671  C 292.08 671  289 667.92  289 664  C 289 660.08  292.08 657  296 657  Z " fill-rule="nonzero" fill="#f0f0f0" stroke="none" />
  <path d="M 296 657.5  C 299.64 657.5  302.5 660.36  302.5 664  C 302.5 667.64  299.64 670.5  296 670.5  C 292.36 670.5  289.5 667.64  289.5 664  C 289.5 660.36  292.36 657.5  296 657.5  Z " stroke-width="1" stroke="#797979" fill="none" />
  <path d="M 296 667.5  C 294.04 667.5  292.5 665.96  292.5 664  C 292.5 662.04  294.04 660.5  296 660.5  C 297.96 660.5  299.5 662.04  299.5 664  C 299.5 665.96  297.96 667.5  296 667.5  " fill-rule="nonzero" fill="#797979" stroke="none" />
</svg>