<?xml version="1.0" encoding="utf-8"?>
<svg version="1.1" xmlns:xlink="http://www.w3.org/1999/xlink" width="28px" height="28px" xmlns="http://www.w3.org/2000/svg">
  <g transform="matrix(1 0 0 1 -20 -613 )">
    <path d="M 34 614  C 41.28 614  47 619.72  47 627  C 47 634.28  41.28 640  34 640  C 26.72 640  21 634.28  21 627  C 21 619.72  26.72 614  34 614  Z " fill-rule="nonzero" fill="#ffffff" stroke="none" />
    <path d="M 34 614  C 41.28 614  47 619.72  47 627  C 47 634.28  41.28 640  34 640  C 26.72 640  21 634.28  21 627  C 21 619.72  26.72 614  34 614  Z " stroke-width="2" stroke="#0075ff" fill="none" />
  </g>
</svg>