<?xml version="1.0" encoding="utf-8"?>
<svg version="1.1" xmlns:xlink="http://www.w3.org/1999/xlink" width="14px" height="14px" viewBox="157 815  14 14" xmlns="http://www.w3.org/2000/svg">
  <path d="M 164 815  C 167.92 815  171 818.08  171 822  C 171 825.92  167.92 829  164 829  C 160.08 829  157 825.92  157 822  C 157 818.08  160.08 815  164 815  Z " fill-rule="nonzero" fill="#ffffff" stroke="none" />
  <path d="M 164 815.5  C 167.64 815.5  170.5 818.36  170.5 822  C 170.5 825.64  167.64 828.5  164 828.5  C 160.36 828.5  157.5 825.64  157.5 822  C 157.5 818.36  160.36 815.5  164 815.5  Z " stroke-width="1" stroke="#797979" fill="none" />
  <path d="M 164 825.5  C 162.04 825.5  160.5 823.96  160.5 822  C 160.5 820.04  162.04 818.5  164 818.5  C 165.96 818.5  167.5 820.04  167.5 822  C 167.5 823.96  165.96 825.5  164 825.5  " fill-rule="nonzero" fill="#797979" stroke="none" />
</svg>