<?xml version="1.0" encoding="utf-8"?>
<svg version="1.1" xmlns:xlink="http://www.w3.org/1999/xlink" width="28px" height="28px" xmlns="http://www.w3.org/2000/svg">
  <g transform="matrix(1 0 0 1 -20 -758 )">
    <path d="M 34 759  C 41.28 759  47 764.72  47 772  C 47 779.28  41.28 785  34 785  C 26.72 785  21 779.28  21 772  C 21 764.72  26.72 759  34 759  Z " fill-rule="nonzero" fill="#0075ff" stroke="none" />
    <path d="M 34 759  C 41.28 759  47 764.72  47 772  C 47 779.28  41.28 785  34 785  C 26.72 785  21 779.28  21 772  C 21 764.72  26.72 759  34 759  Z " stroke-width="2" stroke="#0075ff" fill="none" />
  </g>
</svg>