<?xml version="1.0" encoding="utf-8"?>
<svg version="1.1" xmlns:xlink="http://www.w3.org/1999/xlink" width="14px" height="14px" viewBox="64 774  14 14" xmlns="http://www.w3.org/2000/svg">
  <path d="M 71 774  C 74.92 774  78 777.08  78 781  C 78 784.92  74.92 788  71 788  C 67.08 788  64 784.92  64 781  C 64 777.08  67.08 774  71 774  Z " fill-rule="nonzero" fill="#f0f0f0" stroke="none" />
  <path d="M 71 774.5  C 74.64 774.5  77.5 777.36  77.5 781  C 77.5 784.64  74.64 787.5  71 787.5  C 67.36 787.5  64.5 784.64  64.5 781  C 64.5 777.36  67.36 774.5  71 774.5  Z " stroke-width="1" stroke="#797979" fill="none" />
  <path d="M 71 784.5  C 69.04 784.5  67.5 782.96  67.5 781  C 67.5 779.04  69.04 777.5  71 777.5  C 72.96 777.5  74.5 779.04  74.5 781  C 74.5 782.96  72.96 784.5  71 784.5  " fill-rule="nonzero" fill="#797979" stroke="none" />
</svg>