<?xml version="1.0" encoding="utf-8"?>
<svg version="1.1" xmlns:xlink="http://www.w3.org/1999/xlink" width="12px" height="12px" viewBox="185 414  12 12" xmlns="http://www.w3.org/2000/svg">
  <path d="M 191 414  C 194.36 414  197 416.64  197 420  C 197 423.36  194.36 426  191 426  C 187.64 426  185 423.36  185 420  C 185 416.64  187.64 414  191 414  Z " fill-rule="nonzero" fill="#ffffff" stroke="none" />
  <path d="M 191 414.5  C 194.08 414.5  196.5 416.92  196.5 420  C 196.5 423.08  194.08 425.5  191 425.5  C 187.92 425.5  185.5 423.08  185.5 420  C 185.5 416.92  187.92 414.5  191 414.5  Z " stroke-width="1" stroke="#797979" fill="none" />
  <path d="M 191 423  C 189.32 423  188 421.68  188 420  C 188 418.32  189.32 417  191 417  C 192.68 417  194 418.32  194 420  C 194 421.68  192.68 423  191 423  " fill-rule="nonzero" fill="#797979" stroke="none" />
</svg>