<?xml version="1.0" encoding="utf-8"?>
<svg version="1.1" xmlns:xlink="http://www.w3.org/1999/xlink" width="12px" height="12px" viewBox="245 414  12 12" xmlns="http://www.w3.org/2000/svg">
  <path d="M 251 414  C 254.36 414  257 416.64  257 420  C 257 423.36  254.36 426  251 426  C 247.64 426  245 423.36  245 420  C 245 416.64  247.64 414  251 414  Z " fill-rule="nonzero" fill="#ffffff" stroke="none" />
  <path d="M 251 414.5  C 254.08 414.5  256.5 416.92  256.5 420  C 256.5 423.08  254.08 425.5  251 425.5  C 247.92 425.5  245.5 423.08  245.5 420  C 245.5 416.92  247.92 414.5  251 414.5  Z " stroke-width="1" stroke="#797979" fill="none" />
  <path d="M 251 423  C 249.32 423  248 421.68  248 420  C 248 418.32  249.32 417  251 417  C 252.68 417  254 418.32  254 420  C 254 421.68  252.68 423  251 423  " fill-rule="nonzero" fill="#797979" stroke="none" />
</svg>