<?xml version="1.0" encoding="utf-8"?>
<svg version="1.1" xmlns:xlink="http://www.w3.org/1999/xlink" width="12px" height="12px" viewBox="1090 279  12 12" xmlns="http://www.w3.org/2000/svg">
  <path d="M 1096 279  C 1099.36 279  1102 281.64  1102 285  C 1102 288.36  1099.36 291  1096 291  C 1092.64 291  1090 288.36  1090 285  C 1090 281.64  1092.64 279  1096 279  Z " fill-rule="nonzero" fill="#f0f0f0" stroke="none" />
  <path d="M 1096 279.5  C 1099.08 279.5  1101.5 281.92  1101.5 285  C 1101.5 288.08  1099.08 290.5  1096 290.5  C 1092.92 290.5  1090.5 288.08  1090.5 285  C 1090.5 281.92  1092.92 279.5  1096 279.5  Z " stroke-width="1" stroke="#797979" fill="none" />
  <path d="M 1096 288  C 1094.32 288  1093 286.68  1093 285  C 1093 283.32  1094.32 282  1096 282  C 1097.68 282  1099 283.32  1099 285  C 1099 286.68  1097.68 288  1096 288  " fill-rule="nonzero" fill="#797979" stroke="none" />
</svg>