<?xml version="1.0" encoding="utf-8"?>
<svg version="1.1" xmlns:xlink="http://www.w3.org/1999/xlink" width="84px" height="22px" xmlns="http://www.w3.org/2000/svg">
  <g transform="matrix(1 0 0 1 -676 -318 )">
    <path d="M 677 321  A 2 2 0 0 1 679 319 L 757 319  A 2 2 0 0 1 759 321 L 759 337  A 2 2 0 0 1 757 339 L 679 339  A 2 2 0 0 1 677 337 L 677 321  Z " fill-rule="nonzero" fill="#d72626" stroke="none" fill-opacity="0.243137254901961" />
    <path d="M 676.5 321  A 2.5 2.5 0 0 1 679 318.5 L 757 318.5  A 2.5 2.5 0 0 1 759.5 321 L 759.5 337  A 2.5 2.5 0 0 1 757 339.5 L 679 339.5  A 2.5 2.5 0 0 1 676.5 337 L 676.5 321  Z " stroke-width="1" stroke="#d72626" fill="none" stroke-opacity="0.564705882352941" />
  </g>
</svg>