<?xml version="1.0" encoding="utf-8"?>
<svg version="1.1" xmlns:xlink="http://www.w3.org/1999/xlink" width="15px" height="15px" xmlns="http://www.w3.org/2000/svg">
  <g transform="matrix(1 0 0 1 -36 -492 )">
    <path d="M 1.46095147478592 11.2009324452902  L 1.92844909609895 11.6684300666032  L 4.08335394862036 9.47700285442436  C 3.39539326377073 8.78335803981983  3.00937525272523 7.84597884995258  3.00937525272523 6.86902796442837  C 3.00937525272523 4.82364060520251  4.66748932071155 3.16552653721619  6.71287667993741 3.16552653721619  C 7.68982756546162 3.16552653721619  8.62720675532886 3.55154454826169  9.3208515699334 4.23950523311132  L 11.5122787821123 2.08458610846813  L 11.0082588011418 1.65361084681256  L 9.84679352997146 2.06998572787821  L 9.29163653663178 1.74857754519505  L 9.05788772597526 0.528682207421503  L 7.77225499524263 0.19267364414843  L 6.97602759276879 1.13499048525214  L 6.42817792578497 1.13499048525214  L 5.63196479543292 0.19267364414843  L 4.38285442435775 0.528696479543292  L 4.11256898192198 1.74128449096099  L 3.5574119885823 2.06269267364415  L 2.39594671741199 1.65362511893435  L 1.46095147478592 2.58863463368221  L 1.87732635585157 3.75008563273073  L 1.55591817316841 4.30524262607041  L 0.336022835394862 4.57552806850618  L 0 5.82462416745956  L 0.942316841103711 6.6208515699334  L 0.942316841103711 7.16870123691722  L 0 7.96492863939106  L 0.336022835394862 9.25056137012369  L 1.54861084681256 9.48431018078021  L 1.87001902949572 10.0394671741199  L 1.46095147478592 11.2009324452902  Z M 3.6523786869648 14.802159847764  C 3.70572580711617 14.8090398853954  3.759735658155 14.8090398853954  3.81308277830637 14.802159847764  L 6.12867745004757 13.8525499524263  L 4.01761655566128 11.748782112274  L 3.11182207421503 14.0716983824929  C 3.03019447053462 14.2723158309475  3.07619441441674 14.5022874673643  3.22871075166508 14.6560704091342  C 3.34448408227991 14.7598580644448  3.49724017059333 14.8125366588886  3.6523786869648 14.8021741198858  Z M 12.6423311132255 7.58360608943863  L 10.2923834443387 5.23294481446242  L 11.3252854424358 4.20078496669838  L 13.6752188392008 6.55073263558516  L 12.6423311132255 7.58360608943863  Z M 7.01985727878211 13.2024262607041  L 8.95561370123692 11.2666698382493  L 11.8702093244529 8.3520742150333  L 9.51809229305423 6.0072502378687  L 6.60349666983825 8.91453853472883  L 4.66774024738345 10.8576022835395  L 7.01985727878211 13.2024262607041  Z M 14.4415033301617 5.77350142721218  L 14.4488106565176 5.77350142721218  C 14.7995398734271 5.45766527456936  14.9997944128582 5.00784985936124  14.9997944128582 4.53587161949191  C 14.9997944128582 3.61604951366644  14.2541312665429 2.87038636735109  13.3343091607174 2.87038636735109  C 12.8623309208481 2.87038636735109  12.41251550564 3.07064090678224  12.0966793529971 3.42137012369172  L 14.4415033301617 5.77350142721218  Z " fill-rule="nonzero" fill="#ffffff" stroke="none" transform="matrix(1 0 0 1 36 492 )" />
  </g>
</svg>